<?xml version="1.0" encoding="UTF-8" standalone="no"?>
<!DOCTYPE svg PUBLIC "-//W3C//DTD SVG 20010904//EN"
"http://www.w3.org/TR/2001/REC-SVG-20010904/DTD/svg10.dtd">
<!-- Created with Sodipodi ("http://www.sodipodi.com/") -->
<svg
   xmlns="http://www.w3.org/2000/svg"
   version="1.0"
   width="468pt"
   height="366pt"
   viewBox="0 0 468 366"
   preserveAspectRatio="xMidYMid meet"
   xmlns:sodipodi="http://sodipodi.sourceforge.net/DTD/sodipodi-0.dtd"
   xmlns:xlink="http://www.w3.org/1999/xlink"
   id="svg602"
   sodipodi:version="0.34"
   sodipodi:docname="coffee-noir.svg">
  <defs
     id="defs607" />
  <sodipodi:namedview
     id="base" />
  <metadata
     id="metadata603">
Created by potrace 1.7, written by Peter Selinger 2001-2005
</metadata>
  <path
     d="M 0 1560 L 0 -0 L 2000 -0 L 4000 -0 L 4000 1560 L 4000 3120 L 2000 3120 L 0 3120 L 0 1560 z M 3865 2788 L 3865 2580 L 3820 2579 C 3660 2577 3587 2558 3565 2513 C 3559 2501 3548 2485 3541 2476 C 3534 2467 3530 2460 3533 2460 C 3536 2460 3533 2445 3525 2428 C 3509 2388 3514 2329 3535 2317 C 3543 2313 3550 2302 3550 2295 C 3550 2287 3555 2280 3562 2280 C 3568 2280 3570 2277 3567 2274 C 3563 2270 3576 2255 3595 2240 C 3614 2225 3627 2210 3624 2208 C 3622 2205 3626 2197 3635 2190 C 3643 2183 3650 2172 3650 2164 C 3650 2157 3659 2149 3669 2145 C 3686 2140 3699 2113 3700 2084 C 3700 2079 3684 2068 3665 2060 C 3646 2053 3633 2044 3635 2040 C 3637 2036 3620 2021 3597 2007 C 3573 1992 3548 1971 3540 1960 C 3532 1949 3521 1940 3514 1940 C 3502 1940 3448 1884 3439 1860 C 3435 1852 3437 1836 3443 1825 C 3449 1814 3455 1803 3455 1800 C 3457 1782 3481 1762 3520 1745 C 3545 1734 3572 1718 3581 1708 C 3590 1698 3602 1690 3609 1690 C 3629 1690 3616 1665 3583 1642 C 3565 1630 3550 1615 3550 1611 C 3550 1604 3500 1578 3480 1574 C 3477 1574 3453 1563 3425 1550 C 3398 1537 3369 1526 3361 1524 C 3354 1523 3343 1517 3337 1511 C 3331 1505 3314 1500 3300 1500 C 3286 1500 3265 1492 3254 1483 C 3244 1473 3226 1463 3215 1462 C 3204 1460 3194 1454 3192 1449 C 3190 1444 3182 1440 3174 1440 C 3148 1440 3062 1370 3049 1338 C 3034 1302 3031 1191 3043 1113 L 3050 1062 L 2995 1055 C 2964 1051 2933 1042 2926 1035 C 2919 1027 2894 1017 2872 1010 C 2849 1004 2830 996 2830 991 C 2830 987 2820 978.0001 2807 973 C 2789 965 2783 953 2782 921 C 2778 866 2767 838 2736 807 C 2722 792 2710 777 2710 772 C 2710 767 2690 757 2665 750 C 2640 743 2617 733 2614 729 C 2611 724 2598 720 2584 720 C 2571 720 2560 716 2560 712 C 2560 705 2494 690 2400 676.0001 C 2386 674 2364 667 2352 659 C 2329 645 2290 572 2290 545 C 2290 536 2283 516 2275 500 C 2267 484 2258 450 2255 423 C 2248 348 2230 283 2214 269 C 2203 260 2196 262 2181 279 C 2165 297 2163 306 2172 333 C 2186 377 2183 521 2167 536 C 2163 540 2160 572 2160 606 C 2160 723 2146 760 2074 835 C 1992 920 1997 945.0001 2090 914 C 2122 904 2152 899 2285 885 C 2351 878 2363 875 2375 869 C 2400 856 2500 878 2535 905 C 2573 933 2578 951.9999 2585 1064 C 2589 1145 2599 1166 2635 1172 C 2658 1175 2680 1219 2680 1260 C 2680 1279 2687 1290 2705 1298 C 2738 1313 2745 1350 2727 1405 C 2718 1429 2715 1452 2718 1454 C 2722 1456 2725 1476 2724 1497 C 2724 1518 2728 1538 2733 1541 C 2738 1545 2770 1546 2804 1543 C 2881 1538 2904 1553 2902 1607 C 2899 1679 2856 1809 2830 1825 C 2825 1828 2820 1838 2820 1847 C 2820 1856 2814 1871 2807 1879 C 2799 1888 2783 1921 2771 1952 C 2748 2009 2748 2009 2767 2037 C 2784 2062 2786 2080 2784 2185 C 2782 2250 2778 2318 2775 2335 C 2772 2351 2767 2383 2764 2405 C 2761 2427 2754 2450 2750 2455 C 2741 2467 2730 2511 2724 2559 C 2722 2579 2715 2599 2710 2604 C 2694 2620 2698 2640 2717 2640 C 2726 2640 2730 2643 2726 2647 C 2719 2655 2818 2719 2838 2720 C 2844 2720 2850 2724 2850 2729 C 2850 2734 2861 2741 2875 2744 C 2889 2748 2899 2754 2896 2759 C 2890 2768 2994 2844 3026 2854 C 3037 2857 3056 2869 3067 2879 C 3078 2890 3106 2908 3129 2920 C 3157 2934 3175 2951 3182 2971 L 3192 3000 L 3528 2998 L 3865 2995 L 3865 2788 z M 1010 2985 C 1010 2982 976 2943 935 2899 C 894 2855 859.9999 2815 859.9999 2810 C 859.9999 2805 846 2793 828 2784 C 800 2769 767 2741 677 2657 C 659 2640 649.9999 2624 654 2614 C 657 2605 660 2587 660 2574 C 660 2560 664 2551 669 2555 C 675 2558 688 2541 699 2518 C 726 2461 770 2389 787 2372 C 794.0001 2365 800 2352 800 2344 C 800 2336 811 2312 824 2291 C 838 2270 856 2235 865 2214 C 874 2192 882 2175 883 2175 C 883 2175 877 2162 868 2145 C 845 2102 816 2037 814 2022 C 813 2014 805 2001 797 1992 C 788 1982 779 1958 775 1937 C 771 1917 764 1897 759 1894 C 754 1891 752 1884 755 1879 C 759 1874 756 1870 751 1870 C 745 1870 740 1863 740 1855 C 740 1847 735.0001 1840 729 1840 C 723 1840 720 1833 723 1826 C 726 1818 721 1796 712 1778 C 703 1760 695 1738 693 1730 C 692 1722 685 1711 677 1705 C 653 1687 633 1646 634 1615 C 635 1587 638 1585 675 1584 C 699 1584 722 1590 733 1600 C 741.9999 1609 773 1628 800 1641 C 827.0001 1654 849 1671 850 1678 C 850 1684 857 1690 865 1690 C 873 1690 880 1693 880 1698 C 880 1707 936 1736 968 1743 C 984 1747 993 1743 997 1732 C 1001 1723 1009 1711 1016 1705 C 1027 1697 1026 1683 1016 1632 C 1000 1560 993 1549 977 1571 C 969 1581 951 1586 922 1584 C 884 1583 873 1576 838 1536 L 797 1490 L 765 1510 C 725 1535 711 1535 682 1510 C 665 1496 660 1485 665 1470 C 669 1459 667 1450 661 1450 C 655 1450 649.9999 1442 649 1433 C 649 1423 637 1391 622 1361 C 601 1318 585 1301 550 1283 C 525 1270 497 1250 487 1237 C 477 1225 462 1206 453 1196 C 445 1185 437 1166 437 1153 C 438 1140 434 1127 429 1124 C 424 1121 420 1100 420 1076 C 420 1053 415 1029 409 1023 C 403 1017 397 1004 396 994 C 394 984 389 975 384 973 C 369 968 314 1017.727 287.906 1041.453 C 258.2649 1076.821 231.812 1120.085 219.2649 1188.462 C 210.2649 1188.462 206 1308 201 1314 C 195 1321 154 2702 164 2753 C 169 2773 169.0855 2837.367 183.0855 2870.368 C 210.0855 2933.368 296 2983 311 2974 C 316 2971 320 2974 320 2979 C 320 2987 429 2990 665 2990 C 855 2990 1010 2988 1010 2985 z M 3867 2427 C 3875 2419 3875 2231 3867 2224 C 3864 2221 3849 2231 3833 2247 C 3802 2277 3764 2300 3740 2303 C 3717 2307 3684 2333 3677 2354 C 3660 2399 3694 2423 3782 2425 C 3802 2425 3822 2429 3825 2432 C 3833 2439 3857 2436 3867 2427 z M 3872 1463 C 3871 1167 3869 918.9999 3868 912.0001 C 3867 905 3856 888 3843 874 C 3831 859.9999 3820 847 3820 844 C 3820 842 3799 815 3774 784 C 3749 753 3731 725 3735 722 C 3738 719 3729 708.9999 3716 701 C 3702 692 3673 668 3651 647 C 3629 627 3608 610 3605 610 C 3598 610 3560 572 3560 564 C 3560 548 3490 476 3439 440 C 3407 418 3374 393 3366 385 C 3359 377 3350 374 3346 377 C 3343 381 3340 378 3340 372 C 3340 358 3270 309 3259 316 C 3255 318 3249 312 3246 303 C 3240 286 3183 253 3168 258 C 3163 259 3160 254 3160 247 C 3160 241 3149 226 3135 215 C 3121 204 3098 185 3084 172 C 3048 140 3026 147 3023 192 C 3021 212 3013 241 3005 257 C 2997 272 2990 292 2990 301 C 2990 310 2987 320 2983 324 C 2979 328 2974 354 2973 381 C 2970 432 2937 519 2925 510 C 2915 503 2891 565 2899 578 C 2905 588 2978 586 2988 576 C 2990 573 2987 562 2981 551.0001 C 2974 540 2972 519 2976 506 C 2994 434 3090 412 3210 454 C 3251 468 3305 482 3329 486 C 3354 490 3392 505 3414 520 C 3437 535 3469 553 3487 561 C 3512 571 3521 583 3529 617.0001 C 3535 640 3544 661 3549 665 C 3554 668 3557 681 3554 695 C 3552 708 3553 721 3558 723 C 3569 730 3561 905 3550 905 C 3549 905 3546 916 3544 929 C 3542 943 3533 967 3525 983 C 3517 1000 3510 1022 3510 1032 C 3510 1057 3493 1089 3463 1120 C 3443 1140 3429 1144 3385 1144 C 3356 1144 3326 1139 3318 1132 C 3309 1125 3282 1114 3257 1106 C 3202 1090 3190 1098 3188 1154 C 3187 1174 3183 1190 3179 1190 C 3165 1190 3192 1251 3209 1257 C 3218 1260 3232 1269 3241 1276 C 3249 1284 3265 1291 3276 1293 C 3286 1294 3300 1299 3307 1303 C 3313 1307 3349 1320 3387 1331 C 3424 1342 3459 1356 3465 1361 C 3470 1366 3482 1370 3491 1370 C 3501 1370 3515 1376 3522 1383 C 3529 1389 3555 1406 3580 1420 C 3605 1433 3634 1452 3644 1462 C 3655 1472 3667 1480 3671 1480 C 3675 1480 3702 1510 3731 1546 C 3780 1607 3783 1616 3784 1668 C 3784 1715 3780 1730 3760 1753 C 3734 1782 3678 1814 3648 1816 C 3638 1817 3628 1819 3625 1820 C 3622 1821 3614 1823 3608 1824 C 3601 1824 3595 1836 3595 1849 C 3595 1884 3639 1912 3702 1917 C 3764 1922 3834 1954 3851 1987 C 3858 2000 3866 2008 3868 2005 C 3871 2002 3873 1758 3872 1463 z M 3474 715 C 3457 703 3418 692 3333 675 C 3320 673 3310 675 3310 679 C 3310 684 3327 691 3348 695 C 3368 698 3396 708 3409 717 C 3462 751 3519 749 3474 715 z "
     id="path605"
     transform="matrix(0.117,0,0,-0.117,0,366)"
     style="font-size:12;"
     sodipodi:nodetypes="ccccccccccccccccccccccccccccccccccccccccccccccccccccccccccccccccccccccccccccccccccccccccccccccccccccccccccccccccccccccccccccccccccccccccccccccccccccccccccccccccccccccccccccccccccccccccccccccccccccccccccccccccccccccccccccccccccccccccccccccccccccccccccccccccccccccc" />
</svg>
