<?xml version="1.0" encoding="UTF-8" standalone="no"?>
<!DOCTYPE svg PUBLIC "-//W3C//DTD SVG 20010904//EN"
"http://www.w3.org/TR/2001/REC-SVG-20010904/DTD/svg10.dtd">
<!-- Created with Sodipodi ("http://www.sodipodi.com/") -->
<svg
   xmlns="http://www.w3.org/2000/svg"
   version="1.0"
   width="468pt"
   height="389pt"
   viewBox="0 0 468 389"
   preserveAspectRatio="xMidYMid meet"
   xmlns:sodipodi="http://sodipodi.sourceforge.net/DTD/sodipodi-0.dtd"
   xmlns:xlink="http://www.w3.org/1999/xlink"
   id="svg602"
   sodipodi:version="0.34"
   sodipodi:docname="coffee-teacup.svg">
  <defs
     id="defs616" />
  <sodipodi:namedview
     id="base" />
  <metadata
     id="metadata603">
Created by potrace 1.7, written by Peter Selinger 2001-2005
</metadata>
  <path
     d="M 2130 3970 C 2130 3965 2110 3960 2085 3960 C 2045 3960 2038 3957 2030 3934 C 2023 3916 2015 3910 2002 3914 C 1973 3924 1850 3801 1850 3763 C 1850 3748 1841 3710 1830 3680 C 1809 3621 1802 3486 1820 3475 C 1826 3472 1830 3453 1830 3433 C 1830 3407 1835 3397 1850 3393 C 1863 3390 1870 3379 1870 3365 C 1870 3353 1877 3337 1885 3330 C 1899 3319 1917 3284 1971 3162 C 1993 3114 1997 3110 2023 3116 C 2046 3121 2050 3118 2050 3101 C 2050 3089 2071 3059 2099 3032 C 2126 3006 2155 2973 2165 2958 C 2174 2942 2188 2930 2195 2930 C 2202 2930 2219 2916 2232 2899 C 2254 2874 2257 2861 2254 2817 C 2252 2789 2255 2761 2261 2754 C 2269 2744 2205 2741 1973 2736 C 1809 2733 1635 2726 1585 2721 C 1364 2696 1252 2678 1100 2640 C 1075 2634 1043 2626 1027 2623 C 1012 2620 997 2614 993.9999 2609 C 991 2604 978 2600 965 2600 C 952.0001 2600 938 2596 935 2590 C 932 2585 920.9999 2580 911 2580 C 882 2580 772 2519 723 2477 C 699 2455 673 2422 664.9999 2403 C 648 2362 645 2314 660 2305 C 664.9999 2302 670 2291 670 2281 C 670 2272 678 2255 687 2244 C 707 2222 736 2164 754 2108 C 757 2098 764.9999 2090 772 2090 C 787 2090 814 2036 808 2018 C 804 2006 758 2049 704 2117 C 651 2182 604 2200 490 2200 C 435 2200 388 2196 385 2190 C 382 2185 366 2180 350 2180 C 334 2180 318 2176 315 2170 C 312 2165 301 2160 291 2160 C 233 2160 82 2037 40 1955 C 32 1938 21 1922 15 1918 C 9 1914 -12.38123 1847 -13.38123 1766 C -17.38123 1618 -1 1613 41 1540 C 72 1486 207 1370 239 1370 C 245 1370 250 1366 250 1361 C 250 1356 258 1350 268 1347 C 277 1343 303 1330 325 1317 C 350 1302 396 1289 450 1281 C 524 1270 574 1254 642 1219 C 652 1214 669.0001 1210 679 1210 C 689.9999 1210 702 1205 705 1199 C 709 1193 718 1191 725 1194 C 744.0001 1201 822 1169 837 1149 C 843.9999 1140 864.9999 1125 885 1116 C 906 1106 920 1092 920 1081 C 920 1063 1017 990 1042 990 C 1061 989 1008 961 988 960 C 978 960 970 953 970 943.9999 C 970 930 978 928 1023 934 C 1051 937 1086 943 1099 947 C 1117 951 1122 949 1118 939 C 1116 931 1100 924 1084 922 C 1037 916.9999 1025 911 1038 898.0001 C 1045 891 1077 888 1117 889 L 1184 891 L 1240 833 C 1270 801 1306 769.0001 1320 762.9999 C 1354 747 1455.89 668.4752 1485.89 668.4752 C 1551.16 627.4587 1646.144 609.9835 1730.287 588.6023 C 1794.271 492.5693 1773.663 493.7459 1867.569 468.2376 C 1884.569 463.2376 2652 423 2830 444 C 2945 458 2983 487 3011 583 L 3024 630 L 3087 630 C 3121 630 3152 635 3155 640 C 3158 646 3171 650 3183 650 C 3195 650 3216 659 3230 670 C 3244 681 3261 689.9999 3268 689.9999 C 3274 689.9999 3280 695 3280 700 C 3280 706 3285 710 3290 710 C 3311 710 3447 809 3465 837 C 3491 877 3508 891.9999 3514 881 C 3517 876 3537 870 3557 866 C 3602 860 3685 845 3760 830 C 3790 824 3832 816 3853 813 C 3873 810 3893 804 3896 799 C 3899 794.0001 3911 789.9999 3924 789.9999 C 3936 789.9999 3951 785 3958 778 C 3967 769.0001 3975 769.0001 3994 780 C 4009 787 4030 789.9999 4047 786 C 4062 782 4090 776 4108 773.0001 C 4126 770 4143 764 4146 759 C 4149 754 4160 750 4171 750 C 4181 750 4198 746.0001 4208 741 C 4217 736 4241 725 4262 716 C 4282 707 4326 679 4360 654 C 4410 616 4419 605 4408 594 C 4388 575 4321 540 4305 540 C 4297 540 4290 536 4290 532 C 4290 528 4269 518 4243 511 C 4197 497 4184 492 4140 470 C 4129 464 4109 460 4096 460 C 4082 460 4068 455 4065 450 C 4062 444 4044 440 4026 440 C 4009 440 3990 436 3985 431 C 3979 426 3957 419 3935 416 C 3913 413 3867 406 3833 400 C 3798 395 3742 385 3708 380 C 3531 351 3301 329 2850 299 C 2621 283 2147 283 1725 298 C 1412 310 1338 315 1305 330 C 1294 335 1265 341 1240 344 C 1106 359 1052 367 1042 373 C 1036 377 988 381 936 382 C 883 383 839.9999 386 839.9999 390 C 839.9999 393 798.0001 402 748.0001 409 C 685 417 634 431 590 452 C 524 483 511 488 450 511 C 431 518 400 534 382 546 C 357 562 353 569 365 573 C 373 577 380 588 380 599 C 380 610 393 626 410 637 C 427 646 440 658 440 662 C 440 666 449 670 460 670 C 471 670 480 675 480 680 C 480 685.9999 487 689.9999 495 689.9999 C 510 689.9999 520 694.0001 567 718 C 580 725 597 730 605 730 C 613 730 620 735 620 739.9999 C 620 746.0001 631 750 644 750 C 658 750 672 755 675 760 C 678 766 692.0001 770 705 770 C 718 770 732 775 735 780 C 737.9999 786 755 789.9999 771.0001 789.9999 C 787 789.9999 810 799 821.0001 809 C 843 829 834 845 810 829 C 802 824 778 820 757 820 C 737 820 712 816 702 811 C 623 771.0001 595 760 575 760 C 554 760 503 736 410 683 L 375 662.9999 L 375 687 C 375 699 379 710 383 710 C 391 710 503 760 542 781 C 552 786 567 789.9999 575 789.9999 C 590 789.9999 600 794.0001 647 818 C 660 825 683 830 698 830 C 714 830 735 839 744.0001 849 C 762.9999 870 753 884 730 868.9999 C 722 864 698 860 677 860 C 657 860 631 855 620 850.0001 C 609 843.9999 591 835 580 830 C 569 824 552 820 543 820 C 533 820 514 811 500 800 C 486 789 465 780 453 780 C 433 780 373 752 345 730 C 340 726 318 712.9999 298 701 C 260 681 260 681 260 700 C 260 727 253 725 199 685.9999 C 102 615 126 514 263 421 C 324 379 418 330 436 330 C 444 330 450 326 450 320 C 450 315 461 310 474 310 C 488 310 502 305 505 300 C 508 294 520 290 530 290 C 540 290 550 287 552 282 C 554 278 602 260 660 241 C 718 223 775 204 787.9999 199 C 801 194 821.0001 190 833 190 C 845 190 875.0001 182 900.0001 174 C 925.0001 165 963 153 985 148 C 1291 78 1586 32 1885 10 C 2046 -1 3018 -1 3200 11 C 3467 29 3721 58 3880 90 C 3910 96 3953 103 3975 107 C 3997 110 4019 116 4025 121 C 4030 126 4049 130 4066 130 C 4084 130 4102 134 4105 140 C 4108 145 4121 150 4132 150 C 4144 150 4167 154 4184 160 C 4347 212 4371 220 4412 241 C 4422 246 4435 250 4440 250 C 4461 250 4586 314 4657 362 C 4696 388 4741 427 4757 447 C 4772 468 4813.111 537.5953 4807.234 560.3477 C 4805.546 583.4746 4802 680 4790 680 C 4785 680 4780 687 4780 696.0001 C 4780 714.9999 4675 820 4655 820 C 4647 820 4640 824 4640 829 C 4640 838 4442 940 4424 940 C 4418 940 4398 947 4380 956 C 4362 965 4331 977.0001 4311 982 C 4291 987 4259 995.9999 4240 1001 C 4130 1033 3859 1081 3703 1096 C 3668 1100 3640 1105 3640 1109 C 3640 1113 3649 1135 3660 1158 C 3671 1180 3680 1206 3680 1214 C 3680 1222 3685 1232 3690 1235 C 3696 1238 3700 1250 3700 1261 C 3700 1271 3704 1288 3709 1298 C 3717 1314 3727 1336 3749 1393 C 3754 1405 3763 1458 3769 1510 C 3776 1562 3786 1610 3791 1616 C 3797 1624 3801 1675 3800 1737 C 3811.502 1795.985 3825.499 1898.994 3825.499 1910.994 C 3825.499 1921.994 3845 1992 3850 1995 C 3856 1998 3868.499 2053.746 3896 2090 C 3917 2090 3995 2167 4018 2210 C 4044 2259 4033.499 2323.749 3916.239 2444.26 C 3904.239 2454.26 3690.405 2564.833 3666.405 2554.833 C 3650.405 2547.834 3804.049 2471.266 3841.991 2435.263 C 3968.006 2323.565 3904 2302 3870 2339 C 3848 2362 3822 2380 3810 2380 C 3789 2380 3740 2421 3740 2439 C 3740 2453 3677 2500 3659 2500 C 3651 2500 3640 2504 3635 2509 C 3629 2514 3603 2520 3575 2523 C 3548 2526 3505 2533 3480 2540 C 3455 2546 3418 2554 3398 2557 C 3377 2560 3345.9 2581.663 3345.9 2585.663 C 3345.9 2595.663 3465.021 2590.948 3497.53 2587.639 C 3533.601 2593.583 3608.598 2555.031 3631.669 2568.313 C 3635.514 2582.003 3533.787 2609.574 3524.787 2614.574 C 3516.787 2618.574 3393.592 2645.127 3335.084 2663.508 C 3236.592 2680.635 3158.397 2695.635 3084.254 2706.635 C 3011.381 2712 2918 2721 2592 2736 L 2450 2743 L 2444 2769 C 2441 2783 2435 2804 2430 2815 C 2425 2826 2419 2859 2417 2888 C 2413 2938 2409 2945 2356 2993 C 2325 3022 2300 3050 2300 3056 C 2300 3068 2248 3120 2236 3120 C 2232 3120 2222 3127 2214 3135 C 2200 3148 2201 3150 2219 3150 C 2245 3150 2248 3188 2223 3197 C 2213 3201 2199 3212 2192 3222 C 2185 3232 2174 3240 2169 3240 C 2163 3240 2145 3254 2128 3270 C 2112 3287 2092 3300 2085 3300 C 2077 3300 2074 3307 2077 3319 C 2081 3334 2074 3342 2048 3353 C 2016 3366 2014 3370 2018 3404 C 2022 3435 2019 3440 2002 3440 C 1979 3440 1967 3478 1971 3533 C 1973 3551 1971 3571 1967 3577 C 1963 3583 1964 3591 1970 3595 C 1976 3599 1978 3606 1974 3611 C 1970 3617 1963 3616 1954 3609 C 1942 3599 1937 3600 1927 3609 C 1918 3619 1919 3624 1934 3635 C 1944 3643 1949 3653 1946 3658 C 1943 3664 1951 3671 1965 3674 C 1988 3680 1989 3684 1984 3724 C 1980 3765 1981 3769 2002 3772 C 2020 3774 2025 3781 2023 3803 C 2021 3826 2025 3830 2049 3830 C 2071 3830 2080 3837 2089 3858 C 2095 3873 2111 3890 2125 3896 C 2145 3906 2152 3905 2166 3889 C 2185 3868 2208 3874 2190 3895 C 2182 3905 2189 3909 2225 3912 C 2250 3914 2274 3912 2279 3907 C 2293 3893 2340 3911 2340 3930 C 2340 3967 2308 3980 2217 3980 C 2166 3980 2130 3976 2130 3970 z M 2705 2653 C 2846 2649 2867 2646 2883 2629 C 2898 2613 2917 2610 3008 2608 L 3115 2606 L 2975 2599 C 2794 2589 2803 2589 2744 2596 C 2706 2600 2691 2598 2681 2586 C 2674 2578 2663 2573 2655 2576 C 2648 2579 2639 2577 2635 2571 C 2627 2557 2523 2557 2514 2571 C 2510 2578 2487 2581 2454 2578 L 2400 2573 L 2402 2612 C 2404 2642 2409 2650 2425 2650 C 2436 2650 2452 2655 2460 2660 C 2468 2666 2491 2668 2510 2664 C 2529 2661 2617 2656 2705 2653 z M 2063 2643 C 2056 2641 2042 2641 2033 2643 C 2023 2646 2029 2648 2045 2648 C 2062 2648 2069 2646 2063 2643 z M 2230 2606 C 2230 2592 2225 2578 2219 2574 C 2213 2571 2211 2557 2214 2545 C 2217 2532 2216 2519 2211 2516 C 2201 2509 2209 2462 2221 2454 C 2226 2451 2230 2438 2230 2425 C 2230 2409 2240 2395 2260 2383 C 2277 2374 2290 2363 2290 2359 C 2290 2348 2364 2342 2383 2352 C 2401 2361 2406 2405 2390 2415 C 2385 2418 2380 2432 2380 2446 C 2380 2463 2385 2470 2400 2470 C 2411 2470 2420 2477 2420 2485 C 2420 2493 2411 2500 2400 2500 C 2389 2500 2380 2507 2380 2515 C 2380 2525 2391 2530 2415 2530 C 2442 2530 2450 2526 2450 2511 C 2450 2495 2464 2492 2573 2481 C 2640 2474 2709 2467 2725 2464 C 2777 2456 3049 2422 3135 2413 C 3163 2411 3189 2404 3195 2399 C 3200 2394 3217 2390 3232 2390 C 3248 2390 3268 2386 3278 2381 C 3295 2373 3323 2364 3410 2341 C 3577 2296 3610 2286 3610 2278 C 3610 2274 3616 2270 3623 2270 C 3639 2269 3690 2224 3690 2210 C 3690 2205 3677 2200 3661 2200 C 3644 2200 3628 2196 3625 2190 C 3622 2185 3603 2180 3584 2180 C 3564 2180 3541 2176 3531 2171 C 3521 2165 3487 2159 3454 2157 C 3407 2155 3396 2151 3398 2138 C 3402 2112 3340 2109 2865 2106 C 2623 2104 2378 2100 2320 2096 C 2189 2088 1773 2113 1610 2140 C 1574 2146 1523 2153 1495 2156 C 1468 2159 1436 2165 1425 2170 C 1414 2175 1385 2181 1360 2184 C 1335 2186 1293 2194 1265 2200 C 1238 2206 1198 2214 1177 2217 C 1157 2220 1137 2226 1134 2231 C 1131 2236 1120 2240 1108 2240 C 1097 2240 1058 2250 1022 2263 C 962 2283 959 2285 987 2288 C 1005 2290 1028 2286 1039 2281 C 1061 2269 1103 2266 1113 2277 C 1131 2295 1234 2324 1305 2331 C 1380 2339 1412 2344 1543 2371 C 1571 2377 1617 2384 1644 2387 C 1671 2390 1708 2401 1727 2411 C 1747 2423 1780 2430 1810 2430 C 1841 2430 1873 2438 1895 2450 C 1915 2461 1943 2470 1958 2470 C 1974 2470 1991 2475 1998 2482 C 2007 2491 2010 2490 2010 2477 C 2010 2463 2017 2461 2058 2466 C 2084 2470 2109 2477 2115 2481 C 2120 2486 2134 2490 2146 2490 C 2175 2490 2184 2504 2166 2520 C 2155 2528 2141 2529 2114 2521 C 2093 2515 2076 2512 2076 2513 C 2075 2514 2070 2524 2064 2535 C 2053 2554 2043 2555 1809 2555 C 1675 2554 1534 2551 1495 2547 C 1440 2542 1434 2543 1465 2550 C 1633 2591 1698 2599 1922 2608 C 2031 2612 2122 2619 2126 2623 C 2130 2627 2155 2630 2182 2630 C 2226 2630 2230 2628 2230 2606 z M 3325 2590 C 3329 2584 3316 2580 3293 2581 C 3259 2582 3258 2583 3280 2590 C 3315 2601 3318 2601 3325 2590 z M 1025 2060 C 1028 2055 1044 2050 1060 2050 C 1076 2050 1092 2046 1095 2040 C 1098 2035 1114 2030 1130 2030 C 1146 2030 1162 2026 1165 2020 C 1168 2015 1186 2010 1204 2010 C 1221 2010 1240 2006 1246 2001 C 1251 1996 1273 1990 1295 1987 C 1317 1983 1360 1976 1390 1971 C 1810 1891 2131 1872 2776 1889 C 3272 1903 3391 1914 3583 1969 C 3603 1975 3635 1984 3653 1989 C 3670 1993 3702 2005 3724 2014 C 3765 2031 3782 2035 3765 2022 C 3750 2011 3732 1970 3725 1930 C 3715 1872 3702 1808 3690 1760 C 3684 1735 3676 1703 3673 1687 C 3670 1672 3664 1657 3659 1654 C 3654 1651 3650 1638 3650 1624 C 3650 1611 3646 1591 3640 1580 C 3635 1569 3626 1551 3620 1540 C 3615 1529 3610 1513 3610 1505 C 3610 1497 3606 1482 3601 1472 C 3596 1463 3588 1444 3582 1430 C 3557 1367 3485 1217 3451 1155 C 3394 1055 3270 927.0001 3195 891.9999 C 3127 860 3060 839.9999 3019 839.9999 C 3000 839.9999 2947 833 2900 824 C 2853 816 2800 806 2783 803 C 2765 800 2750 794.0001 2750 789 C 2750 784 2743 780 2734 780 C 2726 780 2703 764.9999 2683 746.0001 C 2655 719.0001 2647 704 2645 674 L 2644 599.1105 C 2644 599.1105 2013.475 615.2541 1988.475 606.2541 C 1829.299 631.1435 1822.558 714 1660 730 C 1648 741 1628 752 1616 755 C 1593 762 1555 777 1528 791 C 1518 796.0001 1503 800 1495 800 C 1487 800 1480 803 1480 808 C 1480 812 1462 823.0001 1441 832 C 1403 849 1320 934 1290 988 C 1282 1003 1273 1017 1270 1020 C 1264 1026 1182 1193 1168 1230 C 1162 1244 1154 1263 1149 1272 C 1144 1282 1140 1299 1140 1309 C 1140 1320 1136 1332 1130 1335 C 1125 1338 1120 1352 1120 1365 C 1120 1378 1116 1392 1110 1395 C 1105 1398 1100 1414 1100 1430 C 1100 1446 1096 1461 1091 1464 C 1087 1467 1079 1493 1076 1522 C 1058 1656 1050 1709 1040 1765 C 1034 1798 1025 1863 1020 1910 C 1015 1957 1008 2012 1004 2033 C 997.9999 2068 1010 2084 1025 2060 z M 3830 2040 C 3830 2035 3823 2030 3815 2030 C 3807 2030 3800 2035 3800 2040 C 3800 2046 3807 2050 3815 2050 C 3823 2050 3830 2046 3830 2040 z M 547 1969 C 568 1957 605 1929 630 1906 C 655 1884 689 1855 705 1843 C 835 1749 832 1753 847 1630 C 850.0001 1605 856 1581 861 1576 C 866 1570 870 1551 870 1533 C 870 1516 874 1491 879 1478 C 884 1465 893 1437 899 1415 C 906 1393 916 1365 920.9999 1353 C 926 1340 934 1320 939 1308 C 960 1254 1075 1024 1084 1018 C 1090 1014 1091 1008 1087 1003 C 1082 999 1076 1000 1072 1005 C 1068 1011 1053 1021 1038 1029 C 1016 1040 1012 1047 1017 1075 C 1022 1105 1018 1110 940 1171 C 895 1206 847 1245 832 1257 C 816.9999 1270 799 1280 793 1280 C 786 1280 780 1283 780 1288 C 780 1292 770 1300 757 1306 C 745 1313 699 1336 655 1359 C 611 1381 569 1400 562 1400 C 555 1400 542 1404 532 1409 C 511 1419 477 1434 430 1451 C 374 1471 289 1531 224 1596 C 191 1630 182 1647 176 1687 C 165 1772 181 1817 253 1896 C 297 1945 395 1986 477 1989 C 495 1989 526 1980 547 1969 z M 292 538 C 322 495 490 390 529 390 C 534 390 551 383 566 375 L 595 360 L 569 360 C 554 360 516 374 484 391 C 451 409 389 441 345 464 C 255 510 212 544 229 554 C 235 558 240 571 240 584 C 240 596 246 612 253 619 C 263 629 266 625 268 599 C 270 581 281 553 292 538 z M 662.9999 343 C 656 341 644 341 638 343 C 631 346 636 348 650 348 C 664 348 669.0001 346 662.9999 343 z M 1027 244 C 1024 241 1015 240 1008 243 C 1000 246 1003 249 1014 249 C 1025 250 1031 247 1027 244 z "
     id="path605"
     style="font-size:12;"
     sodipodi:nodetypes="cccccccccccccccccccccccccccccccccccccccccccccccccccccccccccccccccccccccccccccccccccccccccccccccccccccccccccccccccccccccccccccccccccccccccccccccccccccccccccccccccccccccccccccccccccccccccccccccccccccccccccccccccccccccccccccccccccccccccccccccccccccccccccccccccccccccccccccccccccccccccccccccccccccccccccccccccccccccccccccccccccccccccccccccccccccccccccccccccccccccccccccccccccccccccccccccccccccccccccccccccccccccccccccccccccccccccccccccccccccccccccccccccccccccccccccccccccccccccc"
     transform="matrix(9.75e-2,0,0,-9.75e-2,0,389)" />
  <path
     d="M2095 2571 c-3 -6 1 -14 9 -17 20 -8 49 -1 50 11 1 14 -51 19 -59 6z"
     id="path606"
     transform="matrix(9.75e-2,0,0,-9.75e-2,0,389)"
     style="font-size:12;" />
  <path
     d="M2355 3950 c-4 -6 -4 -22 -1 -36 5 -17 13 -24 31 -24 16 0 25 6 25 15 0 8 -7 15 -15 15 -9 0 -15 7 -13 16 4 20 -17 30 -27 14z"
     id="path608"
     transform="matrix(9.75e-2,0,0,-9.75e-2,0,389)"
     style="font-size:12;" />
</svg>
