<?xml version="1.0" encoding="UTF-8" standalone="no"?>
<!DOCTYPE svg PUBLIC "-//W3C//DTD SVG 20010904//EN"
"http://www.w3.org/TR/2001/REC-SVG-20010904/DTD/svg10.dtd">
<!-- Created with Sodipodi ("http://www.sodipodi.com/") -->
<svg
   xmlns="http://www.w3.org/2000/svg"
   xmlns:xlink="http://www.w3.org/1999/xlink"
   xmlns:ev="http://www.w3.org/2001/xml-events"
   xmlns:sodipodi="http://sodipodi.sourceforge.net/DTD/sodipodi-0.dtd"
   version="1.1"
   baseProfile="full"
   id="body"
   width="8in"
   height="8in"
   viewBox="0 0 1 1"
   preserveAspectRatio="none"
   sodipodi:version="0.34"
   sodipodi:docname="cupbg.svg">
  <defs
     id="defs1239">
    <linearGradient
       id="linearGradient1876">
      <stop
         style="stop-color:#000;stop-opacity:1;"
         offset="0"
         id="stop1877" />
      <stop
         style="stop-color:#fff;stop-opacity:1;"
         offset="1"
         id="stop1878" />
    </linearGradient>
    <linearGradient
       xlink:href="#linearGradient1876"
       id="linearGradient1879" />
    <radialGradient
       xlink:href="#linearGradient1876"
       id="radialGradient1880"
       cx="0.49999973"
       cy="0.49999994"
       r="0.5"
       fx="0.49999973"
       fy="0.49999994" />
  </defs>
  <sodipodi:namedview
     id="base" />
  <title
     id="title603">SVG drawing</title>
  <desc
     id="desc604">This was produced by version 4.2 of GNU libplot, a free library for exporting 2-D vector graphics.</desc>
  <path
     d="M 0.148891 0.653307 L 0.154513 0.647685 L 0.160136 0.642154 L 0.165849 0.636704 L 0.171645 0.631436 L 0.177534 0.626163 L 0.183506 0.62098 L 0.189569 0.615971 L 0.195717 0.610961 L 0.201956 0.606132 L 0.208282 0.601301 L 0.214608 0.596645 L 0.22111 0.592074 L 0.227607 0.587591 L 0.234203 0.583198 L 0.240876 0.578897 L 0.247643 0.574767 C 0.258268 0.569319 0.268987 0.570112 0.271361 0.574767 C 0.272419 0.576872 0.271537 0.579864 0.269256 0.582851 C 0.260293 0.597434 0.2559 0.613512 0.257658 0.629502 C 0.258097 0.634245 0.259235 0.6389 0.260734 0.643293 C 0.262752 0.64848 0.261701 0.654011 0.257743 0.657263 C 0.255462 0.659105 0.251245 0.660335 0.247465 0.658843 C 0.247115 0.658671 0.246939 0.65858 0.246677 0.658495 C 0.232178 0.652169 0.220847 0.651991 0.206874 0.650761 C 0.185439 0.648915 0.167078 0.649619 0.148891 0.653307 z "
     stroke-width="0"
     fill="black"
     id="path834"
     style="font-size:12;font-weight:400;font-stretch:normal;stroke:#dfc89d;stroke-width:0;stroke-dashoffset:0;fill:#dfc89d;fill-opacity:1;stroke-opacity:1;" />
  <path
     d="M 0.555836 0.793089 L 0.555573 0.792911 L 0.555397 0.792735 L 0.555224 0.792561 L 0.555048 0.792385 L 0.554785 0.792207 L 0.554607 0.792035 L 0.554431 0.791859 L 0.554257 0.791594 L 0.554081 0.791418 L 0.553818 0.791155 L 0.55364 0.790977 L 0.553464 0.790715 L 0.553114 0.790274 L 0.552851 0.789748 L 0.552497 0.789222 L 0.552234 0.788696 L 0.551972 0.788168 L 0.551798 0.787906 L 0.551707 0.787638 L 0.551622 0.787376 L 0.551531 0.787111 L 0.551444 0.786848 L 0.551268 0.786585 L 0.551268 0.786322 L 0.551181 0.786059 L 0.551096 0.785796 L 0.551005 0.785533 C 0.549602 0.778325 0.552765 0.774111 0.554961 0.766996 C 0.555928 0.763742 0.556981 0.762072 0.557857 0.758737 C 0.566468 0.725526 0.530094 0.706376 0.496887 0.695391 C 0.477911 0.689065 0.466048 0.686605 0.445755 0.684146 C 0.421596 0.681246 0.404639 0.682739 0.384609 0.685026 C 0.361326 0.686256 0.336991 0.692056 0.320387 0.6975 C 0.307295 0.701808 0.290865 0.704267 0.273208 0.704267 C 0.248432 0.704267 0.22401 0.695653 0.208282 0.691702 C 0.178588 0.684146 0.157327 0.691089 0.121393 0.713228 C 0.090291 0.732291 0.067979 0.75777 0.056205 0.77947 C 0.045136 0.802663 0.034327 0.828668 0.026862 0.853794 C 0.013331 0.899131 0.006303 0.946659 0.006303 0.996384 L 1.004515 0.996384 C 1.004515 0.775165 0.862893 0.588386 0.663636 0.522843 C 0.609518 0.506594 0.506197 0.50088 0.461307 0.507732 C 0.362471 0.522756 0.30141 0.549552 0.306506 0.609204 C 0.306678 0.611665 0.307736 0.613512 0.308611 0.616325 C 0.315378 0.62924 0.331808 0.638374 0.353153 0.641976 C 0.353153 0.641976 0.546171 0.672461 0.596868 0.693898 C 0.621816 0.704443 0.629021 0.720258 0.623137 0.730976 C 0.618566 0.739407 0.606092 0.739761 0.602666 0.755311 C 0.598445 0.774724 0.620323 0.794056 0.628142 0.793089 L 0.555836 0.793089 "
     stroke-width="0"
     fill="black"
     fill-rule="nonzero"
     id="path835"
     style="font-size:12;font-weight:400;font-stretch:normal;stroke:#000000;stroke-width:0;stroke-dashoffset:0;fill:#dfc89d;fill-opacity:1;" />
  <path
     d="M 0.555836 0.793089 L 0.555573 0.792911 L 0.555397 0.792735 L 0.555224 0.792561 L 0.555048 0.792385 L 0.554785 0.792207 L 0.554607 0.792035 L 0.554431 0.791859 L 0.554257 0.791594 L 0.554081 0.791418 L 0.553818 0.791155 L 0.55364 0.790977 L 0.553464 0.790715 L 0.553114 0.790274 L 0.552851 0.789748 L 0.552497 0.789222 L 0.552234 0.788696 L 0.551972 0.788168 L 0.551798 0.787906 L 0.551707 0.787638 L 0.551622 0.787376 L 0.551531 0.787111 L 0.551444 0.786848 L 0.551268 0.786585 L 0.551268 0.786322 L 0.551181 0.786059 L 0.551096 0.785796 L 0.551005 0.785533 C 0.549602 0.778325 0.552765 0.774111 0.554961 0.766996 C 0.555928 0.763742 0.556981 0.762072 0.557857 0.758737 C 0.566468 0.725526 0.530094 0.706376 0.496887 0.695391 C 0.477911 0.689065 0.466048 0.686605 0.445755 0.684146 C 0.421596 0.681246 0.404639 0.682739 0.384609 0.685026 C 0.361326 0.686256 0.336991 0.692056 0.320387 0.6975 C 0.307295 0.701808 0.290865 0.704267 0.273208 0.704267 C 0.248432 0.704267 0.22401 0.695653 0.208282 0.691702 C 0.178588 0.684146 0.157327 0.691089 0.121393 0.713228 C 0.090291 0.732291 0.067979 0.75777 0.056205 0.77947 C 0.045136 0.802663 0.034327 0.828668 0.026862 0.853794 C 0.013331 0.899131 0.006303 0.946659 0.006303 0.996384 L 1.004515 0.996384 C 1.004515 0.775165 0.862893 0.588386 0.663636 0.522843 C 0.609518 0.506594 0.506197 0.50088 0.461307 0.507732 C 0.362471 0.522756 0.30141 0.549552 0.306506 0.609204 C 0.306678 0.611665 0.307736 0.613512 0.308611 0.616325 C 0.315378 0.62924 0.331808 0.638374 0.353153 0.641976 C 0.353153 0.641976 0.546171 0.672461 0.596868 0.693898 C 0.621816 0.704443 0.629021 0.720258 0.623137 0.730976 C 0.618566 0.739407 0.606092 0.739761 0.602666 0.755311 C 0.598445 0.774724 0.620323 0.794056 0.628142 0.793089 L 0.555836 0.793089 z "
     stroke="#f9eec5"
     stroke-width="0.7474"
     id="path836"
     style="font-size:12;font-weight:400;font-stretch:normal;fill:none;stroke:#ffffff;stroke-width:0.006569;stroke-dashoffset:0;" />
  <path
     d="M 0.728384 0.753641 L 0.728384 0.757942 L 0.728299 0.762604 L 0.728208 0.767346 L 0.728036 0.772356 L 0.727771 0.777624 L 0.727417 0.782983 L 0.72707 0.788605 L 0.726542 0.794318 L 0.726103 0.800203 L 0.725486 0.80618 L 0.724169 0.818567 L 0.722499 0.831127 L 0.720652 0.843955 L 0.718547 0.85687 L 0.716088 0.869785 L 0.713451 0.882437 L 0.710551 0.89491 L 0.708967 0.900974 L 0.707388 0.90695 L 0.705633 0.912748 L 0.703962 0.918457 L 0.702115 0.923901 L 0.700182 0.92926 L 0.698249 0.934448 L 0.69623 0.939366 C 0.687445 0.960014 0.677956 0.978814 0.666884 0.996647 L 0.437583 0.995943 C 0.426864 0.978549 0.417028 0.959573 0.408506 0.939366 C 0.38663 0.887796 0.376174 0.798446 0.376524 0.753641 L 0.728384 0.753641 z "
     stroke="#f9eec5"
     stroke-width="0"
     fill="#f9eec5"
     id="path837"
     style="font-size:12;font-weight:400;font-stretch:normal;fill:#ffffff;stroke:#ffffff;stroke-width:0;stroke-dashoffset:0;" />
  <path
     d="M 0.728384 0.753641 L 0.728384 0.757942 L 0.728299 0.762604 L 0.728208 0.767346 L 0.728036 0.772356 L 0.727771 0.777624 L 0.727417 0.782983 L 0.72707 0.788605 L 0.726542 0.794318 L 0.726103 0.800203 L 0.725486 0.80618 L 0.724169 0.818567 L 0.722499 0.831127 L 0.720652 0.843955 L 0.718547 0.85687 L 0.716088 0.869785 L 0.713451 0.882437 L 0.710551 0.89491 L 0.708967 0.900974 L 0.707388 0.90695 L 0.705633 0.912748 L 0.703962 0.918457 L 0.702115 0.923901 L 0.700182 0.92926 L 0.698249 0.934448 L 0.69623 0.939366 C 0.687445 0.960014 0.677956 0.978814 0.666884 0.996647 L 0.437583 0.995943 C 0.426864 0.978549 0.417028 0.959573 0.408506 0.939366 C 0.38663 0.887796 0.376174 0.798446 0.376524 0.753641 L 0.728384 0.753641 z "
     stroke="#f9eec5"
     stroke-width="0.9086"
     id="path838"
     style="font-size:12;font-weight:400;font-stretch:normal;fill:none;stroke:#ffffff;stroke-width:0.007981;stroke-dashoffset:0;" />
  <path
     d="M 0.559353 0.689156 L 0.559353 0.689156 L 0.55944 0.689241 L 0.559525 0.689327 L 0.559616 0.689419 L 0.55979 0.689506 L 0.559966 0.689682 L 0.560144 0.68986 L 0.560407 0.690031 L 0.56067 0.690207 L 0.56102 0.69047 L 0.561287 0.690735 L 0.561637 0.690998 L 0.562075 0.691261 L 0.562425 0.691615 L 0.563307 0.692319 L 0.564272 0.693107 L 0.565238 0.693898 L 0.566379 0.694778 L 0.567521 0.695745 L 0.568664 0.696711 L 0.569896 0.697763 L 0.571125 0.698908 L 0.57244 0.699959 L 0.573761 0.701104 L 0.57499 0.702334 L 0.577627 0.704706 L 0.578944 0.705844 L 0.580173 0.707076 L 0.581403 0.708305 L 0.582546 0.709539 L 0.58369 0.710678 L 0.584742 0.711907 L 0.585709 0.713052 L 0.586675 0.714195 L 0.587551 0.715248 L 0.588255 0.7163 L 0.588959 0.717358 L 0.589221 0.717792 L 0.589484 0.718233 C 0.593877 0.726493 0.595547 0.729214 0.595547 0.729214 C 0.595547 0.729214 0.612064 0.7221 0.607059 0.714983 C 0.601345 0.706639 0.60047 0.708394 0.588959 0.701808 C 0.578594 0.695921 0.559353 0.689156 0.559353 0.689156 z "
     stroke-width="0"
     fill="black"
     id="path841"
     style="font-size:12;font-weight:400;font-stretch:normal;stroke:#000000;stroke-width:0;stroke-dashoffset:0;fill:#dfc89d;fill-opacity:1;" />
  <path
     d="M 0.559353 0.689156 L 0.559353 0.689156 L 0.55944 0.689241 L 0.559525 0.689327 L 0.559616 0.689419 L 0.55979 0.689506 L 0.559966 0.689682 L 0.560144 0.68986 L 0.560407 0.690031 L 0.56067 0.690207 L 0.56102 0.69047 L 0.561287 0.690735 L 0.561637 0.690998 L 0.562075 0.691261 L 0.562425 0.691615 L 0.563307 0.692319 L 0.564272 0.693107 L 0.565238 0.693898 L 0.566379 0.694778 L 0.567521 0.695745 L 0.568664 0.696711 L 0.569896 0.697763 L 0.571125 0.698908 L 0.57244 0.699959 L 0.573761 0.701104 L 0.57499 0.702334 L 0.577627 0.704706 L 0.578944 0.705844 L 0.580173 0.707076 L 0.581403 0.708305 L 0.582546 0.709539 L 0.58369 0.710678 L 0.584742 0.711907 L 0.585709 0.713052 L 0.586675 0.714195 L 0.587551 0.715248 L 0.588255 0.7163 L 0.588959 0.717358 L 0.589221 0.717792 L 0.589484 0.718233 C 0.593877 0.726493 0.595547 0.729214 0.595547 0.729214 C 0.595547 0.729214 0.612064 0.7221 0.607059 0.714983 C 0.601345 0.706639 0.60047 0.708394 0.588959 0.701808 C 0.578594 0.695921 0.559353 0.689156 0.559353 0.689156 z "
     stroke-width="0.9086"
     id="path842"
     style="font-size:12;font-weight:400;font-stretch:normal;fill:none;stroke:#dfc89d;stroke-width:0.007981;stroke-dashoffset:0;stroke-opacity:1;" />
</svg>
