<?xml version="1.0" encoding="UTF-8" standalone="no"?>
<!DOCTYPE svg PUBLIC "-//W3C//DTD SVG 20010904//EN"
"http://www.w3.org/TR/2001/REC-SVG-20010904/DTD/svg10.dtd">
<!-- Created with Sodipodi ("http://www.sodipodi.com/") -->
<svg
   xmlns="http://www.w3.org/2000/svg"
   xmlns:xlink="http://www.w3.org/1999/xlink"
   xmlns:ev="http://www.w3.org/2001/xml-events"
   version="1.1"
   baseProfile="full"
   id="body"
   width="8in"
   height="8in"
   viewBox="0 0 1 1"
   preserveAspectRatio="none"
   xmlns:sodipodi="http://sodipodi.sourceforge.net/DTD/sodipodi-0.dtd"
   sodipodi:version="0.34"
   sodipodi:docname="logo-orig.svg">
  <defs
     id="defs709" />
  <sodipodi:namedview
     id="base" />
  <title
     id="title603">SVG drawing</title>
  <desc
     id="desc604">This was produced by version 4.2 of GNU libplot, a free library for exporting 2-D vector graphics.</desc>
  <g
     id="content"
     transform="matrix(1.7361e-3,0,0,-1.7361e-3,-0.498992,1.216532)"
     xml:space="preserve"
     stroke="black"
     stroke-linecap="butt"
     stroke-linejoin="miter"
     stroke-miterlimit="10.433"
     stroke-dasharray="none"
     stroke-dashoffset="0"
     stroke-opacity="1"
     fill="none"
     fill-rule="even-odd"
     fill-opacity="1"
     font-style="normal"
     font-variant="normal"
     font-weight="normal"
     font-stretch="normal"
     font-size-adjust="none"
     letter-spacing="normal"
     word-spacing="normal"
     text-anchor="start"><path
   d="M474.34,561 L474.46,561 L474.62,560.99 L474.79,560.99 L474.98,560.98 L475.2,560.97 L475.43,560.95 L475.69,560.93 L475.96,560.91 L476.25,560.89 L476.56,560.87 L477.22,560.82 L477.94,560.75 L478.71,560.69 L479.53,560.61 L480.39,560.54 L481.29,560.45 L482.21,560.37 L483.16,560.28 L484.13,560.19 L486.09,560 L488.05,559.81 L489.01,559.72 L489.96,559.63 L490.89,559.55 L491.78,559.46 L492.64,559.39 L493.46,559.31 L494.23,559.25 L494.95,559.18 L495.61,559.13 L495.92,559.11 L496.21,559.09 L496.48,559.07 L496.74,559.05 L496.97,559.03 L497.19,559.02 L497.38,559.01 L497.56,559.01 L497.71,559 L497.84,559 L582.33,561 C584.34,561,587.4,559.75,590.4,559.37 C594.4,558.87,599.32,558.62,662.32,560 C672.57,560.12,676.84,555.62,676.84,548 L675.84,435.53 C676.96,426.56,662.37,423.05,656.42,426.01 C655.69,425.14,655.84,423.5,655.83,401.46 C646.58,344.05,603.71,322,564.34,322 C538.84,322,511.3,329.34,487.55,363.21 C481.05,372.59,474.84,389,474.84,399.5 C474.84,402,473.84,409.47,473.08,425.07 C465.93,421.42,450.84,430.34,452.84,441.54 L450.84,549 C450.84,561,467.71,561,474.34,561 Z "
   stroke="#d7952a"
   stroke-width="0"
   fill="#d7952a"
   id="path607" /><path
   d="M655.83,426.41 L655.85,426.14 L655.87,425.84 L655.9,425.52 L655.92,425.17 L655.94,424.81 L655.96,424.42 L655.98,424.02 L656,423.61 L656.01,423.18 L656.03,422.74 L656.05,422.29 L656.06,421.83 L656.09,420.9 L656.11,419.95 L656.13,419 L656.15,418.06 L656.17,417.15 L656.17,416.71 L656.18,416.27 L656.19,415.86 L656.19,415.45 L656.19,415.07 L656.2,414.7 L656.2,414.35 L656.2,414.02 L656.2,413.71 L656.2,413.43 C656.2,362.77,615.14,321.7,564.48,321.7 C513.81,321.7,472.75,362.77,472.75,413.43 C472.75,416.16,472.81,423.49,473.04,426.16 C472.94,426.11,472.34,425.84,472.34,425.84 C468.66,424.07,464.48,424.14,460.99,425.88 C456.29,428.13,454.46,432.3,453.8,434.51 C453.1,436.87,453.02,439.43,452.98,440.54 L452.79,536.27 C452.79,538.33,452.96,540.53,452.85,541.66 L452.81,542.18 C452.45,542.82,452.07,543.56,451.77,544.32 C448.54,552.73,454.02,560.71,463.02,560.71 L486.21,560.71 C489.49,560.71,493.51,560.35,497.55,558.58 C499.65,559.75,502.04,560.25,504.32,560.25 H525.89 C526.72,560.25,527.58,560.21,528.45,560.11 C529.95,560.6,531.52,560.84,533.11,560.84 H544.06 C544.06,560.84,544.68,560.83,545.35,560.77 C545.8,560.73,546.28,560.66,546.7,560.57 C546.9,560.53,547.29,560.45,547.8,560.27 C548.14,560.15,548.53,559.99,548.94,559.77 C549.35,559.99,549.75,560.15,550.09,560.27 C550.59,560.45,550.99,560.53,551.18,560.57 C551.6,560.66,552.08,560.73,552.53,560.77 C553.21,560.84,553.82,560.84,553.82,560.84 H564.76 C565.8,560.84,566.82,560.73,567.8,560.54 H584.46 C587.76,560.54,590.98,559.98,594,558.79 C595.98,559.82,598.19,560.25,600.28,560.27 L600.98,560.28 H632.13 C632.97,560.42,634,560.49,634.89,560.49 H645.21 C647.03,560.49,648.82,560.15,650.47,559.45 C652.17,560.16,654.03,560.49,655.92,560.49 H664.92 C674.68,560.49,680.09,551.62,675.71,543.05 C675.71,542.93,675.72,542.81,675.72,542.63 L676.16,440.57 C676.11,438.45,675.77,435.6,674.65,432.98 C674.09,431.69,671.97,427.24,666.86,425.36 C664.19,424.31,661.09,424.22,658.1,425.42 C657.22,425.77,656.35,426.22,655.51,426.77 L655.82,426.41 "
   stroke="#b25307"
   stroke-width="0"
   fill="#b25307"
   fill-rule="nonzero"
   id="path608" /><path
   d="M655.83,426.41 L655.85,426.14 L655.87,425.84 L655.9,425.52 L655.92,425.17 L655.94,424.81 L655.96,424.42 L655.98,424.02 L656,423.61 L656.01,423.18 L656.03,422.74 L656.05,422.29 L656.06,421.83 L656.09,420.9 L656.11,419.95 L656.13,419 L656.15,418.06 L656.17,417.15 L656.17,416.71 L656.18,416.27 L656.19,415.86 L656.19,415.45 L656.19,415.07 L656.2,414.7 L656.2,414.35 L656.2,414.02 L656.2,413.71 L656.2,413.43 C656.2,362.77,615.14,321.7,564.48,321.7 C513.81,321.7,472.75,362.77,472.75,413.43 C472.75,416.16,472.81,423.49,473.04,426.16 C472.94,426.11,472.34,425.84,472.34,425.84 C468.66,424.07,464.48,424.14,460.99,425.88 C456.29,428.13,454.46,432.3,453.8,434.51 C453.1,436.87,453.02,439.43,452.98,440.54 L452.79,536.27 C452.79,538.33,452.96,540.53,452.85,541.66 L452.81,542.18 C452.45,542.82,452.07,543.56,451.77,544.32 C448.54,552.73,454.02,560.71,463.02,560.71 L486.21,560.71 C489.49,560.71,493.51,560.35,497.55,558.58 C499.65,559.75,502.04,560.25,504.32,560.25 H525.89 C526.72,560.25,527.58,560.21,528.45,560.11 C529.95,560.6,531.52,560.84,533.11,560.84 H544.06 C544.06,560.84,544.68,560.83,545.35,560.77 C545.8,560.73,546.28,560.66,546.7,560.57 C546.9,560.53,547.29,560.45,547.8,560.27 C548.14,560.15,548.53,559.99,548.94,559.77 C549.35,559.99,549.75,560.15,550.09,560.27 C550.59,560.45,550.99,560.53,551.18,560.57 C551.6,560.66,552.08,560.73,552.53,560.77 C553.21,560.84,553.82,560.84,553.82,560.84 H564.76 C565.8,560.84,566.82,560.73,567.8,560.54 H584.46 C587.76,560.54,590.98,559.98,594,558.79 C595.98,559.82,598.19,560.25,600.28,560.27 L600.98,560.28 H632.13 C632.97,560.42,634,560.49,634.89,560.49 H645.21 C647.03,560.49,648.82,560.15,650.47,559.45 C652.17,560.16,654.03,560.49,655.92,560.49 H664.92 C674.68,560.49,680.09,551.62,675.71,543.05 C675.71,542.93,675.72,542.81,675.72,542.63 L676.16,440.57 C676.11,438.45,675.77,435.6,674.65,432.98 C674.09,431.69,671.97,427.24,666.86,425.36 C664.19,424.31,661.09,424.22,658.1,425.42 C657.22,425.77,656.35,426.22,655.51,426.77 L655.82,426.41 Z "
   stroke-width="2.9349"
   stroke-linecap="round"
   stroke-linejoin="round"
   id="path609" /><path
   d="M501.94,397.36 L502.02,400.57 L502.26,403.75 L502.66,406.88 L503.21,409.96 L503.91,412.98 L504.75,415.95 L505.74,418.86 L506.86,421.7 L508.11,424.47 L509.49,427.16 L510.99,429.78 L512.62,432.32 L514.36,434.77 L516.22,437.13 L518.19,439.4 L520.26,441.57 L522.43,443.64 L524.7,445.61 L527.06,447.46 L529.51,449.21 L532.05,450.83 L534.67,452.34 L537.36,453.72 L540.13,454.97 L542.97,456.09 L545.88,457.08 L548.85,457.92 L551.87,458.62 L554.95,459.17 L558.08,459.56 L561.26,459.81 L564.48,459.89 C599.01,459.89,627.01,431.89,627.01,397.36 C627.01,362.82,599.01,334.82,564.48,334.82 C529.94,334.82,501.94,362.82,501.94,397.36 Z "
   stroke="#f4e29d"
   stroke-width="0"
   stroke-linecap="round"
   stroke-linejoin="round"
   fill="#f4e29d"
   id="path610" /><path
   d="M501.94,397.36 L502.02,400.57 L502.26,403.75 L502.66,406.88 L503.21,409.96 L503.91,412.98 L504.75,415.95 L505.74,418.86 L506.86,421.7 L508.11,424.47 L509.49,427.16 L510.99,429.78 L512.62,432.32 L514.36,434.77 L516.22,437.13 L518.19,439.4 L520.26,441.57 L522.43,443.64 L524.7,445.61 L527.06,447.46 L529.51,449.21 L532.05,450.83 L534.67,452.34 L537.36,453.72 L540.13,454.97 L542.97,456.09 L545.88,457.08 L548.85,457.92 L551.87,458.62 L554.95,459.17 L558.08,459.56 L561.26,459.81 L564.48,459.89 C599.01,459.89,627.01,431.89,627.01,397.36 C627.01,362.82,599.01,334.82,564.48,334.82 C529.94,334.82,501.94,362.82,501.94,397.36 Z "
   stroke-width="2.7258"
   id="path611" /><path
   d="M621.27,395.38 L621.11,392.54 L620.8,389.75 L620.36,386.99 L619.79,384.28 L619.1,381.62 L618.28,379.01 L617.34,376.45 L616.28,373.96 L615.11,371.53 L613.83,369.16 L612.44,366.86 L610.94,364.64 L609.35,362.49 L607.66,360.42 L605.88,358.44 L604,356.54 L602.04,354.72 L600,353 L597.87,351.38 L595.67,349.86 L593.4,348.44 L591.05,347.12 L588.64,345.92 L586.16,344.82 L583.63,343.85 L581.04,342.99 L578.39,342.25 L575.69,341.65 L572.95,341.17 L570.17,340.82 L567.34,340.61 L564.48,340.54 C533.82,340.54,508.84,364.81,507.7,395.18 C507.67,395.9,621.3,396.04,621.27,395.38 Z "
   stroke="#f4e29d"
   stroke-width="0"
   fill="#f4e29d"
   id="path612" /><path
   d="M523.91,437.09 L524.54,437.73 L525.19,438.36 L525.84,438.98 L526.5,439.58 L527.17,440.18 L527.85,440.77 L528.54,441.34 L529.24,441.91 L529.95,442.47 L530.67,443.01 L531.39,443.54 L532.13,444.06 L532.87,444.57 L533.62,445.07 L534.38,445.56 L535.15,446.03 C536.36,446.65,537.57,446.56,537.85,446.03 C537.97,445.79,537.88,445.45,537.61,445.11 C536.59,443.45,536.09,441.62,536.28,439.8 C536.34,439.26,536.47,438.73,536.65,438.23 C536.87,437.64,536.75,437.01,536.3,436.64 C536.03,436.43,535.56,436.29,535.13,436.46 C535.09,436.48,535.07,436.49,535.03,436.5 C533.39,437.22,532.1,437.24,530.51,437.38 C528.07,437.59,525.98,437.51,523.91,437.09 "
   stroke-width="0"
   fill="black"
   id="path613" /><path
   d="M570.23,421.18 L570.2,421.2 L570.18,421.22 L570.16,421.24 L570.14,421.26 L570.11,421.28 L570.09,421.3 L570.07,421.32 L570.05,421.35 L570.02,421.37 L570,421.4 L569.98,421.42 L569.96,421.45 L569.92,421.5 L569.88,421.56 L569.85,421.62 L569.82,421.68 L569.78,421.74 L569.77,421.77 L569.76,421.8 L569.74,421.83 L569.73,421.86 L569.72,421.89 L569.71,421.92 L569.7,421.95 L569.69,421.98 L569.69,422.01 L569.68,422.04 C569.52,422.86,569.88,423.34,570.12,424.15 C570.24,424.52,570.36,424.71,570.46,425.09 C571.44,428.87,567.3,431.05,563.52,432.3 C561.36,433.02,560.01,433.3,557.7,433.58 C554.95,433.91,553.02,433.74,550.74,433.48 C548.09,433.34,545.32,432.68,543.43,432.06 C541.94,431.57,540.07,431.29,538.06,431.29 C535.24,431.29,532.46,432.27,530.67,432.72 C527.29,433.58,524.88,432.79,520.78,430.27 C517.24,428.11,514.7,425.2,513.36,422.73 C512.1,420.09,510.87,417.13,510.02,414.27 C508.47,409.11,507.68,403.7,507.68,398.04 H621.3 C621.3,423.22,605.18,444.48,582.49,451.94 C576.34,453.79,564.57,454.44,559.47,453.66 C548.22,451.95,541.27,448.89,541.84,442.11 C541.87,441.83,541.99,441.62,542.09,441.3 C542.85,439.83,544.73,438.79,547.15,438.38 C547.15,438.38,569.12,434.91,574.9,432.47 C577.73,431.27,578.56,429.47,577.9,428.25 C577.37,427.29,575.95,427.25,575.56,425.48 C575.08,423.27,577.57,421.07,578.45,421.18 H570.23 "
   stroke-width="0"
   fill="black"
   fill-rule="nonzero"
   id="path614" /><path
   d="M570.23,421.18 L570.2,421.2 L570.18,421.22 L570.16,421.24 L570.14,421.26 L570.11,421.28 L570.09,421.3 L570.07,421.32 L570.05,421.35 L570.02,421.37 L570,421.4 L569.98,421.42 L569.96,421.45 L569.92,421.5 L569.88,421.56 L569.85,421.62 L569.82,421.68 L569.78,421.74 L569.77,421.77 L569.76,421.8 L569.74,421.83 L569.73,421.86 L569.72,421.89 L569.71,421.92 L569.7,421.95 L569.69,421.98 L569.69,422.01 L569.68,422.04 C569.52,422.86,569.88,423.34,570.12,424.15 C570.24,424.52,570.36,424.71,570.46,425.09 C571.44,428.87,567.3,431.05,563.52,432.3 C561.36,433.02,560.01,433.3,557.7,433.58 C554.95,433.91,553.02,433.74,550.74,433.48 C548.09,433.34,545.32,432.68,543.43,432.06 C541.94,431.57,540.07,431.29,538.06,431.29 C535.24,431.29,532.46,432.27,530.67,432.72 C527.29,433.58,524.88,432.79,520.78,430.27 C517.24,428.11,514.7,425.2,513.36,422.73 C512.1,420.09,510.87,417.13,510.02,414.27 C508.47,409.11,507.68,403.7,507.68,398.04 H621.3 C621.3,423.22,605.18,444.48,582.49,451.94 C576.34,453.79,564.57,454.44,559.47,453.66 C548.22,451.95,541.27,448.89,541.84,442.11 C541.87,441.83,541.99,441.62,542.09,441.3 C542.85,439.83,544.73,438.79,547.15,438.38 C547.15,438.38,569.12,434.91,574.9,432.47 C577.73,431.27,578.56,429.47,577.9,428.25 C577.37,427.29,575.95,427.25,575.56,425.48 C575.08,423.27,577.57,421.07,578.45,421.18 H570.23 Z "
   stroke="#f4e29d"
   stroke-width="0.7474"
   id="path615" /><path
   d="M589.87,425.67 L589.87,425.18 L589.86,424.65 L589.85,424.11 L589.83,423.54 L589.8,422.94 L589.76,422.33 L589.72,421.69 L589.66,421.04 L589.6,420.37 L589.54,419.69 L589.38,418.29 L589.2,416.85 L588.99,415.39 L588.74,413.92 L588.47,412.45 L588.17,411.01 L587.84,409.59 L587.66,408.9 L587.48,408.22 L587.28,407.56 L587.08,406.91 L586.88,406.29 L586.66,405.68 L586.44,405.09 L586.21,404.53 C585.21,402.18,584.12,400.04,582.87,398.01 L556.77,398.09 C555.55,400.07,554.43,402.23,553.46,404.53 C550.97,410.4,549.78,420.57,549.82,425.67 Z "
   stroke="#f4e29d"
   stroke-width="0"
   fill="#f4e29d"
   id="path616" /><path
   d="M589.87,425.67 L589.87,425.18 L589.86,424.65 L589.85,424.11 L589.83,423.54 L589.8,422.94 L589.76,422.33 L589.72,421.69 L589.66,421.04 L589.6,420.37 L589.54,419.69 L589.38,418.29 L589.2,416.85 L588.99,415.39 L588.74,413.92 L588.47,412.45 L588.17,411.01 L587.84,409.59 L587.66,408.9 L587.48,408.22 L587.28,407.56 L587.08,406.91 L586.88,406.29 L586.66,405.68 L586.44,405.09 L586.21,404.53 C585.21,402.18,584.12,400.04,582.87,398.01 L556.77,398.09 C555.55,400.07,554.43,402.23,553.46,404.53 C550.97,410.4,549.78,420.57,549.82,425.67 Z "
   stroke="#f4e29d"
   stroke-width="0.9086"
   id="path617" /><path
   d="M570.62,433.01 L570.63,433.01 L570.63,433 L570.64,432.99 L570.66,432.98 L570.67,432.97 L570.7,432.95 L570.72,432.93 L570.75,432.91 L570.78,432.89 L570.81,432.86 L570.85,432.83 L570.89,432.8 L570.93,432.77 L570.98,432.73 L571.08,432.65 L571.18,432.56 L571.3,432.47 L571.42,432.37 L571.55,432.26 L571.69,432.15 L571.83,432.03 L571.97,431.9 L572.12,431.78 L572.26,431.65 L572.41,431.51 L572.71,431.24 L572.85,431.11 L573,430.97 L573.14,430.83 L573.27,430.69 L573.4,430.56 L573.52,430.42 L573.63,430.29 L573.74,430.16 L573.84,430.04 L573.92,429.92 L574,429.8 L574.03,429.75 L574.06,429.7 C574.56,428.76,574.75,428.45,574.75,428.45 C574.75,428.45,576.62,429.26,576.06,430.07 C575.41,431.02,575.31,430.82,574,431.57 C572.82,432.24,570.62,433.01,570.62,433.01 Z "
   stroke-width="0"
   fill="black"
   id="path618" /><path
   d="M570.62,433.01 L570.63,433.01 L570.63,433 L570.64,432.99 L570.66,432.98 L570.67,432.97 L570.7,432.95 L570.72,432.93 L570.75,432.91 L570.78,432.89 L570.81,432.86 L570.85,432.83 L570.89,432.8 L570.93,432.77 L570.98,432.73 L571.08,432.65 L571.18,432.56 L571.3,432.47 L571.42,432.37 L571.55,432.26 L571.69,432.15 L571.83,432.03 L571.97,431.9 L572.12,431.78 L572.26,431.65 L572.41,431.51 L572.71,431.24 L572.85,431.11 L573,430.97 L573.14,430.83 L573.27,430.69 L573.4,430.56 L573.52,430.42 L573.63,430.29 L573.74,430.16 L573.84,430.04 L573.92,429.92 L574,429.8 L574.03,429.75 L574.06,429.7 C574.56,428.76,574.75,428.45,574.75,428.45 C574.75,428.45,576.62,429.26,576.06,430.07 C575.41,431.02,575.31,430.82,574,431.57 C572.82,432.24,570.62,433.01,570.62,433.01 Z "
   stroke-width="0.9086"
   id="path619" /><path
   d="M464.16,432.26 L464.31,432.19 L464.46,432.13 L464.6,432.06 L464.75,432.01 L464.9,431.95 L465.06,431.91 L465.21,431.86 L465.36,431.82 L465.52,431.79 L465.68,431.76 L465.83,431.73 L465.99,431.71 L466.15,431.69 L466.31,431.68 L466.47,431.67 L466.63,431.67 L466.8,431.67 L466.96,431.67 L467.12,431.69 L467.28,431.7 L467.44,431.72 L467.61,431.75 L467.77,431.77 L467.93,431.81 L468.09,431.85 L468.25,431.89 L468.42,431.94 L468.58,431.99 L468.74,432.05 L468.89,432.12 L469.05,432.18 L469.21,432.26 C470.93,433.09,472.22,434.48,472.77,435.35 C475.48,439.92,478.19,443.88,480.8,448.06 C483.55,452.45,486.24,457.13,488.85,463.06 C493.41,473.4,496.57,483.8,498.99,493.77 C499.61,496.31,500.18,498.82,500.71,501.3 V485.69 C500.71,484.82,500.69,484.14,500.61,483.66 C500.51,483.04,500.4,482.22,500.17,481.15 C500.11,480.88,499.99,480.55,499.89,480.26 C499.57,479.34,499.38,478.54,499.35,478.29 C498.67,472.86,502.91,470.43,507.25,473.77 C508.36,474.62,509.76,475.54,511.23,476.45 C512.82,477.44,514.48,478.42,515.99,479.3 C518.15,480.58,519.02,483.71,517.82,485.92 C517.58,486.35,517.15,487.11,516.91,487.59 C516.9,487.76,516.94,488.08,516.95,488.43 C516.97,489.22,516.99,490.07,516.99,490.68 V512.85 L519.92,516.67 C520.21,516.26,520.5,515.82,520.8,515.36 C522.02,513.46,523.12,511.58,523.99,509.6 C525.37,506.42,525.61,505.63,526.46,503.02 C526.8,501.97,527.02,501.39,527.28,500.31 C527.5,499.43,527.62,498.36,527.72,498.03 C527.96,497.27,527.26,497.06,526.41,496.21 C523.88,493.65,524.34,490.25,527.47,488.46 L535.48,484.66 C538.59,482.88,541.8,484.88,542.41,487.28 L542.98,488.75 C543.12,489.3,543.29,489.76,543.4,490.32 C544.18,490.3,545.05,490.42,545.99,490.72 C547.14,491.09,548.35,491.26,549.54,491.41 C551.3,491.62,553.03,491.77,554.68,492.07 C558.45,492.74,559.97,495.92,558.13,499.28 C557.91,499.69,557.47,500.54,557.25,501.01 C557.18,501.46,557.16,502.09,557.16,502.87 L557.11,533.84 C557.52,534.34,558.02,534.95,558.65,535.63 C560.28,537.43,561.35,538.6,561.7,538.95 C562.29,539.6,562.93,540.38,563.43,541.02 L563.78,541.47 V502.92 C563.78,502.09,563.77,501.44,563.69,500.95 C563.56,500.2,563.35,499.69,563.21,499.46 C560.75,495.47,562.7,491.95,567.38,491.93 L568.91,491.93 C577,491.93,582.5,493.56,588.11,498.36 C592.15,501.8,595.32,506.64,597.76,511.54 C598.39,506.49,599.64,501.06,601.48,496.7 C604.22,490.23,608.01,484.82,612.91,480.63 C618.01,476.28,623.55,473.63,629.44,473.63 L630.41,473.64 C629.78,471.87,630.22,469.32,631.48,468.11 L640.47,459.49 C645.26,454.9,651.39,459.59,648.22,465.41 C647.95,465.89,647.79,466.7,647.69,467.26 C647.68,467.81,647.66,468.55,647.65,469.44 C647.63,471.23,647.61,473.58,647.6,475.94 C647.57,480.66,647.56,485.45,647.56,486.02 V521.79 L652.32,515.16 V453.75 C652.32,452.88,652.21,452.06,652.13,451.59 C651.94,451.23,651.71,450.89,651.51,450.59 C650.79,449.54,650.72,446.34,651.39,445.25 C651.39,445.25,654.62,439.99,656.66,435.82 C657.54,434.02,659.18,432.65,660.73,432.04 C662.04,431.52,663.32,431.59,664.4,432.04 C666.65,432.87,667.74,434.95,668.1,435.8 C668.74,437.28,669,439.04,669.03,440.64 L668.6,542.61 C668.6,543.35,668.65,544.07,668.76,544.75 C668.83,545.15,668.98,545.59,669.25,546.06 C671.41,550.02,669.43,553.36,664.92,553.36 H655.93 C651.1,553.36,652.08,547.72,651.3,548.86 C650.77,553.2,649.17,553.36,645.21,553.36 H634.89 C634.12,553.36,633.43,553.27,632.82,553.1 C632.59,553.14,632.35,553.16,632.11,553.16 H601.01 L600.35,553.15 C597.55,553.12,595.73,551.87,595.23,550.04 C592.18,552.3,588.52,553.41,584.46,553.41 H567.4 C567.26,553.41,567.12,553.41,566.99,553.41 C566.33,553.6,565.59,553.71,564.76,553.71 H553.84 C553.84,553.71,552.61,553.7,552.25,553.46 C551.97,553.27,551.8,553,551.64,552.7 C551.13,551.74,550.32,550.28,549.02,549.15 H548.88 C547.57,550.28,546.76,551.74,546.25,552.7 C546.09,553,545.93,553.27,545.64,553.46 C545.27,553.7,544.05,553.71,544.05,553.71 H533.11 C531.58,553.71,530.32,553.34,529.38,552.74 C528.22,553.02,527.03,553.12,525.89,553.12 H504.32 C501.1,553.12,499.15,551.49,499.02,549.21 C495.07,552.86,490.48,553.58,486.21,553.58 L463.02,553.59 C459.02,553.59,456.98,550.62,458.42,546.88 C458.71,546.13,459.26,545.24,459.68,544.59 C459.75,544.41,459.77,544.2,459.79,543.99 C459.86,543.45,459.9,542.86,459.95,542.3 C460.07,541.04,459.91,538.59,459.91,536.27 L460.11,440.66 C460.14,439.51,460.22,437.91,460.63,436.54 C461.02,435.24,461.98,433.26,464.16,432.26 "
   stroke="#f4e29d"
   stroke-width="0"
   fill="#f4e29d"
   fill-rule="nonzero"
   id="path620" /><path
   d="M464.16,432.26 L464.31,432.19 L464.46,432.13 L464.6,432.06 L464.75,432.01 L464.9,431.95 L465.06,431.91 L465.21,431.86 L465.36,431.82 L465.52,431.79 L465.68,431.76 L465.83,431.73 L465.99,431.71 L466.15,431.69 L466.31,431.68 L466.47,431.67 L466.63,431.67 L466.8,431.67 L466.96,431.67 L467.12,431.69 L467.28,431.7 L467.44,431.72 L467.61,431.75 L467.77,431.77 L467.93,431.81 L468.09,431.85 L468.25,431.89 L468.42,431.94 L468.58,431.99 L468.74,432.05 L468.89,432.12 L469.05,432.18 L469.21,432.26 C470.93,433.09,472.22,434.48,472.77,435.35 C475.48,439.92,478.19,443.88,480.8,448.06 C483.55,452.45,486.24,457.13,488.85,463.06 C493.41,473.4,496.57,483.8,498.99,493.77 C499.61,496.31,500.18,498.82,500.71,501.3 V485.69 C500.71,484.82,500.69,484.14,500.61,483.66 C500.51,483.04,500.4,482.22,500.17,481.15 C500.11,480.88,499.99,480.55,499.89,480.26 C499.57,479.34,499.38,478.54,499.35,478.29 C498.67,472.86,502.91,470.43,507.25,473.77 C508.36,474.62,509.76,475.54,511.23,476.45 C512.82,477.44,514.48,478.42,515.99,479.3 C518.15,480.58,519.02,483.71,517.82,485.92 C517.58,486.35,517.15,487.11,516.91,487.59 C516.9,487.76,516.94,488.08,516.95,488.43 C516.97,489.22,516.99,490.07,516.99,490.68 V512.85 L519.92,516.67 C520.21,516.26,520.5,515.82,520.8,515.36 C522.02,513.46,523.12,511.58,523.99,509.6 C525.37,506.42,525.61,505.63,526.46,503.02 C526.8,501.97,527.02,501.39,527.28,500.31 C527.5,499.43,527.62,498.36,527.72,498.03 C527.96,497.27,527.26,497.06,526.41,496.21 C523.88,493.65,524.34,490.25,527.47,488.46 L535.48,484.66 C538.59,482.88,541.8,484.88,542.41,487.28 L542.98,488.75 C543.12,489.3,543.29,489.76,543.4,490.32 C544.18,490.3,545.05,490.42,545.99,490.72 C547.14,491.09,548.35,491.26,549.54,491.41 C551.3,491.62,553.03,491.77,554.68,492.07 C558.45,492.74,559.97,495.92,558.13,499.28 C557.91,499.69,557.47,500.54,557.25,501.01 C557.18,501.46,557.16,502.09,557.16,502.87 L557.11,533.84 C557.52,534.34,558.02,534.95,558.65,535.63 C560.28,537.43,561.35,538.6,561.7,538.95 C562.29,539.6,562.93,540.38,563.43,541.02 L563.78,541.47 V502.92 C563.78,502.09,563.77,501.44,563.69,500.95 C563.56,500.2,563.35,499.69,563.21,499.46 C560.75,495.47,562.7,491.95,567.38,491.93 L568.91,491.93 C577,491.93,582.5,493.56,588.11,498.36 C592.15,501.8,595.32,506.64,597.76,511.54 C598.39,506.49,599.64,501.06,601.48,496.7 C604.22,490.23,608.01,484.82,612.91,480.63 C618.01,476.28,623.55,473.63,629.44,473.63 L630.41,473.64 C629.78,471.87,630.22,469.32,631.48,468.11 L640.47,459.49 C645.26,454.9,651.39,459.59,648.22,465.41 C647.95,465.89,647.79,466.7,647.69,467.26 C647.68,467.81,647.66,468.55,647.65,469.44 C647.63,471.23,647.61,473.58,647.6,475.94 C647.57,480.66,647.56,485.45,647.56,486.02 V521.79 L652.32,515.16 V453.75 C652.32,452.88,652.21,452.06,652.13,451.59 C651.94,451.23,651.71,450.89,651.51,450.59 C650.79,449.54,650.72,446.34,651.39,445.25 C651.39,445.25,654.62,439.99,656.66,435.82 C657.54,434.02,659.18,432.65,660.73,432.04 C662.04,431.52,663.32,431.59,664.4,432.04 C666.65,432.87,667.74,434.95,668.1,435.8 C668.74,437.28,669,439.04,669.03,440.64 L668.6,542.61 C668.6,543.35,668.65,544.07,668.76,544.75 C668.83,545.15,668.98,545.59,669.25,546.06 C671.41,550.02,669.43,553.36,664.92,553.36 H655.93 C651.1,553.36,652.08,547.72,651.3,548.86 C650.77,553.2,649.17,553.36,645.21,553.36 H634.89 C634.12,553.36,633.43,553.27,632.82,553.1 C632.59,553.14,632.35,553.16,632.11,553.16 H601.01 L600.35,553.15 C597.55,553.12,595.73,551.87,595.23,550.04 C592.18,552.3,588.52,553.41,584.46,553.41 H567.4 C567.26,553.41,567.12,553.41,566.99,553.41 C566.33,553.6,565.59,553.71,564.76,553.71 H553.84 C553.84,553.71,552.61,553.7,552.25,553.46 C551.97,553.27,551.8,553,551.64,552.7 C551.13,551.74,550.32,550.28,549.02,549.15 H548.88 C547.57,550.28,546.76,551.74,546.25,552.7 C546.09,553,545.93,553.27,545.64,553.46 C545.27,553.7,544.05,553.71,544.05,553.71 H533.11 C531.58,553.71,530.32,553.34,529.38,552.74 C528.22,553.02,527.03,553.12,525.89,553.12 H504.32 C501.1,553.12,499.15,551.49,499.02,549.21 C495.07,552.86,490.48,553.58,486.21,553.58 L463.02,553.59 C459.02,553.59,456.98,550.62,458.42,546.88 C458.71,546.13,459.26,545.24,459.68,544.59 C459.75,544.41,459.77,544.2,459.79,543.99 C459.86,543.45,459.9,542.86,459.95,542.3 C460.07,541.04,459.91,538.59,459.91,536.27 L460.11,440.66 C460.14,439.51,460.22,437.91,460.63,436.54 C461.02,435.24,461.98,433.26,464.16,432.26 Z "
   stroke-width="2"
   id="path621" /><path
   d="M608.79,524.1 L608.84,516.52 C608.93,514.19,609.28,509.21,609.99,506.45 C610.84,503.14,611.98,500.15,613.4,497.45 C614.38,495.59,615.69,493.93,616.86,492.36 C618.99,489.5,621.15,487.21,623.63,486.16 C625.36,485.43,627.2,485.32,628.8,485.89 C629.05,486.01,629.77,486.39,630.95,487.06 V478.57 L629.43,478.56 C625.09,478.56,620.65,480.5,616.11,484.38 C611.87,488.01,608.5,492.75,606.02,498.62 C603.55,504.46,602.21,512.79,602.21,518.72 V539.24 L602.32,542.16 C602.32,543.15,602.16,544.15,601.84,545.18 C601.54,546.2,601.06,547.24,600.4,548.22 L601.03,548.23 H632.11 V539.73 C630.99,540.44,630.1,540.91,629.44,541.14 C628.57,541.44,627.46,541.58,626.09,541.59 H608.81 V537.38 H626.16 V531.53 L608.74,531.49 Z "
   stroke-width="0"
   fill="black"
   id="path622" /><path
   d="M608.79,524.1 L608.84,516.52 C608.93,514.19,609.28,509.21,609.99,506.45 C610.84,503.14,611.98,500.15,613.4,497.45 C614.38,495.59,615.69,493.93,616.86,492.36 C618.99,489.5,621.15,487.21,623.63,486.16 C625.36,485.43,627.2,485.32,628.8,485.89 C629.05,486.01,629.77,486.39,630.95,487.06 V478.57 L629.43,478.56 C625.09,478.56,620.65,480.5,616.11,484.38 C611.87,488.01,608.5,492.75,606.02,498.62 C603.55,504.46,602.21,512.79,602.21,518.72 V523.6 V539.24 L602.32,542.16 C602.32,543.15,602.16,544.15,601.84,545.18 C601.54,546.2,601.06,547.24,600.4,548.22 L601.03,548.23 H632.11 V539.73 C630.99,540.44,630.1,540.91,629.44,541.14 C628.57,541.44,627.46,541.58,626.09,541.59 H608.81 V537.38 H626.16 V531.53 L608.74,531.49 Z "
   stroke-width="1.9566"
   stroke-linecap="round"
   stroke-linejoin="round"
   id="path623" /><path
   d="M567.4,496.86 L568.93,496.86 C576.11,496.86,580.37,498.23,584.91,502.11 C589.15,505.73,592.51,511.47,595,517.33 C596.57,521.06,597.74,523.74,598.21,528.1 C598.38,529.68,598.44,530.62,598.37,532.16 C598.15,537.53,597.07,540.99,594.52,543.98 C591.98,546.98,588.63,548.48,584.46,548.48 H567.4 C567.99,547.6,568.38,546.6,568.55,545.47 C568.66,544.81,568.72,543.88,568.72,542.66 V502.91 C568.72,501.75,568.66,500.82,568.55,500.14 C568.35,498.95,567.98,497.79,567.4,496.86 Z "
   stroke-width="0"
   stroke-linecap="round"
   stroke-linejoin="round"
   fill="black"
   id="path624" /><path
   d="M567.4,496.86 L568.93,496.86 C576.11,496.86,580.37,498.23,584.91,502.11 C589.15,505.73,592.51,511.47,595,517.33 C596.57,521.06,597.74,523.74,598.21,528.1 C598.38,529.68,598.44,530.62,598.37,532.16 C598.15,537.53,597.07,540.99,594.52,543.98 C591.98,546.98,588.63,548.48,584.46,548.48 H567.4 C567.99,547.6,568.38,546.6,568.55,545.47 C568.66,544.81,568.72,543.88,568.72,542.66 V502.91 C568.72,501.75,568.66,500.82,568.55,500.14 C568.35,498.95,567.98,497.79,567.4,496.86 Z "
   stroke-width="1.9566"
   stroke-linecap="round"
   stroke-linejoin="round"
   id="path625" /><path
   d="M552.18,535.53 L552.21,535.57 L552.24,535.61 L552.28,535.65 L552.32,535.7 L552.36,535.76 L552.41,535.82 L552.46,535.89 L552.52,535.96 L552.57,536.03 L552.63,536.11 L552.7,536.2 L552.77,536.28 L552.84,536.38 L552.92,536.48 L552.99,536.58 L553.08,536.68 L553.17,536.79 L553.26,536.91 L553.35,537.03 L553.45,537.15 L553.56,537.28 L553.66,537.41 L553.78,537.55 L553.89,537.69 L554.01,537.83 L554.14,537.98 L554.27,538.13 L554.4,538.28 L554.54,538.44 L554.69,538.61 L554.84,538.77 L554.99,538.94 C556.71,540.84,557.75,541.97,558.13,542.35 C559.16,543.5,560.06,544.79,560.81,545.54 C562.2,546.95,563.51,548.03,564.74,548.78 H552.64 C552.68,548.58,552.7,548.29,552.7,547.92 C552.7,546.77,552.28,545.74,551.45,544.81 L549,541.69 L546.41,544.81 C545.57,545.74,545.15,546.77,545.15,547.92 C545.15,548.29,545.18,548.58,545.22,548.78 H533.11 C534.35,548.03,535.66,546.95,537.05,545.54 C537.8,544.79,538.69,543.5,539.73,542.35 C540.1,541.97,541.15,540.84,542.87,538.94 C544.52,537.11,545.5,536.02,545.81,535.67 V501.24 C545.81,500.02,545.76,499.09,545.65,498.43 C545.47,497.3,545.09,496.3,544.49,495.42 C545.94,495.88,547.44,496.12,548.94,496.3 C550.6,496.51,552.25,496.64,553.8,496.92 C553.27,497.89,552.59,499.05,552.4,500.15 C552.28,500.81,552.23,501.71,552.23,502.86 Z "
   stroke-width="0"
   stroke-linecap="round"
   stroke-linejoin="round"
   fill="black"
   id="path626" /><path
   d="M552.18,535.53 L552.21,535.57 L552.24,535.61 L552.28,535.65 L552.32,535.7 L552.36,535.76 L552.41,535.82 L552.46,535.89 L552.52,535.96 L552.57,536.03 L552.63,536.11 L552.7,536.2 L552.77,536.28 L552.84,536.38 L552.92,536.48 L552.99,536.58 L553.08,536.68 L553.17,536.79 L553.26,536.91 L553.35,537.03 L553.45,537.15 L553.56,537.28 L553.66,537.41 L553.78,537.55 L553.89,537.69 L554.01,537.83 L554.14,537.98 L554.27,538.13 L554.4,538.28 L554.54,538.44 L554.69,538.61 L554.84,538.77 L554.99,538.94 C556.71,540.84,557.75,541.97,558.13,542.35 C559.16,543.5,560.06,544.79,560.81,545.54 C562.2,546.95,563.51,548.03,564.74,548.78 H552.64 C552.68,548.58,552.7,548.29,552.7,547.92 C552.7,546.77,552.28,545.74,551.45,544.81 L549,541.69 L546.41,544.81 C545.57,545.74,545.15,546.77,545.15,547.92 C545.15,548.29,545.18,548.58,545.22,548.78 H533.11 C534.35,548.03,535.66,546.95,537.05,545.54 C537.8,544.79,538.69,543.5,539.73,542.35 C540.1,541.97,541.15,540.84,542.87,538.94 C544.52,537.11,545.5,536.02,545.81,535.67 V501.24 C545.81,500.02,545.76,499.09,545.65,498.43 C545.47,497.3,545.09,496.3,544.49,495.42 C545.94,495.88,547.44,496.12,548.94,496.3 C550.6,496.51,552.25,496.64,553.8,496.92 C553.27,497.89,552.59,499.05,552.4,500.15 C552.28,500.81,552.23,501.71,552.23,502.86 Z "
   stroke-width="1.9566"
   stroke-linecap="round"
   stroke-linejoin="round"
   id="path627" /><path
   d="M661.09,437.99 L660.89,438.4 L660.68,438.82 L660.24,439.66 L659.79,440.51 L659.33,441.36 L658.87,442.2 L658.42,443.02 L658.19,443.41 L657.97,443.8 L657.75,444.18 L657.54,444.54 L657.34,444.9 L657.14,445.24 L656.95,445.56 L656.77,445.87 L656.6,446.16 L656.44,446.43 L656.29,446.68 L656.15,446.91 L656.03,447.12 L655.92,447.3 L655.82,447.46 L655.74,447.59 L655.68,447.7 L655.65,447.74 L655.63,447.77 L655.61,447.8 L655.6,447.82 L655.59,447.83 L655.59,447.84 C656.19,448.71,656.9,449.81,657.08,450.94 C657.19,451.6,657.24,452.54,657.25,453.75 V516.75 L642.62,537.12 V486.02 C642.62,484.88,642.68,466.82,642.79,466.16 C642.99,465.05,643.35,464.02,643.88,463.05 L634.89,471.67 C635.48,472.55,635.87,473.55,636.04,474.68 C636.15,475.34,636.21,484.43,636.21,485.65 V542.61 C636.21,543.8,636.15,544.73,636.04,545.39 C635.84,546.56,635.46,547.57,634.89,548.43 H645.21 C644.98,547.84,644.88,547.22,644.88,546.58 C644.88,545.94,644.97,545.35,645.14,544.83 C645.32,544.32,645.56,543.85,645.87,543.41 C647.23,541.42,648.67,539.38,650.17,537.28 C650.63,536.65,652.02,534.72,654.34,531.5 C655.3,530.15,656.27,528.81,657.25,527.47 V542.61 C657.25,543.8,657.19,544.73,657.08,545.39 C656.88,546.56,656.5,547.57,655.92,548.43 H664.92 C664.41,547.51,664.07,546.56,663.9,545.59 C663.74,544.64,663.66,543.65,663.66,542.61 L664.1,440.68 C664.05,438.27,663.32,436.62,662.37,436.62 C661.86,436.62,661.41,437.33,661.09,437.99 Z "
   stroke-width="0"
   stroke-linecap="round"
   stroke-linejoin="round"
   fill="black"
   fill-rule="nonzero"
   id="path628" /><path
   d="M661.09,437.99 L660.89,438.4 L660.68,438.82 L660.24,439.66 L659.79,440.51 L659.33,441.36 L658.87,442.2 L658.42,443.02 L658.19,443.41 L657.97,443.8 L657.75,444.18 L657.54,444.54 L657.34,444.9 L657.14,445.24 L656.95,445.56 L656.77,445.87 L656.6,446.16 L656.44,446.43 L656.29,446.68 L656.15,446.91 L656.03,447.12 L655.92,447.3 L655.82,447.46 L655.74,447.59 L655.68,447.7 L655.65,447.74 L655.63,447.77 L655.61,447.8 L655.6,447.82 L655.59,447.83 L655.59,447.84 C656.19,448.71,656.9,449.81,657.08,450.94 C657.19,451.6,657.24,452.54,657.25,453.75 V516.75 L642.62,537.12 V486.02 C642.62,484.88,642.68,466.82,642.79,466.16 C642.99,465.05,643.35,464.02,643.88,463.05 L634.89,471.67 C635.48,472.55,635.87,473.55,636.04,474.68 C636.15,475.34,636.21,484.43,636.21,485.65 V542.61 C636.21,543.8,636.15,544.73,636.04,545.39 C635.84,546.56,635.46,547.57,634.89,548.43 H645.21 C644.98,547.84,644.88,547.22,644.88,546.58 C644.88,545.94,644.97,545.35,645.14,544.83 C645.32,544.32,645.56,543.85,645.87,543.41 C647.23,541.42,648.67,539.38,650.17,537.28 C650.63,536.65,652.02,534.72,654.34,531.5 C655.3,530.15,656.27,528.81,657.25,527.47 V542.61 C657.25,543.8,657.19,544.73,657.08,545.39 C656.88,546.56,656.5,547.57,655.92,548.43 H664.92 C664.41,547.51,664.07,546.56,663.9,545.59 C663.74,544.64,663.66,543.65,663.66,542.61 L664.1,440.68 C664.05,438.27,663.32,436.62,662.37,436.62 C661.86,436.62,661.41,437.33,661.09,437.99 Z "
   stroke-width="1.9566"
   stroke-linecap="round"
   stroke-linejoin="round"
   id="path629" /><path
   d="M465.03,440.74 L464.84,536.28 C464.84,538.77,464.98,541.4,464.86,542.76 C464.75,543.99,464.68,545.29,464.31,546.3 C463.98,547.2,463.35,547.81,463.02,548.66 L486.21,548.65 C490.38,548.65,493.93,547.89,496.9,544.28 C499.77,540.97,500.69,537.53,500.91,532.16 C500.98,530.62,500.92,529.68,500.75,528.1 C500.62,526.88,500.27,524.54,499.84,522.28 C496.59,505.54,493.21,485.17,484.34,465.05 C479.33,453.68,474.04,447.13,468.56,437.92 C468.04,437.09,467,436.5,466.45,436.66 C465.35,436.96,465.11,438.44,465.04,440.74 "
   stroke-width="0"
   stroke-linecap="round"
   stroke-linejoin="round"
   fill="black"
   fill-rule="nonzero"
   id="path630" /><path
   d="M465.03,440.74 L464.84,536.28 C464.84,538.77,464.98,541.4,464.86,542.76 C464.75,543.99,464.68,545.29,464.31,546.3 C463.98,547.2,463.35,547.81,463.02,548.66 L486.21,548.65 C490.38,548.65,493.93,547.89,496.9,544.28 C499.77,540.97,500.69,537.53,500.91,532.16 C500.98,530.62,500.92,529.68,500.75,528.1 C500.62,526.88,500.27,524.54,499.84,522.28 C496.59,505.54,493.21,485.17,484.34,465.05 C479.33,453.68,474.04,447.13,468.56,437.92 C468.04,437.09,467,436.5,466.45,436.66 C465.35,436.96,465.11,438.44,465.04,440.74 Z "
   stroke-width="1.9566"
   stroke-linecap="round"
   stroke-linejoin="round"
   id="path631" /><path
   d="M575.14,503.91 L575.13,542 H583.46 C587.85,542,588.23,541.26,589.73,539.56 C591.36,537.71,592.04,534.81,592.04,531.34 C591.94,527.4,591.39,525.41,590.57,523.28 C589.44,520.31,588.5,518.1,587.07,515.41 C586.1,513.55,585.09,511.84,583.89,510.29 C581.82,507.63,579.85,505.95,577.77,504.82 C577.03,504.42,575.93,503.98,575.14,503.91 Z "
   stroke="#f4e29d"
   stroke-width="0"
   stroke-linecap="round"
   stroke-linejoin="round"
   fill="#f4e29d"
   id="path632" /><path
   d="M485.89,542.14 L471.28,542.42 V454.94 C473.44,458.59,475.27,461.12,477.5,465.99 C486.23,485.01,488.81,500.1,493.46,523.53 C494.05,526.51,494.43,528.22,494.37,531.25 C494.29,535.16,493.65,538.09,492.21,539.75 C490.71,541.45,490.29,542.14,485.89,542.14 Z "
   stroke="#f4e29d"
   stroke-width="0"
   stroke-linecap="round"
   stroke-linejoin="round"
   fill="#f4e29d"
   id="path633" /><path
   d="M485.89,542.14 L471.28,542.42 V454.94 C473.44,458.59,475.27,461.12,477.5,465.99 C486.23,485.01,488.81,500.1,493.46,523.53 C494.05,526.51,494.43,528.22,494.37,531.25 C494.29,535.16,493.65,538.09,492.21,539.75 C490.71,541.45,490.29,542.14,485.89,542.14 Z "
   stroke-width="0.9086"
   id="path634" /><path
   d="M531.94,494.95 L531.98,495.01 L532.02,495.07 L532.05,495.14 L532.08,495.2 L532.11,495.26 L532.14,495.32 L532.16,495.38 L532.19,495.44 L532.21,495.49 L532.23,495.55 L532.25,495.61 L532.26,495.67 L532.29,495.78 L532.32,495.9 L532.34,496.02 L532.36,496.14 L532.38,496.26 L532.39,496.39 L532.4,496.52 L532.42,496.65 L532.43,496.79 L532.44,496.86 L532.45,496.94 C532.56,497.99,532.35,498.59,532.22,499.64 C531.98,501.43,531.25,504.16,531.25,504.16 C530.68,506.6,529.85,508.48,528.51,511.57 C527.54,513.79,526.32,515.89,524.95,518.02 C523.22,520.74,521.71,522.5,519.8,524.62 L512.06,514.52 V490.68 C512.06,489.53,511.94,487.4,512.05,486.74 C512.25,485.64,512.96,484.52,513.49,483.55 C510.41,481.74,506.68,479.55,504.24,477.68 C504.27,477.93,504.8,479.24,504.99,480.12 C505.25,481.3,505.37,482.19,505.48,482.88 C505.59,483.54,505.64,484.48,505.64,485.69 V542.38 C505.64,543.57,505.59,544.49,505.48,545.15 C505.28,546.32,504.89,547.34,504.32,548.2 H525.89 C527.7,548.2,529.09,547.84,530.09,547.14 C531.21,546.34,531.77,545.15,531.77,543.57 C531.77,542.57,531.54,541.56,531.08,540.52 C530.7,539.68,530.07,538.65,529.19,537.41 C528.42,536.29,527.24,534.65,525.65,532.48 C524.79,531.32,524.72,531.25,523.66,529.84 C524.57,528.82,525.59,527.82,526.5,526.69 C531.22,520.8,534.64,514.52,536.76,507.86 C539.03,500.73,539.68,496.48,538.55,491.37 L537.86,488.98 L529.91,492.74 C530.88,493.71,531.02,493.84,531.62,494.52 C531.67,494.57,531.83,494.78,531.94,494.95 "
   stroke-width="0"
   fill="black"
   id="path635" /><path
   d="M531.94,494.95 L531.98,495.01 L532.02,495.07 L532.05,495.14 L532.08,495.2 L532.11,495.26 L532.14,495.32 L532.16,495.38 L532.19,495.44 L532.21,495.49 L532.23,495.55 L532.25,495.61 L532.26,495.67 L532.29,495.78 L532.32,495.9 L532.34,496.02 L532.36,496.14 L532.38,496.26 L532.39,496.39 L532.4,496.52 L532.42,496.65 L532.43,496.79 L532.44,496.86 L532.45,496.94 C532.56,497.99,532.35,498.59,532.22,499.64 C531.98,501.43,531.25,504.16,531.25,504.16 C530.68,506.6,529.85,508.48,528.51,511.57 C527.54,513.79,526.32,515.89,524.95,518.02 C523.22,520.74,521.71,522.5,519.8,524.62 L512.06,514.52 V490.68 C512.06,489.53,511.94,487.4,512.05,486.74 C512.25,485.64,512.96,484.52,513.49,483.55 C510.41,481.74,506.68,479.55,504.24,477.68 C504.27,477.93,504.8,479.24,504.99,480.12 C505.25,481.3,505.37,482.19,505.48,482.88 C505.59,483.54,505.64,484.48,505.64,485.69 V542.38 C505.64,543.57,505.59,544.49,505.48,545.15 C505.28,546.32,504.89,547.34,504.32,548.2 H525.89 C527.7,548.2,529.09,547.84,530.09,547.14 C531.21,546.34,531.77,545.15,531.77,543.57 C531.77,542.57,531.54,541.56,531.08,540.52 C530.7,539.68,530.07,538.65,529.19,537.41 C528.42,536.29,527.24,534.65,525.65,532.48 C524.79,531.32,524.72,531.25,523.66,529.84 C524.57,528.82,525.59,527.82,526.5,526.69 C531.22,520.8,534.64,514.52,536.76,507.86 C539.03,500.73,539.68,496.48,538.55,491.37 L537.86,488.98 L529.91,492.74 C530.88,493.71,531.02,493.84,531.62,494.52 C531.67,494.57,531.83,494.78,531.94,494.95 Z "
   stroke-width="1.9566"
   stroke-linecap="round"
   stroke-linejoin="round"
   id="path636" /><path
   d="M631.28,492.25 V534.72 L631.09,534.78 V531.53 C631.09,528.92,628.78,526.61,626.17,526.6 L613.71,526.57 L613.72,524.14 L613.77,516.63 C613.86,514.26,614.21,509.84,614.77,507.67 C615.52,504.72,616.53,502.07,617.76,499.75 C618.15,499.01,618.61,498.31,619.08,497.64 C619.65,496.84,620.25,496.06,620.82,495.3 C622.86,492.55,624.37,491.2,625.55,490.7 C626.18,490.43,626.67,490.43,626.97,490.49 C627.27,490.65,627.8,490.94,628.55,491.36 C629.51,491.9,630.43,492.19,631.28,492.25 Z "
   stroke="#b25307"
   stroke-width="0"
   stroke-linecap="round"
   stroke-linejoin="round"
   fill="#b25307"
   fill-rule="nonzero"
   id="path637" /><path
   d="M631.28,492.25 V534.72 L631.09,534.78 V531.53 C631.09,528.92,628.78,526.61,626.17,526.6 L613.71,526.57 L613.72,524.14 L613.77,516.63 C613.86,514.26,614.21,509.84,614.77,507.67 C615.52,504.72,616.53,502.07,617.76,499.75 C618.15,499.01,618.61,498.31,619.08,497.64 C619.65,496.84,620.25,496.06,620.82,495.3 C622.86,492.55,624.37,491.2,625.55,490.7 C626.18,490.43,626.67,490.43,626.97,490.49 C627.27,490.65,627.8,490.94,628.55,491.36 C629.51,491.9,630.43,492.19,631.28,492.25 Z "
   stroke-width="2"
   id="path638" /><path
   d="M540.88,511.08 V533.78 L539.22,535.63 C537.58,537.43,536.51,538.6,536.15,538.95 L535.89,539.25 C535.79,539,535.69,538.75,535.58,538.51 C535.01,537.24,534.17,535.9,533.21,534.55 C532.48,533.5,531.43,532.03,530.05,530.14 L530.35,529.77 C535.01,523.95,538.54,517.72,540.88,511.08 Z "
   stroke="#b25307"
   stroke-width="0"
   fill="#b25307"
   fill-rule="nonzero"
   id="path639" /><path
   d="M540.88,511.08 V533.78 L539.22,535.63 C537.58,537.43,536.51,538.6,536.15,538.95 L535.89,539.25 C535.79,539,535.69,538.75,535.58,538.51 C535.01,537.24,534.17,535.9,533.21,534.55 C532.48,533.5,531.43,532.03,530.05,530.14 L530.35,529.77 C535.01,523.95,538.54,517.72,540.88,511.08 Z "
   stroke-width="2"
   id="path640" /><path
   d="M579.7,512.72 V512.82 V512.96 V513.12 V513.31 V513.52 V513.76 V514.03 V514.32 V514.63 V514.96 V515.31 V515.68 V516.48 V517.34 V518.26 V519.22 V520.23 V521.27 V522.34 V523.43 V525.62 V526.71 V527.79 V528.85 V529.87 V530.87 V531.81 V532.7 V533.54 V533.93 V534.3 V534.65 V534.99 V535.3 V535.59 V535.86 V536.1 V536.32 V536.51 V536.68 V536.82 V536.93 V537.01 V537.05 V537.07 H583.46 C584.27,537.07,584.9,537.05,585.4,536.98 C585.61,536.76,585.77,536.6,586.03,536.3 C586.47,535.8,587.18,533.36,587.11,531.41 C587,527.91,586.78,527.54,586.16,525.15 C585.48,522.49,584.92,521.02,583.68,518.57 C582.86,516.98,582.37,516.08,581.3,514.64 C580.72,513.85,580.41,513.36,579.7,512.72 Z "
   stroke="#b25307"
   stroke-width="0"
   fill="#b25307"
   id="path641" /><path
   d="M579.7,512.72 V512.82 V512.96 V513.12 V513.31 V513.52 V513.76 V514.03 V514.32 V514.63 V514.96 V515.31 V515.68 V516.48 V517.34 V518.26 V519.22 V520.23 V521.27 V522.34 V523.43 V525.62 V526.71 V527.79 V528.85 V529.87 V530.87 V531.81 V532.7 V533.54 V533.93 V534.3 V534.65 V534.99 V535.3 V535.59 V535.86 V536.1 V536.32 V536.51 V536.68 V536.82 V536.93 V537.01 V537.05 V537.07 H583.46 C584.27,537.07,584.9,537.05,585.4,536.98 C585.61,536.76,585.77,536.6,586.03,536.3 C586.47,535.8,587.18,533.36,587.11,531.41 C587,527.91,586.78,527.54,586.16,525.15 C585.48,522.49,584.92,521.02,583.68,518.57 C582.86,516.98,582.37,516.08,581.3,514.64 C580.72,513.85,580.41,513.36,579.7,512.72 Z "
   stroke-width="2"
   id="path642" /><path
   d="M476.21,475.51 V537.4 L485.85,537.21 C486.67,537.21,487.36,537.19,487.87,537.12 C488.07,536.92,488.26,536.78,488.49,536.52 C488.69,536.29,489.36,534.96,489.44,531.15 C489.47,529.94,489.41,528.98,489.28,528.04 C489.13,526.95,488.9,525.87,488.63,524.5 C486.32,512.88,484.53,503.33,482.23,494.33 C480.61,487.96,478.73,481.88,476.21,475.51 Z "
   stroke="#b25307"
   stroke-width="0"
   fill="#b25307"
   id="path643" /><path
   d="M476.21,475.51 V537.4 L485.85,537.21 C486.67,537.21,487.36,537.19,487.87,537.12 C488.07,536.92,488.26,536.78,488.49,536.52 C488.69,536.29,489.36,534.96,489.44,531.15 C489.47,529.94,489.41,528.98,489.28,528.04 C489.13,526.95,488.9,525.87,488.63,524.5 C486.32,512.88,484.53,503.33,482.23,494.33 C480.61,487.96,478.73,481.88,476.21,475.51 Z "
   stroke-width="2"
   id="path644" /><path
   d="M522.71,540.52 L522.71,540.57 L522.71,540.62 L522.71,540.66 L522.7,540.71 L522.7,540.75 L522.69,540.8 L522.69,540.84 L522.68,540.88 L522.67,540.92 L522.66,540.96 L522.65,541 L522.64,541.04 L522.62,541.07 L522.61,541.11 L522.59,541.14 L522.58,541.17 L522.56,541.21 L522.54,541.24 L522.52,541.27 L522.5,541.29 L522.48,541.32 L522.46,541.35 L522.44,541.37 L522.41,541.4 L522.39,541.42 L522.36,541.44 L522.33,541.46 L522.3,541.48 L522.27,541.5 L522.24,541.52 L522.21,541.53 L522.18,541.55 C521.85,541.7,521.19,541.77,520.2,541.78 H512.06 V524.78 C512.15,524.91,513,526.03,514.6,528.15 C515.75,529.67,516.91,531.2,518.08,532.75 C519.82,535.09,520.95,536.59,521.45,537.28 C521.8,537.78,522.1,538.32,522.35,538.9 C522.59,539.47,522.71,540.01,522.71,540.52 Z "
   stroke="#f4e29d"
   stroke-width="0"
   fill="#f4e29d"
   id="path645" /><path
   d="M589.3,332.39 L591.52,333.28 L593.69,334.25 L595.83,335.28 L597.92,336.39 L599.98,337.56 L601.99,338.8 L603.95,340.11 L605.86,341.48 L607.73,342.91 L609.55,344.4 L611.31,345.95 L613.02,347.56 L614.68,349.23 L616.28,350.95 L617.82,352.72 L619.3,354.55 L620.72,356.42 L622.08,358.34 L623.37,360.32 L624.6,362.33 L625.76,364.39 L626.86,366.5 L627.88,368.64 L628.83,370.82 L629.71,373.04 L630.51,375.3 L631.23,377.59 L631.88,379.92 L632.45,382.28 L632.94,384.67 L633.34,387.08 L633.66,389.53 L645.79,389.48 C637.78,362.23,616.43,340.69,589.3,332.39 "
   stroke="#f4e29d"
   stroke-width="0"
   fill="#f4e29d"
   fill-rule="nonzero"
   id="path646" /><path
   d="M589.3,332.39 L591.52,333.28 L593.69,334.25 L595.83,335.28 L597.92,336.39 L599.98,337.56 L601.99,338.8 L603.95,340.11 L605.86,341.48 L607.73,342.91 L609.55,344.4 L611.31,345.95 L613.02,347.56 L614.68,349.23 L616.28,350.95 L617.82,352.72 L619.3,354.55 L620.72,356.42 L622.08,358.34 L623.37,360.32 L624.6,362.33 L625.76,364.39 L626.86,366.5 L627.88,368.64 L628.83,370.82 L629.71,373.04 L630.51,375.3 L631.23,377.59 L631.88,379.92 L632.45,382.28 L632.94,384.67 L633.34,387.08 L633.66,389.53 L645.79,389.48 C637.78,362.23,616.43,340.69,589.3,332.39 Z "
   stroke-width="2.7258"
   stroke-linecap="round"
   stroke-linejoin="round"
   id="path647" /><path
   d="M540.12,332.24 L537.56,333.05 L535.03,333.94 L532.54,334.9 L530.09,335.93 L527.68,337.04 L525.31,338.23 L522.98,339.48 L520.69,340.8 L518.45,342.19 L516.26,343.64 L514.11,345.17 L512.01,346.75 L509.97,348.39 L507.98,350.1 L506.04,351.87 L504.15,353.69 L502.32,355.57 L500.56,357.5 L498.85,359.49 L497.2,361.53 L495.61,363.62 L494.09,365.76 L492.64,367.95 L491.25,370.18 L489.93,372.46 L488.68,374.79 L487.5,377.15 L486.4,379.56 L485.37,382 L484.41,384.48 L483.53,387 L482.73,389.55 H495.36 C498.39,363.25,516.11,341.27,540.12,332.24 Z "
   stroke="#f4e29d"
   stroke-width="0"
   stroke-linecap="round"
   stroke-linejoin="round"
   fill="#f4e29d"
   fill-rule="nonzero"
   id="path648" /><path
   d="M540.12,332.24 L537.56,333.05 L535.03,333.94 L532.54,334.9 L530.09,335.93 L527.68,337.04 L525.31,338.23 L522.98,339.48 L520.69,340.8 L518.45,342.19 L516.26,343.64 L514.11,345.17 L512.01,346.75 L509.97,348.39 L507.98,350.1 L506.04,351.87 L504.15,353.69 L502.32,355.57 L500.56,357.5 L498.85,359.49 L497.2,361.53 L495.61,363.62 L494.09,365.76 L492.64,367.95 L491.25,370.18 L489.93,372.46 L488.68,374.79 L487.5,377.15 L486.4,379.56 L485.37,382 L484.41,384.48 L483.53,387 L482.73,389.55 H495.36 C498.39,363.25,516.11,341.27,540.12,332.24 Z "
   stroke-width="2.7258"
   stroke-linecap="round"
   stroke-linejoin="round"
   id="path649" /><path
   d="M499.23,412.79 L495.81,413.33 C495.79,412.85,495.79,412.47,495.7,411.89 C495.49,410.58,494.56,408.18,487.63,409.27 C480.7,410.37,480.56,412.95,480.77,414.26 C480.86,414.83,480.98,415.2,481.11,415.66 L477.68,416.2 C477.68,416.2,477.35,415.36,477.18,414.28 C476.66,410.98,476.76,405.82,486.83,404.23 C496.9,402.63,498.59,407.5,499.12,410.8 C499.29,411.88,499.23,412.79,499.23,412.79 Z "
   stroke="#f4e29d"
   stroke-width="0"
   stroke-linecap="round"
   stroke-linejoin="round"
   fill="#f4e29d"
   fill-rule="nonzero"
   id="path650" /><path
   d="M499.23,412.79 L495.81,413.33 C495.79,412.85,495.79,412.47,495.7,411.89 C495.49,410.58,494.56,408.18,487.63,409.27 C480.7,410.37,480.56,412.95,480.77,414.26 C480.86,414.83,480.98,415.2,481.11,415.66 L477.68,416.2 C477.68,416.2,477.35,415.36,477.18,414.28 C476.66,410.98,476.76,405.82,486.83,404.23 C496.9,402.63,498.59,407.5,499.12,410.8 C499.29,411.88,499.23,412.79,499.23,412.79 Z "
   stroke-width="2"
   id="path651" /><path
   d="M493.43,429.77 L493.03,429.9 L492.65,430.03 L492.27,430.15 L491.9,430.26 L491.53,430.36 L491.18,430.45 L490.83,430.54 L490.49,430.62 L490.16,430.7 L489.83,430.77 L489.2,430.88 L488.6,430.97 L488.02,431.03 L487.47,431.06 L486.94,431.07 L486.45,431.06 L485.97,431.03 L485.52,430.97 L485.09,430.89 L484.69,430.79 L484.3,430.67 L483.94,430.53 L483.6,430.37 L483.28,430.19 L482.97,430 L482.69,429.79 L482.42,429.57 L482.17,429.33 L481.94,429.07 L481.72,428.8 L481.52,428.52 L481.34,428.23 L481.16,427.93 L481,427.61 L480.86,427.29 L480.72,426.96 L480.6,426.62 C479.33,422.95,480.28,419.16,488.77,416.23 C497.25,413.31,500.33,415.71,501.6,419.39 C502.86,423.06,501.91,426.85,493.43,429.77 Z "
   stroke="#f4e29d"
   stroke-width="0"
   fill="#f4e29d"
   fill-rule="nonzero"
   id="path652" /><path
   d="M491.76,424.94 L492.03,424.85 L492.29,424.76 L492.54,424.66 L492.78,424.58 L493.02,424.49 L493.25,424.4 L493.48,424.31 L493.7,424.23 L493.91,424.14 L494.12,424.06 L494.32,423.97 L494.52,423.89 L494.7,423.81 L494.89,423.73 L495.24,423.57 L495.57,423.41 L495.87,423.25 L496.16,423.1 L496.42,422.95 L496.66,422.81 L496.89,422.67 L497.09,422.53 L497.28,422.39 L497.45,422.25 L497.6,422.12 L497.74,421.99 L497.86,421.87 L497.96,421.74 L498.05,421.62 L498.12,421.5 L498.18,421.39 L498.23,421.27 L498.27,421.16 L498.29,421.05 L498.3,420.95 L498.3,420.84 L498.29,420.74 L498.27,420.64 L498.24,420.54 C497.89,419.51,496.15,419.1,490.43,421.07 C484.71,423.04,483.6,424.43,483.95,425.46 C484.31,426.49,486.04,426.91,491.76,424.94 Z "
   stroke="#f4e29d"
   stroke-width="0"
   fill="#f4e29d"
   fill-rule="nonzero"
   id="path653" /><path
   d="M493.43,429.77 L493.03,429.9 L492.65,430.03 L492.27,430.15 L491.9,430.26 L491.53,430.36 L491.18,430.45 L490.83,430.54 L490.49,430.62 L490.16,430.7 L489.83,430.77 L489.2,430.88 L488.6,430.97 L488.02,431.03 L487.47,431.06 L486.94,431.07 L486.45,431.06 L485.97,431.03 L485.52,430.97 L485.09,430.89 L484.69,430.79 L484.3,430.67 L483.94,430.53 L483.6,430.37 L483.28,430.19 L482.97,430 L482.69,429.79 L482.42,429.57 L482.17,429.33 L481.94,429.07 L481.72,428.8 L481.52,428.52 L481.34,428.23 L481.16,427.93 L481,427.61 L480.86,427.29 L480.72,426.96 L480.6,426.62 C479.33,422.95,480.28,419.16,488.77,416.23 C497.25,413.31,500.33,415.71,501.6,419.39 C502.86,423.06,501.91,426.85,493.43,429.77 Z "
   stroke-width="2"
   id="path654" /><path
   d="M491.76,424.94 L492.03,424.85 L492.29,424.76 L492.54,424.66 L492.78,424.58 L493.02,424.49 L493.25,424.4 L493.48,424.31 L493.7,424.23 L493.91,424.14 L494.12,424.06 L494.32,423.97 L494.52,423.89 L494.7,423.81 L494.89,423.73 L495.24,423.57 L495.57,423.41 L495.87,423.25 L496.16,423.1 L496.42,422.95 L496.66,422.81 L496.89,422.67 L497.09,422.53 L497.28,422.39 L497.45,422.25 L497.6,422.12 L497.74,421.99 L497.86,421.87 L497.96,421.74 L498.05,421.62 L498.12,421.5 L498.18,421.39 L498.23,421.27 L498.27,421.16 L498.29,421.05 L498.3,420.95 L498.3,420.84 L498.29,420.74 L498.27,420.64 L498.24,420.54 C497.89,419.51,496.15,419.1,490.43,421.07 C484.71,423.04,483.6,424.43,483.95,425.46 C484.31,426.49,486.04,426.91,491.76,424.94 Z "
   stroke-width="2"
   id="path655" /><polygon
   points="512.98,440.65 494.59,452.59 493.29,450.59 499.7,439.76 487.2,441.21 485.9,439.21 504.29,427.27 506.95,431.36 499.37,436.28 504.07,435.7 505.19,437.42 502.75,441.48 510.32,436.56 "
   stroke="#f4e29d"
   stroke-width="0"
   fill="#f4e29d"
   fill-rule="nonzero"
   id="polygon656" /><polygon
   points="512.98,440.65 494.59,452.59 493.29,450.59 499.7,439.76 487.2,441.21 485.9,439.21 504.29,427.27 506.95,431.36 499.37,436.28 504.07,435.7 505.19,437.42 502.75,441.48 510.32,436.56 "
   stroke-width="2"
   id="polygon657" /><polygon
   points="526.47,452.87 511.8,469.16 510.02,467.57 513.41,455.45 501.71,460.09 499.94,458.49 514.62,442.2 518.24,445.46 512.2,452.17 516.59,450.39 518.11,451.76 516.8,456.32 522.85,449.61 "
   stroke="#f4e29d"
   stroke-width="0"
   fill="#f4e29d"
   fill-rule="nonzero"
   id="polygon658" /><polygon
   points="526.47,452.87 511.8,469.16 510.02,467.57 513.41,455.45 501.71,460.09 499.94,458.49 514.62,442.2 518.24,445.46 512.2,452.17 516.59,450.39 518.11,451.76 516.8,456.32 522.85,449.61 "
   stroke-width="2"
   id="polygon659" /><path
   d="M537.72,465.36 L530.86,479.43 L526.26,477.18 L533.41,462.53 C533.98,461.36,533.71,460.21,532.91,459.82 C532.11,459.43,531.07,459.94,530.5,461.11 L523.35,475.77 L518.76,473.52 L525.62,459.46 C527.5,455.61,531.43,455.15,534.47,456.63 C537.5,458.11,539.6,461.51,537.72,465.36 Z "
   stroke="#f4e29d"
   stroke-width="0"
   fill="#f4e29d"
   fill-rule="nonzero"
   id="path660" /><path
   d="M537.72,465.36 L530.86,479.43 L526.26,477.18 L533.41,462.53 C533.98,461.36,533.71,460.21,532.91,459.82 C532.11,459.43,531.07,459.94,530.5,461.11 L523.35,475.77 L518.76,473.52 L525.62,459.46 C527.5,455.61,531.43,455.15,534.47,456.63 C537.5,458.11,539.6,461.51,537.72,465.36 Z "
   stroke-width="2"
   id="path661" /><polygon
   points="555.25,463.75 549.94,485.03 545.22,483.85 547.8,473.49 538.8,482.25 536.48,481.67 541.78,460.4 546.52,461.57 543.93,471.94 552.93,463.18 "
   stroke="#f4e29d"
   stroke-width="0"
   fill="#f4e29d"
   fill-rule="nonzero"
   id="polygon662" /><polygon
   points="555.25,463.75 549.94,485.03 545.22,483.85 547.8,473.49 538.8,482.25 536.48,481.67 541.78,460.4 546.52,461.57 543.93,471.94 552.93,463.18 "
   stroke-width="2"
   id="polygon663" /><polygon
   points="562.53,463.97 561,485.84 555.9,485.49 557.43,463.61 "
   stroke="#f4e29d"
   stroke-width="0"
   fill="#f4e29d"
   fill-rule="nonzero"
   id="polygon664" /><polygon
   points="562.53,463.97 561,485.84 555.9,485.49 557.43,463.61 "
   stroke-width="2"
   id="polygon665" /><polygon
   points="577.71,481.36 578.02,484.89 565.08,486.03 564.77,482.49 568.68,482.15 567.07,463.84 572.16,463.39 573.77,481.7 "
   stroke="#f4e29d"
   stroke-width="0"
   fill="#f4e29d"
   fill-rule="nonzero"
   id="polygon666" /><polygon
   points="577.71,481.36 578.02,484.89 565.08,486.03 564.77,482.49 568.68,482.15 567.07,463.84 572.16,463.39 573.77,481.7 "
   stroke-width="2"
   id="polygon667" /><polygon
   points="594.43,480.95 589.65,482.23 585.08,475.05 584.72,483.55 579.94,484.84 581.31,470.85 579.04,462.38 583.98,461.05 586.25,469.53 "
   stroke="#f4e29d"
   stroke-width="0"
   fill="#f4e29d"
   fill-rule="nonzero"
   id="polygon668" /><polygon
   points="594.43,480.95 589.65,482.23 585.08,475.05 584.72,483.55 579.94,484.84 581.31,470.85 579.04,462.38 583.98,461.05 586.25,469.53 "
   stroke-width="2"
   id="polygon669" /><path
   d="M600.01,453.79 L601.64,456.85 C601.19,457.02,600.83,457.15,600.32,457.42 C599.15,458.04,597.17,459.7,600.47,465.9 C603.76,472.09,606.24,471.39,607.41,470.76 C607.92,470.49,608.23,470.27,608.62,469.99 L610.25,473.05 C610.25,473.05,609.56,473.64,608.6,474.15 C605.65,475.72,600.74,477.3,595.95,468.3 C591.16,459.3,595.22,456.11,598.17,454.54 C599.13,454.03,600.01,453.79,600.01,453.79 Z "
   stroke="#f4e29d"
   stroke-width="0"
   fill="#f4e29d"
   fill-rule="nonzero"
   id="path670" /><path
   d="M600.01,453.79 L601.64,456.85 C601.19,457.02,600.83,457.15,600.32,457.42 C599.15,458.04,597.17,459.7,600.47,465.9 C603.76,472.09,606.24,471.39,607.41,470.76 C607.92,470.49,608.23,470.27,608.62,469.99 L610.25,473.05 C610.25,473.05,609.56,473.64,608.6,474.15 C605.65,475.72,600.74,477.3,595.95,468.3 C591.16,459.3,595.22,456.11,598.17,454.54 C599.13,454.03,600.01,453.79,600.01,453.79 Z "
   stroke-width="2"
   id="path671" /><polygon
   points="609.83,446.5 611.97,449.33 607.53,452.68 609.46,455.24 613.05,452.53 615.19,455.36 611.59,458.07 616.45,464.52 620.89,461.17 623.02,464.01 614.5,470.43 607.51,461.15 606.42,461.97 604.28,459.14 605.38,458.32 601.31,452.92 "
   stroke="#f4e29d"
   stroke-width="0"
   fill="#f4e29d"
   fill-rule="nonzero"
   id="polygon672" /><polygon
   points="609.83,446.5 611.97,449.33 607.53,452.68 609.46,455.24 613.05,452.53 615.19,455.36 611.59,458.07 616.45,464.52 620.89,461.17 623.02,464.01 614.5,470.43 607.51,461.15 606.42,461.97 604.28,459.14 605.38,458.32 601.31,452.92 "
   stroke-width="2"
   id="polygon673" /><polygon
   points="619.67,434.82 636.47,448.91 633.33,452.65 625.15,445.79 629.08,457.71 627.55,459.54 610.75,445.45 613.88,441.71 622.06,448.58 618.13,436.65 "
   stroke="#f4e29d"
   stroke-width="0"
   fill="#f4e29d"
   fill-rule="nonzero"
   id="polygon674" /><polygon
   points="619.67,434.82 636.47,448.91 633.33,452.65 625.15,445.79 629.08,457.71 627.55,459.54 610.75,445.45 613.88,441.71 622.06,448.58 618.13,436.65 "
   stroke-width="2"
   id="polygon675" /><polygon
   points="641.85,432.8 644.96,434.52 638.66,445.88 635.55,444.16 637.45,440.73 621.38,431.82 623.86,427.35 639.93,436.26 "
   stroke="#f4e29d"
   stroke-width="0"
   fill="#f4e29d"
   fill-rule="nonzero"
   id="polygon676" /><polygon
   points="641.85,432.8 644.96,434.52 638.66,445.88 635.55,444.16 637.45,440.73 621.38,431.82 623.86,427.35 639.93,436.26 "
   stroke-width="2"
   id="polygon677" /><polygon
   points="629.2,413.46 632.56,414.62 630.75,419.88 633.78,420.92 635.25,416.67 638.61,417.82 637.15,422.07 644.77,424.7 646.58,419.45 649.94,420.61 646.47,430.69 635.48,426.91 635.03,428.2 631.68,427.04 632.12,425.75 625.73,423.55 "
   stroke="#f4e29d"
   stroke-width="0"
   fill="#f4e29d"
   fill-rule="nonzero"
   id="polygon678" /><polygon
   points="629.2,413.46 632.56,414.62 630.75,419.88 633.78,420.92 635.25,416.67 638.61,417.82 637.15,422.07 644.77,424.7 646.58,419.45 649.94,420.61 646.47,430.69 635.48,426.91 635.03,428.2 631.68,427.04 632.12,425.75 625.73,423.55 "
   stroke-width="2"
   id="polygon679" /><path
   d="M646.28,401.46 L646.7,401.53 L647.11,401.62 L647.5,401.73 L647.87,401.87 L648.22,402.02 L648.56,402.19 L648.88,402.38 L649.18,402.58 L649.47,402.8 L649.74,403.04 L649.99,403.3 L650.23,403.57 L650.45,403.85 L650.65,404.15 L650.84,404.46 L651.02,404.79 L651.17,405.12 L651.32,405.47 L651.45,405.83 L651.56,406.2 L651.66,406.58 L651.74,406.97 L651.81,407.37 L651.86,407.77 L651.9,408.19 L651.92,408.61 L651.94,409.04 L651.93,409.47 L651.92,409.91 L651.89,410.35 L651.84,410.8 L651.78,411.25 L651.23,415.23 L629.51,412.18 L630.23,407.12 L636.05,407.94 C635.68,407.3,634.89,406.39,633.78,405.66 C632.74,404.96,631.66,404.67,630.59,404.52 L631.3,399.46 C632.79,399.66,634.38,400.03,635.9,401.03 C637.24,401.91,638.35,403.16,639,404.05 C639.81,402.99,642.09,400.87,646.28,401.46 Z "
   stroke="#f4e29d"
   stroke-width="0"
   fill="#f4e29d"
   fill-rule="nonzero"
   id="path680" /><path
   d="M645.54,406.52 L645.27,406.48 L645.01,406.46 L644.75,406.45 L644.5,406.46 L644.26,406.47 L644.02,406.49 L643.79,406.52 L643.56,406.56 L643.35,406.6 L643.14,406.66 L642.94,406.72 L642.74,406.79 L642.55,406.86 L642.37,406.94 L642.2,407.02 L642.04,407.1 L641.88,407.19 L641.74,407.29 L641.6,407.38 L641.47,407.48 L641.35,407.58 L641.23,407.68 L641.13,407.78 L641.04,407.87 L640.95,407.97 L640.88,408.07 L640.81,408.16 L640.76,408.25 L640.71,408.34 L640.67,408.43 L640.65,408.51 L640.63,408.58 L648.36,409.67 C648.6,407.95,647.59,406.8,645.54,406.52 Z "
   stroke="#f4e29d"
   stroke-width="0"
   fill="#f4e29d"
   fill-rule="nonzero"
   id="path681" /><path
   d="M646.28,401.46 L646.7,401.53 L647.11,401.62 L647.5,401.73 L647.87,401.87 L648.22,402.02 L648.56,402.19 L648.88,402.38 L649.18,402.58 L649.47,402.8 L649.74,403.04 L649.99,403.3 L650.23,403.57 L650.45,403.85 L650.65,404.15 L650.84,404.46 L651.02,404.79 L651.17,405.12 L651.32,405.47 L651.45,405.83 L651.56,406.2 L651.66,406.58 L651.74,406.97 L651.81,407.37 L651.86,407.77 L651.9,408.19 L651.92,408.61 L651.94,409.04 L651.93,409.47 L651.92,409.91 L651.89,410.35 L651.84,410.8 L651.78,411.25 L651.23,415.23 L629.51,412.18 L630.23,407.12 L636.05,407.94 C635.68,407.3,634.89,406.39,633.78,405.66 C632.74,404.96,631.66,404.67,630.59,404.52 L631.3,399.46 C632.79,399.66,634.38,400.03,635.9,401.03 C637.24,401.91,638.35,403.16,639,404.05 C639.81,402.99,642.09,400.87,646.28,401.46 Z "
   stroke-width="2"
   id="path682" /><path
   d="M645.54,406.52 L645.27,406.48 L645.01,406.46 L644.75,406.45 L644.5,406.46 L644.26,406.47 L644.02,406.49 L643.79,406.52 L643.56,406.56 L643.35,406.6 L643.14,406.66 L642.94,406.72 L642.74,406.79 L642.55,406.86 L642.37,406.94 L642.2,407.02 L642.04,407.1 L641.88,407.19 L641.74,407.29 L641.6,407.38 L641.47,407.48 L641.35,407.58 L641.23,407.68 L641.13,407.78 L641.04,407.87 L640.95,407.97 L640.88,408.07 L640.81,408.16 L640.76,408.25 L640.71,408.34 L640.67,408.43 L640.65,408.51 L640.63,408.58 L648.36,409.67 C648.6,407.95,647.59,406.8,645.54,406.52 Z "
   stroke-width="2"
   id="path683" /><path
   d="M550.16,333.7 L550.16,333.7 L550.16,333.7 L550.16,333.71 L550.17,333.71 L550.17,333.71 L550.18,333.71 L550.19,333.72 L550.2,333.73 L550.22,333.74 L550.24,333.75 L550.26,333.76 L550.29,333.78 L550.32,333.79 L550.35,333.81 L550.38,333.82 L550.42,333.84 L550.46,333.86 L550.5,333.87 L550.54,333.89 L550.58,333.91 L550.63,333.92 L550.68,333.94 L550.72,333.95 L550.77,333.97 L550.82,333.98 L550.88,333.99 L550.93,334 L550.98,334.01 L551.04,334.02 L551.09,334.02 L551.15,334.03 L551.2,334.03 L551.26,334.03 L551.31,334.02 L551.37,334.02 C552.28,333.89,552.32,332.88,552.24,332.45 C551.9,330.54,548.6,328.39,548.07,325.46 L547.93,324.66 L551.69,324.13 L551.84,324.94 L549.31,325.29 L549.4,325.73 C549.81,328.02,553.06,330.17,553.45,332.28 C553.69,333.61,552.95,334.68,551.53,334.88 C550.85,334.97,550.05,334.82,549.48,334.36 Z "
   stroke-width="0"
   fill="black"
   id="path684" /><path
   d="M550.16,333.7 L550.16,333.7 L550.16,333.7 L550.16,333.71 L550.17,333.71 L550.17,333.71 L550.18,333.71 L550.19,333.72 L550.2,333.73 L550.22,333.74 L550.24,333.75 L550.26,333.76 L550.29,333.78 L550.32,333.79 L550.35,333.81 L550.38,333.82 L550.42,333.84 L550.46,333.86 L550.5,333.87 L550.54,333.89 L550.58,333.91 L550.63,333.92 L550.68,333.94 L550.72,333.95 L550.77,333.97 L550.82,333.98 L550.88,333.99 L550.93,334 L550.98,334.01 L551.04,334.02 L551.09,334.02 L551.15,334.03 L551.2,334.03 L551.26,334.03 L551.31,334.02 L551.37,334.02 C552.28,333.89,552.32,332.88,552.24,332.45 C551.9,330.54,548.6,328.39,548.07,325.46 L547.93,324.66 L551.69,324.13 L551.84,324.94 L549.31,325.29 L549.4,325.73 C549.81,328.02,553.06,330.17,553.45,332.28 C553.69,333.61,552.95,334.68,551.53,334.88 C550.85,334.97,550.05,334.82,549.48,334.36 Z "
   stroke-width="0.8511"
   id="path685" /><path
   d="M560.44,333.88 L560.35,333.88 L560.26,333.88 L560.17,333.87 L560.09,333.86 L560,333.84 L559.92,333.82 L559.85,333.79 L559.77,333.76 L559.69,333.72 L559.62,333.68 L559.55,333.63 L559.48,333.58 L559.41,333.53 L559.35,333.47 L559.22,333.34 L559.1,333.2 L558.99,333.05 L558.89,332.89 L558.79,332.72 L558.7,332.53 L558.61,332.34 L558.53,332.15 L558.45,331.94 L558.38,331.74 L558.32,331.53 L558.26,331.31 L558.2,331.1 L558.15,330.88 L558.11,330.67 L558.07,330.46 L558.03,330.25 L557.99,330.05 L557.96,329.85 L557.94,329.66 L557.92,329.48 L557.9,329.31 L557.88,329.14 L557.86,328.99 L557.85,328.85 C557.73,327.42,557.43,323.36,559.59,323.23 C561.75,323.09,562.11,327.15,562.22,328.58 C562.34,330.01,562.4,333.76,560.44,333.88 Z "
   stroke-width="0"
   fill="black"
   id="path686" /><path
   d="M560.36,332.92 L560.39,332.92 L560.42,332.91 L560.45,332.9 L560.48,332.88 L560.5,332.86 L560.53,332.84 L560.56,332.81 L560.58,332.78 L560.6,332.74 L560.63,332.71 L560.65,332.67 L560.67,332.62 L560.71,332.53 L560.75,332.42 L560.79,332.3 L560.82,332.17 L560.85,332.04 L560.88,331.89 L560.9,331.74 L560.93,331.58 L560.95,331.42 L560.97,331.25 L560.98,331.08 L561,330.91 L561.02,330.56 L561.03,330.21 L561.04,330.03 L561.04,329.86 L561.04,329.69 L561.04,329.52 L561.04,329.36 L561.04,329.21 L561.03,329.06 L561.02,328.92 L561.02,328.78 L561.01,328.66 C560.9,327.37,560.35,324.14,559.66,324.18 C558.98,324.23,558.96,327.49,559.07,328.77 C559.17,330.06,559.72,332.96,560.36,332.92 Z "
   stroke-width="0"
   fill="black"
   id="path687" /><path
   d="M560.44,333.88 L560.35,333.88 L560.26,333.88 L560.17,333.87 L560.09,333.86 L560,333.84 L559.92,333.82 L559.85,333.79 L559.77,333.76 L559.69,333.72 L559.62,333.68 L559.55,333.63 L559.48,333.58 L559.41,333.53 L559.35,333.47 L559.22,333.34 L559.1,333.2 L558.99,333.05 L558.89,332.89 L558.79,332.72 L558.7,332.53 L558.61,332.34 L558.53,332.15 L558.45,331.94 L558.38,331.74 L558.32,331.53 L558.26,331.31 L558.2,331.1 L558.15,330.88 L558.11,330.67 L558.07,330.46 L558.03,330.25 L557.99,330.05 L557.96,329.85 L557.94,329.66 L557.92,329.48 L557.9,329.31 L557.88,329.14 L557.86,328.99 L557.85,328.85 C557.73,327.42,557.43,323.36,559.59,323.23 C561.75,323.09,562.11,327.15,562.22,328.58 C562.34,330.01,562.4,333.76,560.44,333.88 Z "
   stroke-width="0.8511"
   id="path688" /><path
   d="M560.36,332.92 L560.39,332.92 L560.42,332.91 L560.45,332.9 L560.48,332.88 L560.5,332.86 L560.53,332.84 L560.56,332.81 L560.58,332.78 L560.6,332.74 L560.63,332.71 L560.65,332.67 L560.67,332.62 L560.71,332.53 L560.75,332.42 L560.79,332.3 L560.82,332.17 L560.85,332.04 L560.88,331.89 L560.9,331.74 L560.93,331.58 L560.95,331.42 L560.97,331.25 L560.98,331.08 L561,330.91 L561.02,330.56 L561.03,330.21 L561.04,330.03 L561.04,329.86 L561.04,329.69 L561.04,329.52 L561.04,329.36 L561.04,329.21 L561.03,329.06 L561.02,328.92 L561.02,328.78 L561.01,328.66 C560.9,327.37,560.35,324.14,559.66,324.18 C558.98,324.23,558.96,327.49,559.07,328.77 C559.17,330.06,559.72,332.96,560.36,332.92 Z "
   stroke-width="0.8511"
   id="path689" /><path
   d="M569.13,333.77 L569.04,333.76 L568.95,333.75 L568.87,333.73 L568.79,333.71 L568.71,333.69 L568.63,333.66 L568.55,333.62 L568.48,333.58 L568.41,333.54 L568.34,333.49 L568.28,333.44 L568.22,333.38 L568.16,333.32 L568.1,333.26 L567.99,333.12 L567.89,332.97 L567.79,332.81 L567.71,332.64 L567.63,332.46 L567.56,332.27 L567.5,332.07 L567.44,331.87 L567.39,331.66 L567.34,331.45 L567.3,331.23 L567.27,331.02 L567.24,330.8 L567.22,330.58 L567.2,330.37 L567.18,330.15 L567.17,329.94 L567.16,329.74 L567.15,329.54 L567.15,329.35 L567.15,329.16 L567.15,328.99 L567.15,328.82 L567.15,328.67 L567.16,328.53 C567.22,327.1,567.4,323.03,569.56,323.09 C571.72,323.16,571.6,327.23,571.54,328.66 C571.48,330.09,571.1,333.82,569.13,333.77 Z "
   stroke-width="0"
   fill="black"
   id="path690" /><path
   d="M569.17,332.81 L569.2,332.81 L569.23,332.8 L569.26,332.79 L569.29,332.78 L569.32,332.76 L569.35,332.74 L569.38,332.72 L569.41,332.69 L569.43,332.66 L569.46,332.62 L569.49,332.58 L569.51,332.54 L569.57,332.45 L569.62,332.34 L569.67,332.23 L569.72,332.11 L569.76,331.97 L569.81,331.83 L569.85,331.69 L569.89,331.53 L569.93,331.37 L569.97,331.21 L570.01,331.04 L570.04,330.87 L570.11,330.52 L570.16,330.17 L570.19,330 L570.21,329.83 L570.23,329.66 L570.25,329.49 L570.27,329.33 L570.28,329.18 L570.3,329.03 L570.31,328.88 L570.31,328.75 L570.32,328.62 C570.37,327.34,570.21,324.07,569.52,324.05 C568.83,324.04,568.43,327.28,568.38,328.57 C568.32,329.86,568.52,332.79,569.17,332.81 Z "
   stroke-width="0"
   fill="black"
   id="path691" /><path
   d="M569.13,333.77 L569.04,333.76 L568.95,333.75 L568.87,333.73 L568.79,333.71 L568.71,333.69 L568.63,333.66 L568.55,333.62 L568.48,333.58 L568.41,333.54 L568.34,333.49 L568.28,333.44 L568.22,333.38 L568.16,333.32 L568.1,333.26 L567.99,333.12 L567.89,332.97 L567.79,332.81 L567.71,332.64 L567.63,332.46 L567.56,332.27 L567.5,332.07 L567.44,331.87 L567.39,331.66 L567.34,331.45 L567.3,331.23 L567.27,331.02 L567.24,330.8 L567.22,330.58 L567.2,330.37 L567.18,330.15 L567.17,329.94 L567.16,329.74 L567.15,329.54 L567.15,329.35 L567.15,329.16 L567.15,328.99 L567.15,328.82 L567.15,328.67 L567.16,328.53 C567.22,327.1,567.4,323.03,569.56,323.09 C571.72,323.16,571.6,327.23,571.54,328.66 C571.48,330.09,571.1,333.82,569.13,333.77 Z "
   stroke-width="0.8511"
   id="path692" /><path
   d="M569.17,332.81 L569.2,332.81 L569.23,332.8 L569.26,332.79 L569.29,332.78 L569.32,332.76 L569.35,332.74 L569.38,332.72 L569.41,332.69 L569.43,332.66 L569.46,332.62 L569.49,332.58 L569.51,332.54 L569.57,332.45 L569.62,332.34 L569.67,332.23 L569.72,332.11 L569.76,331.97 L569.81,331.83 L569.85,331.69 L569.89,331.53 L569.93,331.37 L569.97,331.21 L570.01,331.04 L570.04,330.87 L570.11,330.52 L570.16,330.17 L570.19,330 L570.21,329.83 L570.23,329.66 L570.25,329.49 L570.27,329.33 L570.28,329.18 L570.3,329.03 L570.31,328.88 L570.31,328.75 L570.32,328.62 C570.37,327.34,570.21,324.07,569.52,324.05 C568.83,324.04,568.43,327.28,568.38,328.57 C568.32,329.86,568.52,332.79,569.17,332.81 Z "
   stroke-width="0.8511"
   id="path693" /><path
   d="M575.44,333.27 L578.15,333.6 C578.28,332.79,576.73,329.48,577.65,323.75 L578.81,323.9 C577.9,329.62,579.65,332.82,579.44,334.11 C579.4,334.36,579.27,334.56,578.91,334.52 L575.31,334.08 Z "
   stroke-width="0"
   fill="black"
   id="path694" /><path
   d="M575.44,333.27 L578.15,333.6 C578.28,332.79,576.73,329.48,577.65,323.75 L578.81,323.9 C577.9,329.62,579.65,332.82,579.44,334.11 C579.4,334.36,579.27,334.56,578.91,334.52 L575.31,334.08 Z "
   stroke-width="0.8511"
   id="path695" /><path
   d="M534.33,356.18 L533.59,356.36 L532.86,356.56 L532.14,356.78 L531.42,357.01 L530.71,357.25 L530.01,357.51 L529.32,357.79 L528.63,358.08 L527.95,358.38 L527.28,358.7 L526.61,359.04 L525.96,359.39 L525.31,359.75 L524.66,360.13 L524.03,360.52 L523.4,360.93 C519.78,363.35,516.95,366.21,514.92,369.54 C512.65,373.22,511.52,377.22,511.52,381.55 C511.52,385.23,512.6,388.27,514.79,390.68 C516.99,393.09,519.75,394.3,523.07,394.3 C524.05,394.3,530.59,394.28,531.46,394.23 C534.06,394.08,535.53,394,535.89,394 V387.45 C534.73,388.21,533.68,388.75,532.71,389.05 C531.76,389.35,525.05,389.5,523.82,389.5 C521.67,389.5,519.93,388.74,518.59,387.22 C517.28,385.72,516.62,383.73,516.62,381.24 C516.62,377.72,517.72,374.38,519.92,371.21 C521.82,368.48,524.24,366.21,527.18,364.43 C529.86,362.8,532.25,361.98,534.33,361.98 Z "
   stroke-width="0"
   fill="black"
   id="path696" /><path
   d="M534.33,356.18 L533.59,356.36 L532.86,356.56 L532.14,356.78 L531.42,357.01 L530.71,357.25 L530.01,357.51 L529.32,357.79 L528.63,358.08 L527.95,358.38 L527.28,358.7 L526.61,359.04 L525.96,359.39 L525.31,359.75 L524.66,360.13 L524.03,360.52 L523.4,360.93 C519.78,363.35,516.95,366.21,514.92,369.54 C512.65,373.22,511.52,377.22,511.52,381.55 C511.52,385.23,512.6,388.27,514.79,390.68 C516.99,393.09,519.75,394.3,523.07,394.3 C524.05,394.3,530.59,394.28,531.46,394.23 C534.06,394.08,535.53,394,535.89,394 V387.45 C534.73,388.21,533.68,388.75,532.71,389.05 C531.76,389.35,525.05,389.5,523.82,389.5 C521.67,389.5,519.93,388.74,518.59,387.22 C517.28,385.72,516.62,383.73,516.62,381.24 C516.62,377.72,517.72,374.38,519.92,371.21 C521.82,368.48,524.24,366.21,527.18,364.43 C529.86,362.8,532.25,361.98,534.33,361.98 Z "
   stroke-width="1.1879"
   id="path697" /><path
   d="M584.03,388.1 L583.88,388.19 L583.73,388.28 L583.58,388.37 L583.44,388.45 L583.3,388.53 L583.16,388.6 L583.04,388.67 L582.91,388.74 L582.79,388.8 L582.68,388.85 L582.57,388.9 L582.46,388.95 L582.36,388.99 L582.26,389.03 L582.17,389.07 L582.09,389.1 C581.42,389.33,580.6,389.45,579.63,389.45 H567.67 V382.25 H579.57 V377.39 H567.67 V361.18 C567.67,360.31,567.78,359.55,567.99,358.9 C568.16,358.4,568.5,357.69,569.02,356.77 H561.81 C562.27,357.44,562.55,358.2,562.69,359.05 C562.77,359.55,562.81,360.26,562.82,361.18 V389.9 C562.82,390.8,562.77,391.5,562.69,392 C562.54,392.88,562.25,393.65,561.81,394.3 H584.03 Z "
   stroke-width="0"
   fill="black"
   id="path698" /><path
   d="M584.03,388.1 L583.88,388.19 L583.73,388.28 L583.58,388.37 L583.44,388.45 L583.3,388.53 L583.16,388.6 L583.04,388.67 L582.91,388.74 L582.79,388.8 L582.68,388.85 L582.57,388.9 L582.46,388.95 L582.36,388.99 L582.26,389.03 L582.17,389.07 L582.09,389.1 C581.42,389.33,580.6,389.45,579.63,389.45 H567.67 V382.25 H579.57 V377.39 H567.67 V361.18 C567.67,360.31,567.78,359.55,567.99,358.9 C568.16,358.4,568.5,357.69,569.02,356.77 H561.81 C562.27,357.44,562.55,358.2,562.69,359.05 C562.77,359.55,562.81,360.26,562.82,361.18 V389.9 C562.82,390.8,562.77,391.5,562.69,392 C562.54,392.88,562.25,393.65,561.81,394.3 H584.03 Z "
   stroke-width="1"
   id="path699" /><path
   d="M592.38,381.76 H604.36 V376.9 L593.28,376.87 C593.9,374.52,594.7,372.39,595.72,370.45 C596.43,369.09,597.22,367.88,598.09,366.73 C599.64,364.65,601.22,362.97,603.03,362.2 C604.29,361.67,605.64,361.59,606.8,362.01 C606.98,362.09,607.51,362.38,608.38,362.86 V356.65 L607.27,356.65 C604.09,356.65,600.85,358.07,597.53,360.9 C594.43,363.55,591.97,367.02,590.15,371.31 C588.35,375.58,587.45,379.39,587.45,383.73 V389.87 C587.45,390.59,587.33,391.32,587.1,392.07 C586.88,392.82,586.53,393.58,586.05,394.3 L586.52,394.3 H611.05 V388.1 C610.23,388.62,609.58,388.96,609.09,389.12 C608.46,389.34,607.64,389.45,606.64,389.45 H592.37 L592.38,381.76 "
   stroke-width="0"
   fill="black"
   id="path700" /><path
   d="M592.38,381.76 H604.36 V376.9 L593.28,376.87 C593.9,374.52,594.7,372.39,595.72,370.45 C596.43,369.09,597.22,367.88,598.09,366.73 C599.64,364.65,601.22,362.97,603.03,362.2 C604.29,361.67,605.64,361.59,606.8,362.01 C606.98,362.09,607.51,362.38,608.38,362.86 V356.65 L607.27,356.65 C604.09,356.65,600.85,358.07,597.53,360.9 C594.43,363.55,591.97,367.02,590.15,371.31 C588.35,375.58,587.45,379.39,587.45,383.73 V389.87 C587.45,390.59,587.33,391.32,587.1,392.07 C586.88,392.82,586.53,393.58,586.05,394.3 L586.52,394.3 H611.05 V388.1 C610.23,388.62,609.58,388.96,609.09,389.12 C608.46,389.34,607.64,389.45,606.64,389.45 H592.37 L592.38,381.76 Z "
   stroke-width="1.1879"
   id="path701" /><path
   d="M559.02,356.68 H552.21 C552.66,357.34,552.95,358.1,553.09,358.95 C553.17,359.45,553.21,360.16,553.21,361.08 V370 H542.3 C542.3,369.55,542.3,366.92,542.28,365.93 C542.26,364.95,542.25,364.21,542.25,363.71 C542.25,362.07,542.32,360.68,542.45,359.53 C542.59,358.38,542.85,357.43,543.25,356.68 H536.25 C536.73,357.39,537.09,358.13,537.3,358.88 C537.53,359.63,537.65,360.36,537.65,361.08 V366.73 C537.65,371.07,538.55,375.38,540.35,379.64 C542.17,383.93,544.63,387.4,547.73,390.05 C551.05,392.89,554.3,394.3,557.47,394.3 C557.72,394.3,557.92,394.3,558.09,394.3 C558.27,394.3,558.58,394.27,559.02,394.2 C558.63,393.54,558.38,392.86,558.24,392.15 C558.12,391.47,558.07,390.73,558.07,389.95 V361.08 C558.07,360.21,558.1,359.53,558.19,359.03 C558.34,358.2,558.61,357.41,559.02,356.68 "
   stroke-width="0"
   fill="black"
   id="path702" /><path
   d="M559.02,356.68 H552.21 C552.66,357.34,552.95,358.1,553.09,358.95 C553.17,359.45,553.21,360.16,553.21,361.08 V370 H542.3 C542.3,369.55,542.3,366.92,542.28,365.93 C542.26,364.95,542.25,364.21,542.25,363.71 C542.25,362.07,542.32,360.68,542.45,359.53 C542.59,358.38,542.85,357.43,543.25,356.68 H536.25 C536.73,357.39,537.09,358.13,537.3,358.88 C537.53,359.63,537.65,360.36,537.65,361.08 V366.73 C537.65,371.07,538.55,375.38,540.35,379.64 C542.17,383.93,544.63,387.4,547.73,390.05 C551.05,392.89,554.3,394.3,557.47,394.3 C557.72,394.3,557.92,394.3,558.09,394.3 C558.27,394.3,558.58,394.27,559.02,394.2 C558.63,393.54,558.38,392.86,558.24,392.15 C558.12,391.47,558.07,390.73,558.07,389.95 V361.08 C558.07,360.21,558.1,359.53,558.19,359.03 C558.34,358.2,558.61,357.41,559.02,356.68 Z "
   stroke-width="1"
   id="path703" /><path
   d="M553.21,372.74 V388.75 C551.48,387.82,549.84,386.3,548.28,384.22 C546.95,382.44,545.79,380.4,544.8,378.12 C543.97,376.2,543.39,374.41,543.05,372.74 Z "
   stroke="#f4e29d"
   stroke-width="0"
   fill="#f4e29d"
   id="path704" /><path
   d="M553.21,372.74 V388.75 C551.48,387.82,549.84,386.3,548.28,384.22 C546.95,382.44,545.79,380.4,544.8,378.12 C543.97,376.2,543.39,374.41,543.05,372.74 Z "
   stroke-width="1"
   id="path705" /><polygon
   points="542.5,373.97 554.35,373.97 554.35,369.12 542.44,369.12 "
   stroke-width="0"
   fill="black"
   id="polygon706" /><polygon
   points="542.5,373.97 554.35,373.97 554.35,369.12 542.44,369.12 "
   stroke-width="0.4913"
   id="polygon707" /></g>
</svg>
