<?xml version="1.0" encoding="UTF-8" standalone="no"?>
<!DOCTYPE svg PUBLIC "-//W3C//DTD SVG 20010904//EN"
"http://www.w3.org/TR/2001/REC-SVG-20010904/DTD/svg10.dtd">
<!-- Created with Sodipodi ("http://www.sodipodi.com/") -->
<svg
   xmlns="http://www.w3.org/2000/svg"
   xmlns:xlink="http://www.w3.org/1999/xlink"
   xmlns:ev="http://www.w3.org/2001/xml-events"
   version="1.1"
   baseProfile="full"
   id="body"
   width="8in"
   height="8in"
   viewBox="0 0 1 1"
   preserveAspectRatio="none"
   xmlns:sodipodi="http://sodipodi.sourceforge.net/DTD/sodipodi-0.dtd"
   sodipodi:version="0.34"
   sodipodi:docname="logo-nolines-orig.svg">
  <defs
     id="defs709" />
  <sodipodi:namedview
     id="base" />
  <title
     id="title603">SVG drawing</title>
  <desc
     id="desc604">This was produced by version 4.2 of GNU libplot, a free library for exporting 2-D vector graphics.</desc>
  <g
     id="content"
     transform="matrix(4.069731e-3,0,0,-4.069731e-3,-0.543538,2.302744)"
     xml:space="preserve"
     stroke="black"
     stroke-linecap="butt"
     stroke-linejoin="miter"
     stroke-miterlimit="10.433"
     stroke-dasharray="none"
     stroke-dashoffset="0"
     stroke-opacity="1"
     fill="none"
     fill-rule="even-odd"
     fill-opacity="1"
     font-style="normal"
     font-variant="normal"
     font-weight="normal"
     font-stretch="normal"
     font-size-adjust="none"
     letter-spacing="normal"
     word-spacing="normal"
     text-anchor="start"><path
   d="M341.58,426.41 L341.6,426.14 L341.62,425.84 L341.65,425.52 L341.67,425.17 L341.69,424.81 L341.71,424.42 L341.73,424.02 L341.75,423.61 L341.76,423.18 L341.78,422.74 L341.8,422.29 L341.81,421.83 L341.84,420.9 L341.86,419.95 L341.88,419 L341.9,418.06 L341.92,417.15 L341.92,416.71 L341.93,416.27 L341.94,415.86 L341.94,415.45 L341.94,415.07 L341.95,414.7 L341.95,414.35 L341.95,414.02 L341.95,413.71 L341.95,413.43 C341.95,362.77,300.89,321.7,250.23,321.7 C199.57,321.7,158.5,362.77,158.5,413.43 C158.5,416.16,158.56,423.49,158.79,426.16 C158.69,426.11,158.09,425.84,158.09,425.84 C154.41,424.07,150.23,424.14,146.74,425.88 C142.04,428.13,140.21,432.3,139.55,434.51 C138.85,436.87,138.77,439.43,138.73,440.54 L138.54,536.27 C138.54,538.33,138.71,540.53,138.6,541.66 L138.56,542.18 C138.2,542.82,137.82,543.56,137.52,544.32 C134.29,552.73,139.77,560.71,148.77,560.71 L171.96,560.71 C175.24,560.71,179.26,560.35,183.3,558.58 C185.4,559.75,187.79,560.25,190.07,560.25 H211.64 C212.47,560.25,213.33,560.21,214.2,560.11 C215.7,560.6,217.27,560.84,218.86,560.84 H229.81 C229.81,560.84,230.43,560.83,231.1,560.77 C231.55,560.73,232.03,560.66,232.45,560.57 C232.65,560.53,233.04,560.45,233.55,560.27 C233.89,560.15,234.28,559.99,234.69,559.77 C235.1,559.99,235.5,560.15,235.84,560.27 C236.34,560.45,236.74,560.53,236.93,560.57 C237.35,560.66,237.83,560.73,238.28,560.77 C238.96,560.84,239.57,560.84,239.57,560.84 H250.51 C251.55,560.84,252.57,560.73,253.55,560.54 H270.21 C273.51,560.54,276.72,559.98,279.75,558.79 C281.73,559.82,283.94,560.25,286.04,560.27 L286.73,560.28 H317.88 C318.71,560.42,319.75,560.49,320.64,560.49 H330.95 C332.78,560.49,334.57,560.15,336.21,559.45 C337.91,560.16,339.78,560.49,341.67,560.49 H350.67 C360.43,560.49,365.84,551.62,361.45,543.05 C361.45,542.93,361.46,542.81,361.46,542.63 L361.9,440.57 C361.86,438.45,361.52,435.6,360.39,432.98 C359.84,431.69,357.72,427.24,352.61,425.36 C349.93,424.31,346.84,424.22,343.84,425.42 C342.97,425.77,342.1,426.22,341.26,426.77 L341.57,426.41 "
   stroke="#b25307"
   stroke-width="0"
   fill="#b25307"
   fill-rule="nonzero"
   id="path607" /><path
   d="M341.58,426.41 L341.6,426.14 L341.62,425.84 L341.65,425.52 L341.67,425.17 L341.69,424.81 L341.71,424.42 L341.73,424.02 L341.75,423.61 L341.76,423.18 L341.78,422.74 L341.8,422.29 L341.81,421.83 L341.84,420.9 L341.86,419.95 L341.88,419 L341.9,418.06 L341.92,417.15 L341.92,416.71 L341.93,416.27 L341.94,415.86 L341.94,415.45 L341.94,415.07 L341.95,414.7 L341.95,414.35 L341.95,414.02 L341.95,413.71 L341.95,413.43 C341.95,362.77,300.89,321.7,250.23,321.7 C199.57,321.7,158.5,362.77,158.5,413.43 C158.5,416.16,158.56,423.49,158.79,426.16 C158.69,426.11,158.09,425.84,158.09,425.84 C154.41,424.07,150.23,424.14,146.74,425.88 C142.04,428.13,140.21,432.3,139.55,434.51 C138.85,436.87,138.77,439.43,138.73,440.54 L138.54,536.27 C138.54,538.33,138.71,540.53,138.6,541.66 L138.56,542.18 C138.2,542.82,137.82,543.56,137.52,544.32 C134.29,552.73,139.77,560.71,148.77,560.71 L171.96,560.71 C175.24,560.71,179.26,560.35,183.3,558.58 C185.4,559.75,187.79,560.25,190.07,560.25 H211.64 C212.47,560.25,213.33,560.21,214.2,560.11 C215.7,560.6,217.27,560.84,218.86,560.84 H229.81 C229.81,560.84,230.43,560.83,231.1,560.77 C231.55,560.73,232.03,560.66,232.45,560.57 C232.65,560.53,233.04,560.45,233.55,560.27 C233.89,560.15,234.28,559.99,234.69,559.77 C235.1,559.99,235.5,560.15,235.84,560.27 C236.34,560.45,236.74,560.53,236.93,560.57 C237.35,560.66,237.83,560.73,238.28,560.77 C238.96,560.84,239.57,560.84,239.57,560.84 H250.51 C251.55,560.84,252.57,560.73,253.55,560.54 H270.21 C273.51,560.54,276.72,559.98,279.75,558.79 C281.73,559.82,283.94,560.25,286.04,560.27 L286.73,560.28 H317.88 C318.71,560.42,319.75,560.49,320.64,560.49 H330.95 C332.78,560.49,334.57,560.15,336.21,559.45 C337.91,560.16,339.78,560.49,341.67,560.49 H350.67 C360.43,560.49,365.84,551.62,361.45,543.05 C361.45,542.93,361.46,542.81,361.46,542.63 L361.9,440.57 C361.86,438.45,361.52,435.6,360.39,432.98 C359.84,431.69,357.72,427.24,352.61,425.36 C349.93,424.31,346.84,424.22,343.84,425.42 C342.97,425.77,342.1,426.22,341.26,426.77 L341.57,426.41 Z "
   stroke-width="2.9349"
   stroke-linecap="round"
   stroke-linejoin="round"
   id="path608" /><path
   d="M187.7,397.36 L187.78,400.57 L188.02,403.75 L188.42,406.88 L188.97,409.96 L189.66,412.98 L190.51,415.95 L191.49,418.86 L192.61,421.7 L193.86,424.47 L195.24,427.16 L196.75,429.78 L198.37,432.32 L200.12,434.77 L201.97,437.13 L203.94,439.4 L206.01,441.57 L208.18,443.64 L210.45,445.61 L212.81,447.46 L215.26,449.21 L217.8,450.83 L220.42,452.34 L223.12,453.72 L225.89,454.97 L228.73,456.09 L231.63,457.08 L234.6,457.92 L237.62,458.62 L240.7,459.17 L243.83,459.56 L247.01,459.81 L250.23,459.89 C284.76,459.89,312.76,431.89,312.76,397.36 C312.76,362.82,284.76,334.82,250.23,334.82 C215.69,334.82,187.7,362.82,187.7,397.36 Z "
   stroke="#f4e29d"
   stroke-width="0"
   stroke-linecap="round"
   stroke-linejoin="round"
   fill="#f4e29d"
   id="path609" /><path
   d="M187.7,397.36 L187.78,400.57 L188.02,403.75 L188.42,406.88 L188.97,409.96 L189.66,412.98 L190.51,415.95 L191.49,418.86 L192.61,421.7 L193.86,424.47 L195.24,427.16 L196.75,429.78 L198.37,432.32 L200.12,434.77 L201.97,437.13 L203.94,439.4 L206.01,441.57 L208.18,443.64 L210.45,445.61 L212.81,447.46 L215.26,449.21 L217.8,450.83 L220.42,452.34 L223.12,453.72 L225.89,454.97 L228.73,456.09 L231.63,457.08 L234.6,457.92 L237.62,458.62 L240.7,459.17 L243.83,459.56 L247.01,459.81 L250.23,459.89 C284.76,459.89,312.76,431.89,312.76,397.36 C312.76,362.82,284.76,334.82,250.23,334.82 C215.69,334.82,187.7,362.82,187.7,397.36 Z "
   stroke-width="2.7258"
   id="path610" /><path
   d="M193.41,397.36 L193.48,400.28 L193.7,403.16 L194.06,406.01 L194.56,408.81 L195.2,411.55 L195.96,414.25 L196.86,416.89 L197.87,419.47 L199.01,421.99 L200.27,424.44 L201.64,426.82 L203.11,429.12 L204.7,431.35 L206.38,433.5 L208.17,435.56 L210.05,437.53 L212.02,439.41 L214.09,441.2 L216.23,442.88 L218.46,444.47 L220.77,445.95 L223.14,447.31 L225.59,448.57 L228.11,449.71 L230.69,450.72 L233.33,451.62 L236.03,452.38 L238.78,453.02 L241.57,453.52 L244.42,453.88 L247.3,454.1 L250.23,454.17 C281.61,454.17,307.04,428.73,307.04,397.36 C307.04,365.98,281.61,340.54,250.23,340.54 C218.85,340.54,193.41,365.98,193.41,397.36 Z "
   stroke="#f4e29d"
   stroke-width="0"
   fill="#f4e29d"
   id="path611" /><path
   d="M209.66,437.09 L210.3,437.73 L210.94,438.36 L211.59,438.98 L212.25,439.58 L212.92,440.18 L213.6,440.77 L214.29,441.34 L214.99,441.91 L215.7,442.47 L216.42,443.01 L217.14,443.54 L217.88,444.06 L218.62,444.57 L219.37,445.07 L220.13,445.56 L220.9,446.03 C222.11,446.65,223.33,446.56,223.6,446.03 C223.72,445.79,223.62,445.45,223.36,445.11 C222.34,443.45,221.84,441.62,222.04,439.8 C222.09,439.26,222.22,438.73,222.4,438.23 C222.62,437.64,222.5,437.01,222.05,436.64 C221.79,436.43,221.31,436.29,220.88,436.46 C220.84,436.48,220.82,436.49,220.78,436.5 C219.14,437.22,217.85,437.24,216.26,437.38 C213.82,437.59,211.73,437.51,209.66,437.09 Z "
   stroke-width="0"
   fill="black"
   id="path612" /><path
   d="M255.98,421.18 L255.95,421.2 L255.93,421.22 L255.91,421.24 L255.89,421.26 L255.86,421.28 L255.84,421.3 L255.82,421.32 L255.8,421.35 L255.77,421.37 L255.75,421.4 L255.73,421.42 L255.71,421.45 L255.67,421.5 L255.63,421.56 L255.6,421.62 L255.57,421.68 L255.54,421.74 L255.52,421.77 L255.51,421.8 L255.5,421.83 L255.48,421.86 L255.47,421.89 L255.46,421.92 L255.45,421.95 L255.45,421.98 L255.44,422.01 L255.43,422.04 C255.27,422.86,255.63,423.34,255.88,424.15 C255.99,424.52,256.11,424.71,256.21,425.09 C257.19,428.87,253.05,431.05,249.27,432.3 C247.11,433.02,245.76,433.3,243.45,433.58 C240.7,433.91,238.77,433.74,236.49,433.48 C233.84,433.34,231.07,432.68,229.18,432.06 C227.69,431.57,225.82,431.29,223.81,431.29 C220.99,431.29,218.21,432.27,216.42,432.72 C213.04,433.58,210.63,432.79,206.53,430.27 C202.99,428.11,200.45,425.2,199.11,422.73 C197.85,420.09,196.62,417.13,195.77,414.27 C194.23,409.11,193.43,403.7,193.43,398.04 H307.05 C307.05,423.22,290.93,444.48,268.25,451.94 C262.09,453.79,250.33,454.44,245.22,453.66 C233.97,451.95,227.02,448.89,227.6,442.11 C227.62,441.83,227.74,441.62,227.84,441.3 C228.6,439.83,230.48,438.79,232.91,438.38 C232.91,438.38,254.88,434.91,260.65,432.47 C263.49,431.27,264.31,429.47,263.64,428.25 C263.12,427.29,261.7,427.25,261.31,425.48 C260.83,423.27,263.32,421.07,264.21,421.18 H255.98 "
   stroke-width="0"
   fill="black"
   fill-rule="nonzero"
   id="path613" /><path
   d="M255.98,421.18 L255.95,421.2 L255.93,421.22 L255.91,421.24 L255.89,421.26 L255.86,421.28 L255.84,421.3 L255.82,421.32 L255.8,421.35 L255.77,421.37 L255.75,421.4 L255.73,421.42 L255.71,421.45 L255.67,421.5 L255.63,421.56 L255.6,421.62 L255.57,421.68 L255.54,421.74 L255.52,421.77 L255.51,421.8 L255.5,421.83 L255.48,421.86 L255.47,421.89 L255.46,421.92 L255.45,421.95 L255.45,421.98 L255.44,422.01 L255.43,422.04 C255.27,422.86,255.63,423.34,255.88,424.15 C255.99,424.52,256.11,424.71,256.21,425.09 C257.19,428.87,253.05,431.05,249.27,432.3 C247.11,433.02,245.76,433.3,243.45,433.58 C240.7,433.91,238.77,433.74,236.49,433.48 C233.84,433.34,231.07,432.68,229.18,432.06 C227.69,431.57,225.82,431.29,223.81,431.29 C220.99,431.29,218.21,432.27,216.42,432.72 C213.04,433.58,210.63,432.79,206.53,430.27 C202.99,428.11,200.45,425.2,199.11,422.73 C197.85,420.09,196.62,417.13,195.77,414.27 C194.23,409.11,193.43,403.7,193.43,398.04 H307.05 C307.05,423.22,290.93,444.48,268.25,451.94 C262.09,453.79,250.33,454.44,245.22,453.66 C233.97,451.95,227.02,448.89,227.6,442.11 C227.62,441.83,227.74,441.62,227.84,441.3 C228.6,439.83,230.48,438.79,232.91,438.38 C232.91,438.38,254.88,434.91,260.65,432.47 C263.49,431.27,264.31,429.47,263.64,428.25 C263.12,427.29,261.7,427.25,261.31,425.48 C260.83,423.27,263.32,421.07,264.21,421.18 H255.98 Z "
   stroke="#f4e29d"
   stroke-width="0.7474"
   id="path614" /><path
   d="M275.62,425.67 L275.62,425.18 L275.61,424.65 L275.6,424.11 L275.58,423.54 L275.55,422.94 L275.51,422.33 L275.47,421.69 L275.41,421.04 L275.36,420.37 L275.29,419.69 L275.14,418.29 L274.95,416.85 L274.74,415.39 L274.5,413.92 L274.22,412.45 L273.92,411.01 L273.59,409.59 L273.41,408.9 L273.23,408.22 L273.03,407.56 L272.84,406.91 L272.63,406.29 L272.41,405.68 L272.19,405.09 L271.96,404.53 C270.96,402.18,269.88,400.04,268.62,398.01 L242.52,398.09 C241.3,400.07,240.19,402.23,239.21,404.53 C236.72,410.4,235.53,420.57,235.57,425.67 Z "
   stroke="#f4e29d"
   stroke-width="0"
   fill="#f4e29d"
   id="path615" /><path
   d="M275.62,425.67 L275.62,425.18 L275.61,424.65 L275.6,424.11 L275.58,423.54 L275.55,422.94 L275.51,422.33 L275.47,421.69 L275.41,421.04 L275.36,420.37 L275.29,419.69 L275.14,418.29 L274.95,416.85 L274.74,415.39 L274.5,413.92 L274.22,412.45 L273.92,411.01 L273.59,409.59 L273.41,408.9 L273.23,408.22 L273.03,407.56 L272.84,406.91 L272.63,406.29 L272.41,405.68 L272.19,405.09 L271.96,404.53 C270.96,402.18,269.88,400.04,268.62,398.01 L242.52,398.09 C241.3,400.07,240.19,402.23,239.21,404.53 C236.72,410.4,235.53,420.57,235.57,425.67 Z "
   stroke="#f4e29d"
   stroke-width="0.9086"
   id="path616" /><path
   d="M246.37,500.61 L246.56,500.94 C246.6,501.05,246.62,501.2,246.66,501.41 C246.71,501.79,246.72,502.29,246.72,502.92 V534 L246.48,533.74 C246.19,533.41,245.92,533.11,245.68,532.83 L245.73,502.87 C245.73,502.46,245.73,502.1,245.75,501.8 C245.96,501.39,246.21,500.9,246.35,500.63 Z "
   stroke="#b25307"
   stroke-width="0"
   fill="#b25307"
   fill-rule="nonzero"
   id="path617" /><path
   d="M246.37,500.61 L246.56,500.94 C246.6,501.05,246.62,501.2,246.66,501.41 C246.71,501.79,246.72,502.29,246.72,502.92 V534 L246.48,533.74 C246.19,533.41,245.92,533.11,245.68,532.83 L245.73,502.87 C245.73,502.46,245.73,502.1,245.75,501.8 C245.96,501.39,246.21,500.9,246.35,500.63 Z "
   stroke="#b25308"
   stroke-width="2.9349"
   id="path618" /><path
   d="M256.38,433.01 L256.38,433.01 L256.39,433 L256.4,432.99 L256.41,432.98 L256.43,432.97 L256.45,432.95 L256.47,432.93 L256.5,432.91 L256.53,432.89 L256.57,432.86 L256.6,432.83 L256.64,432.8 L256.69,432.77 L256.73,432.73 L256.83,432.65 L256.94,432.56 L257.05,432.47 L257.18,432.37 L257.31,432.26 L257.44,432.15 L257.58,432.03 L257.72,431.9 L257.87,431.78 L258.02,431.65 L258.16,431.51 L258.46,431.24 L258.61,431.11 L258.75,430.97 L258.89,430.83 L259.02,430.69 L259.15,430.56 L259.27,430.42 L259.38,430.29 L259.49,430.16 L259.59,430.04 L259.67,429.92 L259.75,429.8 L259.78,429.75 L259.81,429.7 C260.31,428.76,260.5,428.45,260.5,428.45 C260.5,428.45,262.38,429.26,261.81,430.07 C261.16,431.02,261.06,430.82,259.75,431.57 C258.57,432.24,256.38,433.01,256.38,433.01 Z "
   stroke-width="0"
   fill="black"
   id="path619" /><path
   d="M256.38,433.01 L256.38,433.01 L256.39,433 L256.4,432.99 L256.41,432.98 L256.43,432.97 L256.45,432.95 L256.47,432.93 L256.5,432.91 L256.53,432.89 L256.57,432.86 L256.6,432.83 L256.64,432.8 L256.69,432.77 L256.73,432.73 L256.83,432.65 L256.94,432.56 L257.05,432.47 L257.18,432.37 L257.31,432.26 L257.44,432.15 L257.58,432.03 L257.72,431.9 L257.87,431.78 L258.02,431.65 L258.16,431.51 L258.46,431.24 L258.61,431.11 L258.75,430.97 L258.89,430.83 L259.02,430.69 L259.15,430.56 L259.27,430.42 L259.38,430.29 L259.49,430.16 L259.59,430.04 L259.67,429.92 L259.75,429.8 L259.78,429.75 L259.81,429.7 C260.31,428.76,260.5,428.45,260.5,428.45 C260.5,428.45,262.38,429.26,261.81,430.07 C261.16,431.02,261.06,430.82,259.75,431.57 C258.57,432.24,256.38,433.01,256.38,433.01 Z "
   stroke-width="0.9086"
   id="path620" /><path
   d="M149.91,432.26 L150.06,432.19 L150.21,432.13 L150.35,432.06 L150.5,432.01 L150.65,431.95 L150.81,431.91 L150.96,431.86 L151.11,431.82 L151.27,431.79 L151.43,431.76 L151.58,431.73 L151.74,431.71 L151.9,431.69 L152.06,431.68 L152.22,431.67 L152.38,431.67 L152.55,431.67 L152.71,431.67 L152.87,431.69 L153.03,431.7 L153.19,431.72 L153.36,431.75 L153.52,431.77 L153.68,431.81 L153.84,431.85 L154,431.89 L154.17,431.94 L154.33,431.99 L154.49,432.05 L154.64,432.12 L154.8,432.18 L154.96,432.26 C156.68,433.09,157.97,434.48,158.52,435.35 C161.23,439.92,163.94,443.88,166.55,448.06 C169.3,452.45,171.99,457.13,174.6,463.06 C179.16,473.4,182.32,483.8,184.74,493.77 C185.36,496.31,185.93,498.82,186.46,501.3 V485.69 C186.46,484.82,186.44,484.14,186.36,483.66 C186.26,483.04,186.15,482.22,185.92,481.15 C185.86,480.88,185.74,480.55,185.64,480.26 C185.32,479.34,185.13,478.54,185.1,478.29 C184.42,472.86,188.66,470.43,193,473.77 C194.1,474.62,195.51,475.54,196.98,476.45 C198.57,477.44,200.23,478.42,201.74,479.3 C203.9,480.58,204.77,483.71,203.57,485.92 C203.33,486.35,202.9,487.11,202.66,487.59 C202.65,487.76,202.69,488.08,202.7,488.43 C202.71,489.22,202.74,490.07,202.74,490.68 V512.85 L205.67,516.67 C205.96,516.26,206.25,515.82,206.55,515.36 C207.77,513.46,208.87,511.58,209.73,509.6 C211.12,506.42,211.75,504.95,212.2,503.02 C212.2,503.02,212.98,500.55,213.12,499.56 C213.2,499.03,213.53,498.48,213.38,497.81 C213.2,497.05,213,497.06,212.16,496.21 C209.62,493.65,210.09,490.24,213.21,488.45 L221.23,484.66 C224.34,482.88,227.55,484.88,228.16,487.28 L228.73,488.75 C228.87,489.3,229.04,489.76,229.15,490.32 C229.93,490.3,230.8,490.42,231.74,490.72 C232.9,491.09,234.1,491.26,235.3,491.41 C237.05,491.62,238.79,491.77,240.43,492.06 C244.2,492.74,245.72,495.92,243.88,499.28 C243.66,499.69,243.22,500.54,243,501.01 C242.93,501.46,242.91,502.09,242.91,502.87 L242.86,533.84 C243.27,534.34,243.77,534.95,244.4,535.63 C246.03,537.43,247.1,538.6,247.46,538.95 C248.05,539.6,248.68,540.38,249.18,541.02 L249.54,541.46 V502.91 C249.54,502.09,249.52,501.44,249.44,500.95 C249.31,500.19,249.1,499.69,248.96,499.45 C246.5,495.47,248.45,491.95,253.13,491.93 L254.66,491.92 C262.75,491.92,268.25,493.56,273.86,498.36 C277.9,501.8,281.07,506.64,283.51,511.54 C284.14,506.49,285.38,501.06,287.22,496.7 C289.97,490.23,293.76,484.82,298.66,480.63 C303.76,476.28,309.3,473.63,315.19,473.63 L316.16,473.63 C315.53,471.87,315.96,469.32,317.23,468.11 L326.22,459.49 C331.01,454.9,337.14,459.59,333.96,465.41 C333.7,465.89,333.54,466.69,333.43,467.26 C333.42,467.81,333.41,468.55,333.4,469.44 C333.38,471.23,333.36,473.58,333.35,475.94 C333.32,480.66,333.31,485.45,333.31,486.02 V521.79 L338.07,515.16 V453.75 C338.07,452.88,337.96,452.06,337.88,451.59 C337.69,451.23,337.46,450.89,337.26,450.59 C336.54,449.54,336.47,446.34,337.14,445.25 C337.14,445.25,340.38,439.98,342.41,435.82 C343.29,434.02,344.93,432.65,346.48,432.04 C347.79,431.51,349.07,431.59,350.15,432.04 C352.4,432.87,353.49,434.95,353.86,435.8 C354.49,437.28,354.75,439.04,354.79,440.64 L354.34,542.61 C354.34,543.35,354.39,544.07,354.5,544.75 C354.58,545.15,354.73,545.58,355,546.06 C357.16,550.02,355.18,553.36,350.67,553.36 H341.68 C336.86,553.36,337.83,547.72,337.04,548.86 C336.52,553.2,334.92,553.36,330.96,553.36 H320.64 C319.87,553.36,319.18,553.27,318.56,553.1 C318.34,553.14,318.1,553.16,317.86,553.16 H286.76 L286.11,553.15 C283.3,553.12,281.48,551.87,280.98,550.04 C277.93,552.3,274.27,553.41,270.21,553.41 H253.15 C253.01,553.41,252.88,553.41,252.74,553.41 C252.08,553.6,251.34,553.71,250.51,553.71 H239.59 C239.59,553.71,238.36,553.7,238,553.46 C237.71,553.27,237.55,553,237.39,552.7 C236.88,551.74,236.07,550.28,234.77,549.15 H234.62 C233.32,550.28,232.51,551.74,232,552.7 C231.84,553,231.68,553.27,231.4,553.46 C231.03,553.7,229.8,553.71,229.8,553.71 H218.87 C217.33,553.71,216.07,553.34,215.13,552.74 C213.97,553.02,212.78,553.12,211.64,553.12 H190.07 C186.85,553.12,184.9,551.49,184.77,549.2 C180.82,552.86,176.23,553.58,171.97,553.58 L148.77,553.59 C144.77,553.59,142.73,550.62,144.17,546.88 C144.46,546.13,145.02,545.24,145.43,544.59 C145.5,544.41,145.52,544.2,145.54,543.99 C145.61,543.44,145.65,542.86,145.7,542.3 C145.82,541.04,145.66,538.59,145.66,536.27 L145.85,440.66 C145.89,439.51,145.97,437.91,146.38,436.54 C146.77,435.24,147.73,433.26,149.91,432.26 "
   stroke="#f4e29d"
   stroke-width="0"
   fill="#f4e29d"
   fill-rule="nonzero"
   id="path621" /><path
   d="M294.54,524.1 L294.59,516.52 C294.68,514.19,295.03,509.21,295.75,506.45 C296.59,503.14,297.73,500.15,299.15,497.45 C300.13,495.59,301.44,493.93,302.62,492.36 C304.74,489.5,306.9,487.21,309.38,486.16 C311.11,485.43,312.96,485.32,314.55,485.89 C314.8,486.01,315.52,486.39,316.7,487.06 V478.57 L315.18,478.56 C310.84,478.56,306.4,480.5,301.86,484.38 C297.62,488.01,294.25,492.75,291.77,498.62 C289.3,504.46,287.96,512.79,287.96,518.72 V539.24 L288.07,542.16 C288.07,543.15,287.91,544.15,287.59,545.18 C287.29,546.2,286.81,547.24,286.15,548.22 L286.79,548.23 H317.86 V539.73 C316.74,540.44,315.86,540.91,315.19,541.14 C314.32,541.44,313.21,541.58,311.84,541.59 H294.56 V537.38 H311.91 V531.53 L294.5,531.49 Z "
   stroke-width="0"
   fill="black"
   id="path622" /><path
   d="M294.54,524.1 L294.59,516.52 C294.68,514.19,295.03,509.21,295.75,506.45 C296.59,503.14,297.73,500.15,299.15,497.45 C300.13,495.59,301.44,493.93,302.62,492.36 C304.74,489.5,306.9,487.21,309.38,486.16 C311.11,485.43,312.96,485.32,314.55,485.89 C314.8,486.01,315.52,486.39,316.7,487.06 V478.57 L315.18,478.56 C310.84,478.56,306.4,480.5,301.86,484.38 C297.62,488.01,294.25,492.75,291.77,498.62 C289.3,504.46,287.96,512.79,287.96,518.72 V523.6 V539.24 L288.07,542.16 C288.07,543.15,287.91,544.15,287.59,545.18 C287.29,546.2,286.81,547.24,286.15,548.22 L286.79,548.23 H317.86 V539.73 C316.74,540.44,315.86,540.91,315.19,541.14 C314.32,541.44,313.21,541.58,311.84,541.59 H294.56 V537.38 H311.91 V531.53 L294.5,531.49 Z "
   stroke-width="1.9566"
   stroke-linecap="round"
   stroke-linejoin="round"
   id="path623" /><path
   d="M253.15,496.86 L254.68,496.86 C261.86,496.86,266.12,498.23,270.66,502.11 C274.9,505.73,278.26,511.47,280.75,517.33 C282.32,521.06,283.49,523.74,283.96,528.1 C284.12,529.68,284.19,530.62,284.12,532.16 C283.89,537.53,282.82,540.99,280.27,543.98 C277.73,546.98,274.38,548.48,270.21,548.48 H253.15 C253.74,547.6,254.12,546.6,254.3,545.47 C254.41,544.81,254.46,543.88,254.47,542.66 V502.91 C254.47,501.75,254.41,500.82,254.3,500.14 C254.1,498.95,253.72,497.79,253.15,496.86 Z "
   stroke-width="0"
   stroke-linecap="round"
   stroke-linejoin="round"
   fill="black"
   id="path624" /><path
   d="M253.15,496.86 L254.68,496.86 C261.86,496.86,266.12,498.23,270.66,502.11 C274.9,505.73,278.26,511.47,280.75,517.33 C282.32,521.06,283.49,523.74,283.96,528.1 C284.12,529.68,284.19,530.62,284.12,532.16 C283.89,537.53,282.82,540.99,280.27,543.98 C277.73,546.98,274.38,548.48,270.21,548.48 H253.15 C253.74,547.6,254.12,546.6,254.3,545.47 C254.41,544.81,254.46,543.88,254.47,542.66 V502.91 C254.47,501.75,254.41,500.82,254.3,500.14 C254.1,498.95,253.72,497.79,253.15,496.86 Z "
   stroke-width="1.9566"
   stroke-linecap="round"
   stroke-linejoin="round"
   id="path625" /><path
   d="M237.93,535.53 L237.96,535.57 L237.99,535.61 L238.03,535.65 L238.07,535.7 L238.11,535.76 L238.16,535.82 L238.21,535.89 L238.27,535.96 L238.32,536.03 L238.39,536.11 L238.45,536.2 L238.52,536.28 L238.59,536.38 L238.67,536.48 L238.75,536.58 L238.83,536.68 L238.92,536.79 L239.01,536.91 L239.11,537.03 L239.2,537.15 L239.31,537.28 L239.42,537.41 L239.53,537.55 L239.65,537.69 L239.77,537.83 L239.89,537.98 L240.02,538.13 L240.16,538.28 L240.29,538.44 L240.44,538.61 L240.59,538.77 L240.74,538.94 C242.46,540.84,243.51,541.97,243.88,542.35 C244.92,543.5,245.81,544.79,246.56,545.54 C247.95,546.95,249.26,548.03,250.5,548.78 H238.39 C238.43,548.58,238.46,548.29,238.46,547.92 C238.46,546.77,238.04,545.74,237.2,544.81 L234.75,541.69 L232.16,544.81 C231.32,545.74,230.9,546.77,230.9,547.92 C230.9,548.29,230.92,548.58,230.97,548.78 H218.86 C220.1,548.03,221.41,546.95,222.8,545.54 C223.55,544.79,224.44,543.5,225.48,542.35 C225.85,541.97,226.9,540.84,228.62,538.94 C230.27,537.11,231.25,536.02,231.56,535.67 V501.24 C231.56,500.02,231.51,499.09,231.4,498.43 C231.22,497.3,230.84,496.3,230.24,495.42 C231.69,495.88,233.19,496.12,234.69,496.3 C236.35,496.51,238,496.64,239.55,496.92 C239.02,497.89,238.34,499.05,238.15,500.15 C238.04,500.81,237.98,501.71,237.98,502.86 L237.93,535.53 "
   stroke-width="0"
   stroke-linecap="round"
   stroke-linejoin="round"
   fill="black"
   id="path626" /><path
   d="M237.93,535.53 L237.96,535.57 L237.99,535.61 L238.03,535.65 L238.07,535.7 L238.11,535.76 L238.16,535.82 L238.21,535.89 L238.27,535.96 L238.32,536.03 L238.39,536.11 L238.45,536.2 L238.52,536.28 L238.59,536.38 L238.67,536.48 L238.75,536.58 L238.83,536.68 L238.92,536.79 L239.01,536.91 L239.11,537.03 L239.2,537.15 L239.31,537.28 L239.42,537.41 L239.53,537.55 L239.65,537.69 L239.77,537.83 L239.89,537.98 L240.02,538.13 L240.16,538.28 L240.29,538.44 L240.44,538.61 L240.59,538.77 L240.74,538.94 C242.46,540.84,243.51,541.97,243.88,542.35 C244.92,543.5,245.81,544.79,246.56,545.54 C247.95,546.95,249.26,548.03,250.5,548.78 H238.39 C238.43,548.58,238.46,548.29,238.46,547.92 C238.46,546.77,238.04,545.74,237.2,544.81 L234.75,541.69 L232.16,544.81 C231.32,545.74,230.9,546.77,230.9,547.92 C230.9,548.29,230.92,548.58,230.97,548.78 H218.86 C220.1,548.03,221.41,546.95,222.8,545.54 C223.55,544.79,224.44,543.5,225.48,542.35 C225.85,541.97,226.9,540.84,228.62,538.94 C230.27,537.11,231.25,536.02,231.56,535.67 V501.24 C231.56,500.02,231.51,499.09,231.4,498.43 C231.22,497.3,230.84,496.3,230.24,495.42 C231.69,495.88,233.19,496.12,234.69,496.3 C236.35,496.51,238,496.64,239.55,496.92 C239.02,497.89,238.34,499.05,238.15,500.15 C238.04,500.81,237.98,501.71,237.98,502.86 L237.93,535.53 Z "
   stroke-width="1.9566"
   stroke-linecap="round"
   stroke-linejoin="round"
   id="path627" /><path
   d="M346.84,437.99 L346.64,438.4 L346.43,438.82 L345.99,439.66 L345.54,440.51 L345.08,441.36 L344.62,442.2 L344.17,443.02 L343.94,443.41 L343.72,443.8 L343.51,444.18 L343.3,444.54 L343.09,444.9 L342.89,445.24 L342.7,445.56 L342.52,445.87 L342.35,446.16 L342.19,446.43 L342.04,446.68 L341.9,446.91 L341.78,447.12 L341.67,447.3 L341.57,447.46 L341.49,447.59 L341.43,447.7 L341.4,447.74 L341.38,447.77 L341.37,447.8 L341.35,447.82 L341.35,447.83 L341.34,447.84 C341.94,448.71,342.66,449.81,342.83,450.94 C342.94,451.6,343,452.54,343,453.75 V516.75 L328.38,537.12 V486.02 C328.38,484.88,328.43,466.82,328.54,466.16 C328.74,465.05,329.11,464.02,329.63,463.05 L320.64,471.67 C321.23,472.55,321.62,473.55,321.8,474.68 C321.91,475.34,321.96,484.43,321.96,485.65 V542.61 C321.96,543.8,321.91,544.73,321.8,545.39 C321.6,546.56,321.21,547.57,320.64,548.43 H330.96 C330.73,547.84,330.63,547.22,330.63,546.58 C330.63,545.94,330.71,545.35,330.89,544.83 C331.07,544.32,331.31,543.85,331.62,543.41 C332.98,541.42,334.42,539.38,335.92,537.28 C336.38,536.65,337.77,534.72,340.09,531.5 C341.05,530.15,342.03,528.81,343,527.47 V542.61 C343,543.8,342.94,544.73,342.83,545.39 C342.64,546.56,342.25,547.57,341.68,548.43 H350.67 C350.16,547.51,349.82,546.56,349.64,545.59 C349.49,544.64,349.41,543.65,349.41,542.61 L349.86,440.68 C349.8,438.27,349.07,436.62,348.12,436.62 C347.62,436.62,347.16,437.33,346.84,437.99 "
   stroke-width="0"
   stroke-linecap="round"
   stroke-linejoin="round"
   fill="black"
   fill-rule="nonzero"
   id="path628" /><path
   d="M346.84,437.99 L346.64,438.4 L346.43,438.82 L345.99,439.66 L345.54,440.51 L345.08,441.36 L344.62,442.2 L344.17,443.02 L343.94,443.41 L343.72,443.8 L343.51,444.18 L343.3,444.54 L343.09,444.9 L342.89,445.24 L342.7,445.56 L342.52,445.87 L342.35,446.16 L342.19,446.43 L342.04,446.68 L341.9,446.91 L341.78,447.12 L341.67,447.3 L341.57,447.46 L341.49,447.59 L341.43,447.7 L341.4,447.74 L341.38,447.77 L341.37,447.8 L341.35,447.82 L341.35,447.83 L341.34,447.84 C341.94,448.71,342.66,449.81,342.83,450.94 C342.94,451.6,343,452.54,343,453.75 V516.75 L328.38,537.12 V486.02 C328.38,484.88,328.43,466.82,328.54,466.16 C328.74,465.05,329.11,464.02,329.63,463.05 L320.64,471.67 C321.23,472.55,321.62,473.55,321.8,474.68 C321.91,475.34,321.96,484.43,321.96,485.65 V542.61 C321.96,543.8,321.91,544.73,321.8,545.39 C321.6,546.56,321.21,547.57,320.64,548.43 H330.96 C330.73,547.84,330.63,547.22,330.63,546.58 C330.63,545.94,330.71,545.35,330.89,544.83 C331.07,544.32,331.31,543.85,331.62,543.41 C332.98,541.42,334.42,539.38,335.92,537.28 C336.38,536.65,337.77,534.72,340.09,531.5 C341.05,530.15,342.03,528.81,343,527.47 V542.61 C343,543.8,342.94,544.73,342.83,545.39 C342.64,546.56,342.25,547.57,341.68,548.43 H350.67 C350.16,547.51,349.82,546.56,349.64,545.59 C349.49,544.64,349.41,543.65,349.41,542.61 L349.86,440.68 C349.8,438.27,349.07,436.62,348.12,436.62 C347.62,436.62,347.16,437.33,346.84,437.99 Z "
   stroke-width="1.9566"
   stroke-linecap="round"
   stroke-linejoin="round"
   id="path629" /><path
   d="M150.79,440.74 L150.6,536.28 C150.6,538.77,150.74,541.4,150.61,542.76 C150.5,543.99,150.43,545.29,150.06,546.3 C149.73,547.2,149.1,547.81,148.77,548.66 L171.97,548.65 C176.14,548.65,179.68,547.89,182.65,544.28 C185.53,540.97,186.44,537.53,186.67,532.16 C186.73,530.62,186.67,529.68,186.5,528.1 C186.37,526.88,186.03,524.54,185.59,522.28 C182.34,505.54,178.97,485.17,170.09,465.05 C165.08,453.68,159.79,447.13,154.32,437.92 C153.79,437.09,152.75,436.5,152.2,436.66 C151.1,436.96,150.86,438.44,150.79,440.74 Z "
   stroke-width="0"
   stroke-linecap="round"
   stroke-linejoin="round"
   fill="black"
   fill-rule="nonzero"
   id="path630" /><path
   d="M150.79,440.74 L150.6,536.28 C150.6,538.77,150.74,541.4,150.61,542.76 C150.5,543.99,150.43,545.29,150.06,546.3 C149.73,547.2,149.1,547.81,148.77,548.66 L171.97,548.65 C176.14,548.65,179.68,547.89,182.65,544.28 C185.53,540.97,186.44,537.53,186.67,532.16 C186.73,530.62,186.67,529.68,186.5,528.1 C186.37,526.88,186.03,524.54,185.59,522.28 C182.34,505.54,178.97,485.17,170.09,465.05 C165.08,453.68,159.79,447.13,154.32,437.92 C153.79,437.09,152.75,436.5,152.2,436.66 C151.1,436.96,150.86,438.44,150.79,440.74 Z "
   stroke-width="1.9566"
   stroke-linecap="round"
   stroke-linejoin="round"
   id="path631" /><path
   d="M260.89,503.91 L260.88,542 H269.21 C273.61,542,273.98,541.26,275.48,539.56 C277.11,537.71,277.79,534.81,277.8,531.34 C277.69,527.4,277.14,525.41,276.33,523.28 C275.19,520.31,274.25,518.1,272.83,515.41 C271.85,513.55,270.85,511.84,269.64,510.29 C267.58,507.63,265.6,505.95,263.52,504.82 C262.78,504.42,261.68,503.98,260.89,503.91 "
   stroke="#f4e29d"
   stroke-width="0"
   stroke-linecap="round"
   stroke-linejoin="round"
   fill="#f4e29d"
   id="path632" /><path
   d="M171.65,542.14 L157.03,542.42 V454.94 C159.19,458.59,161.02,461.12,163.25,465.99 C171.98,485.01,174.56,500.1,179.22,523.53 C179.81,526.51,180.19,528.22,180.12,531.25 C180.04,535.16,179.4,538.09,177.97,539.75 C176.47,541.45,176.04,542.14,171.65,542.14 Z "
   stroke="#f4e29d"
   stroke-width="0"
   stroke-linecap="round"
   stroke-linejoin="round"
   fill="#f4e29d"
   id="path633" /><path
   d="M171.65,542.14 L157.03,542.42 V454.94 C159.19,458.59,161.02,461.12,163.25,465.99 C171.98,485.01,174.56,500.1,179.22,523.53 C179.81,526.51,180.19,528.22,180.12,531.25 C180.04,535.16,179.4,538.09,177.97,539.75 C176.47,541.45,176.04,542.14,171.65,542.14 Z "
   stroke-width="0.9086"
   id="path634" /><path
   d="M217.69,494.95 L217.73,495.01 L217.77,495.07 L217.8,495.14 L217.83,495.2 L217.86,495.26 L217.89,495.32 L217.91,495.38 L217.94,495.44 L217.96,495.49 L217.98,495.55 L218,495.61 L218.02,495.67 L218.05,495.78 L218.07,495.9 L218.09,496.02 L218.11,496.14 L218.13,496.26 L218.14,496.39 L218.15,496.52 L218.17,496.65 L218.18,496.79 L218.19,496.86 L218.2,496.94 C218.31,497.99,218.1,498.59,217.97,499.64 C217.73,501.43,217.47,502.42,217,504.16 C216.2,507.13,215.6,508.48,214.26,511.57 C213.29,513.79,212.07,515.89,210.7,518.02 C208.96,520.74,207.46,522.5,205.55,524.62 L197.81,514.52 V490.68 C197.81,489.53,197.69,487.4,197.8,486.74 C198,485.64,198.71,484.52,199.24,483.55 C196.16,481.74,192.43,479.55,189.99,477.68 C190.02,477.93,190.55,479.24,190.74,480.12 C191,481.3,191.12,482.19,191.23,482.88 C191.34,483.54,191.4,484.48,191.4,485.69 V542.38 C191.4,543.57,191.34,544.49,191.23,545.15 C191.03,546.32,190.65,547.34,190.07,548.2 H211.64 C213.45,548.2,214.84,547.84,215.84,547.14 C216.96,546.34,217.52,545.15,217.52,543.57 C217.52,542.57,217.29,541.56,216.83,540.52 C216.45,539.68,215.82,538.65,214.95,537.41 C214.17,536.29,212.99,534.65,211.41,532.48 C210.55,531.32,210.47,531.25,209.41,529.84 C210.32,528.82,211.34,527.82,212.25,526.69 C216.97,520.8,220.4,514.52,222.52,507.86 C224.79,500.73,225.43,496.48,224.3,491.37 L223.62,488.98 L215.66,492.74 C216.63,493.71,216.78,493.84,217.38,494.52 C217.42,494.57,217.59,494.78,217.7,494.95 "
   stroke-width="0"
   fill="black"
   id="path635" /><path
   d="M217.69,494.95 L217.73,495.01 L217.77,495.07 L217.8,495.14 L217.83,495.2 L217.86,495.26 L217.89,495.32 L217.91,495.38 L217.94,495.44 L217.96,495.49 L217.98,495.55 L218,495.61 L218.02,495.67 L218.05,495.78 L218.07,495.9 L218.09,496.02 L218.11,496.14 L218.13,496.26 L218.14,496.39 L218.15,496.52 L218.17,496.65 L218.18,496.79 L218.19,496.86 L218.2,496.94 C218.31,497.99,218.1,498.59,217.97,499.64 C217.73,501.43,217.47,502.42,217,504.16 C216.2,507.13,215.6,508.48,214.26,511.57 C213.29,513.79,212.07,515.89,210.7,518.02 C208.96,520.74,207.46,522.5,205.55,524.62 L197.81,514.52 V490.68 C197.81,489.53,197.69,487.4,197.8,486.74 C198,485.64,198.71,484.52,199.24,483.55 C196.16,481.74,192.43,479.55,189.99,477.68 C190.02,477.93,190.55,479.24,190.74,480.12 C191,481.3,191.12,482.19,191.23,482.88 C191.34,483.54,191.4,484.48,191.4,485.69 V542.38 C191.4,543.57,191.34,544.49,191.23,545.15 C191.03,546.32,190.65,547.34,190.07,548.2 H211.64 C213.45,548.2,214.84,547.84,215.84,547.14 C216.96,546.34,217.52,545.15,217.52,543.57 C217.52,542.57,217.29,541.56,216.83,540.52 C216.45,539.68,215.82,538.65,214.95,537.41 C214.17,536.29,212.99,534.65,211.41,532.48 C210.55,531.32,210.47,531.25,209.41,529.84 C210.32,528.82,211.34,527.82,212.25,526.69 C216.97,520.8,220.4,514.52,222.52,507.86 C224.79,500.73,225.43,496.48,224.3,491.37 L223.62,488.98 L215.66,492.74 C216.63,493.71,216.78,493.84,217.38,494.52 C217.42,494.57,217.59,494.78,217.7,494.95 Z "
   stroke-width="1.9566"
   stroke-linecap="round"
   stroke-linejoin="round"
   id="path636" /><path
   d="M317.03,492.25 V534.72 L316.84,534.78 V531.53 C316.84,528.92,314.54,526.61,311.93,526.6 L299.46,526.57 L299.47,524.14 L299.52,516.63 C299.62,514.26,299.96,509.84,300.52,507.67 C301.28,504.72,302.29,502.07,303.51,499.75 C303.9,499.01,304.36,498.31,304.84,497.64 C305.41,496.84,306,496.06,306.57,495.3 C308.62,492.55,310.12,491.2,311.31,490.7 C311.93,490.43,312.42,490.43,312.73,490.49 C313.02,490.65,313.55,490.94,314.3,491.36 C315.26,491.9,316.18,492.19,317.03,492.25 Z "
   stroke="#b25307"
   stroke-width="0"
   stroke-linecap="round"
   stroke-linejoin="round"
   fill="#b25307"
   fill-rule="nonzero"
   id="path637" /><path
   d="M317.03,492.25 V534.72 L316.84,534.78 V531.53 C316.84,528.92,314.54,526.61,311.93,526.6 L299.46,526.57 L299.47,524.14 L299.52,516.63 C299.62,514.26,299.96,509.84,300.52,507.67 C301.28,504.72,302.29,502.07,303.51,499.75 C303.9,499.01,304.36,498.31,304.84,497.64 C305.41,496.84,306,496.06,306.57,495.3 C308.62,492.55,310.12,491.2,311.31,490.7 C311.93,490.43,312.42,490.43,312.73,490.49 C313.02,490.65,313.55,490.94,314.3,491.36 C315.26,491.9,316.18,492.19,317.03,492.25 Z "
   stroke="#f4e29d"
   stroke-width="1.9566"
   stroke-linecap="round"
   stroke-linejoin="round"
   id="path638" /><path
   d="M226.63,511.08 V533.78 L224.96,535.63 C223.33,537.43,222.26,538.6,221.91,538.95 L221.64,539.25 C221.54,539,221.44,538.75,221.33,538.51 C220.77,537.24,219.93,535.9,218.96,534.55 C218.23,533.5,217.18,532.03,215.8,530.14 L216.1,529.77 C220.76,523.95,224.29,517.72,226.64,511.08 "
   stroke="#b25307"
   stroke-width="0"
   stroke-linecap="round"
   stroke-linejoin="round"
   fill="#b25307"
   fill-rule="nonzero"
   id="path639" /><path
   d="M226.63,511.08 V533.78 L224.96,535.63 C223.33,537.43,222.26,538.6,221.91,538.95 L221.64,539.25 C221.54,539,221.44,538.75,221.33,538.51 C220.77,537.24,219.93,535.9,218.96,534.55 C218.23,533.5,217.18,532.03,215.8,530.14 L216.1,529.77 C220.76,523.95,224.29,517.72,226.64,511.08 Z "
   stroke="#f4e29d"
   stroke-width="1.9566"
   stroke-linecap="round"
   stroke-linejoin="round"
   id="path640" /><path
   d="M265.45,512.72 L265.46,512.79 L265.48,512.9 L265.49,513.03 L265.5,513.2 L265.51,513.39 L265.51,513.61 L265.52,513.86 L265.53,514.13 L265.53,514.42 L265.54,514.74 L265.55,515.07 L265.55,515.43 L265.55,515.81 L265.56,516.21 L265.56,517.06 L265.57,517.96 L265.57,518.93 L265.57,519.93 L265.57,520.98 L265.57,522.05 L265.56,523.15 L265.55,525.37 L265.54,526.48 L265.54,527.57 L265.53,528.65 L265.52,529.7 L265.51,530.71 L265.51,531.68 L265.5,532.59 L265.49,533.44 L265.49,533.84 L265.48,534.23 L265.48,534.59 L265.48,534.93 L265.47,535.25 L265.47,535.55 L265.47,535.83 L265.46,536.08 L265.46,536.3 L265.46,536.5 L265.46,536.67 L265.46,536.81 L265.45,536.92 L265.45,537 L265.45,537.05 L265.45,537.07 H269.21 C270.02,537.07,270.64,537.05,271.14,536.98 C271.36,536.76,271.52,536.6,271.79,536.3 C272.22,535.8,272.93,533.36,272.86,531.41 C272.75,527.91,272.4,527.48,271.72,525.05 C271.04,522.59,270.45,521.25,269.36,518.94 C268.55,517.22,268.16,516.18,267.05,514.64 C266.48,513.85,266.17,513.36,265.46,512.72 "
   stroke="#b25307"
   stroke-width="0"
   stroke-linecap="round"
   stroke-linejoin="round"
   fill="#b25307"
   id="path641" /><path
   d="M265.45,512.72 L265.46,512.79 L265.48,512.9 L265.49,513.03 L265.5,513.2 L265.51,513.39 L265.51,513.61 L265.52,513.86 L265.53,514.13 L265.53,514.42 L265.54,514.74 L265.55,515.07 L265.55,515.43 L265.55,515.81 L265.56,516.21 L265.56,517.06 L265.57,517.96 L265.57,518.93 L265.57,519.93 L265.57,520.98 L265.57,522.05 L265.56,523.15 L265.55,525.37 L265.54,526.48 L265.54,527.57 L265.53,528.65 L265.52,529.7 L265.51,530.71 L265.51,531.68 L265.5,532.59 L265.49,533.44 L265.49,533.84 L265.48,534.23 L265.48,534.59 L265.48,534.93 L265.47,535.25 L265.47,535.55 L265.47,535.83 L265.46,536.08 L265.46,536.3 L265.46,536.5 L265.46,536.67 L265.46,536.81 L265.45,536.92 L265.45,537 L265.45,537.05 L265.45,537.07 H269.21 C270.02,537.07,270.64,537.05,271.14,536.98 C271.36,536.76,271.52,536.6,271.79,536.3 C272.22,535.8,272.93,533.36,272.86,531.41 C272.75,527.91,272.4,527.48,271.72,525.05 C271.04,522.59,270.45,521.25,269.36,518.94 C268.55,517.22,268.16,516.18,267.05,514.64 C266.48,513.85,266.17,513.36,265.46,512.72 Z "
   stroke="#b25308"
   stroke-width="0.9086"
   id="path642" /><path
   d="M161.96,475.51 V537.4 L171.6,537.21 C172.42,537.21,173.11,537.19,173.62,537.12 C173.82,536.92,174.01,536.78,174.24,536.52 C174.44,536.29,175.11,534.96,175.19,531.15 C175.22,529.94,175.16,528.98,175.03,528.04 C174.88,526.95,174.65,525.87,174.38,524.5 C172.07,512.88,170.28,503.33,167.98,494.33 C166.36,487.96,164.48,481.88,161.96,475.51 Z "
   stroke="#b25307"
   stroke-width="0"
   fill="#b25307"
   id="path643" /><path
   d="M161.96,475.51 V537.4 L171.6,537.21 C172.42,537.21,173.11,537.19,173.62,537.12 C173.82,536.92,174.01,536.78,174.24,536.52 C174.44,536.29,175.11,534.96,175.19,531.15 C175.22,529.94,175.16,528.98,175.03,528.04 C174.88,526.95,174.65,525.87,174.38,524.5 C172.07,512.88,170.28,503.33,167.98,494.33 C166.36,487.96,164.48,481.88,161.96,475.51 Z "
   stroke="#f4e29d"
   stroke-width="1.9566"
   stroke-linecap="round"
   stroke-linejoin="round"
   id="path644" /><path
   d="M208.46,540.52 L208.46,540.57 L208.46,540.62 L208.46,540.66 L208.45,540.71 L208.45,540.75 L208.44,540.8 L208.44,540.84 L208.43,540.88 L208.42,540.92 L208.41,540.96 L208.4,541 L208.39,541.04 L208.37,541.07 L208.36,541.11 L208.35,541.14 L208.33,541.17 L208.31,541.21 L208.29,541.24 L208.28,541.27 L208.25,541.29 L208.23,541.32 L208.21,541.35 L208.19,541.37 L208.16,541.4 L208.14,541.42 L208.11,541.44 L208.09,541.46 L208.06,541.48 L208.03,541.5 L208,541.52 L207.97,541.53 L207.93,541.55 C207.6,541.7,206.94,541.77,205.95,541.78 H197.81 V524.78 C197.9,524.91,198.75,526.03,200.36,528.15 C201.5,529.67,202.66,531.2,203.83,532.75 C205.57,535.09,206.7,536.59,207.21,537.28 C207.56,537.78,207.85,538.32,208.1,538.9 C208.34,539.47,208.46,540.01,208.46,540.52 "
   stroke="#f4e29d"
   stroke-width="0"
   stroke-linecap="round"
   stroke-linejoin="round"
   fill="#f4e29d"
   id="path645" /><path
   d="M275.05,332.39 L277.27,333.28 L279.44,334.25 L281.58,335.28 L283.67,336.39 L285.73,337.56 L287.74,338.8 L289.7,340.11 L291.61,341.48 L293.48,342.91 L295.3,344.4 L297.06,345.95 L298.77,347.56 L300.43,349.23 L302.03,350.95 L303.57,352.72 L305.05,354.55 L306.47,356.42 L307.83,358.34 L309.12,360.32 L310.35,362.33 L311.51,364.39 L312.61,366.5 L313.63,368.64 L314.58,370.82 L315.46,373.04 L316.26,375.3 L316.98,377.59 L317.63,379.92 L318.2,382.28 L318.69,384.67 L319.09,387.08 L319.41,389.53 L331.54,389.48 C323.53,362.23,302.18,340.69,275.05,332.39 "
   stroke="#f4e29d"
   stroke-width="0"
   stroke-linecap="round"
   stroke-linejoin="round"
   fill="#f4e29d"
   fill-rule="nonzero"
   id="path646" /><path
   d="M275.05,332.39 L277.27,333.28 L279.44,334.25 L281.58,335.28 L283.67,336.39 L285.73,337.56 L287.74,338.8 L289.7,340.11 L291.61,341.48 L293.48,342.91 L295.3,344.4 L297.06,345.95 L298.77,347.56 L300.43,349.23 L302.03,350.95 L303.57,352.72 L305.05,354.55 L306.47,356.42 L307.83,358.34 L309.12,360.32 L310.35,362.33 L311.51,364.39 L312.61,366.5 L313.63,368.64 L314.58,370.82 L315.46,373.04 L316.26,375.3 L316.98,377.59 L317.63,379.92 L318.2,382.28 L318.69,384.67 L319.09,387.08 L319.41,389.53 L331.54,389.48 C323.53,362.23,302.18,340.69,275.05,332.39 Z "
   stroke-width="2.7258"
   stroke-linecap="round"
   stroke-linejoin="round"
   id="path647" /><path
   d="M225.87,332.24 L223.31,333.05 L220.78,333.94 L218.29,334.9 L215.84,335.93 L213.43,337.04 L211.06,338.23 L208.73,339.48 L206.44,340.8 L204.2,342.19 L202.01,343.64 L199.86,345.17 L197.76,346.75 L195.72,348.39 L193.73,350.1 L191.79,351.87 L189.9,353.69 L188.07,355.57 L186.31,357.5 L184.6,359.49 L182.95,361.53 L181.36,363.62 L179.84,365.76 L178.39,367.95 L177,370.18 L175.68,372.46 L174.43,374.79 L173.25,377.15 L172.15,379.56 L171.12,382 L170.16,384.48 L169.28,387 L168.48,389.55 H181.1 C184.14,363.25,201.86,341.27,225.87,332.24 Z "
   stroke="#f4e29d"
   stroke-width="0"
   stroke-linecap="round"
   stroke-linejoin="round"
   fill="#f4e29d"
   fill-rule="nonzero"
   id="path648" /><path
   d="M225.87,332.24 L223.31,333.05 L220.78,333.94 L218.29,334.9 L215.84,335.93 L213.43,337.04 L211.06,338.23 L208.73,339.48 L206.44,340.8 L204.2,342.19 L202.01,343.64 L199.86,345.17 L197.76,346.75 L195.72,348.39 L193.73,350.1 L191.79,351.87 L189.9,353.69 L188.07,355.57 L186.31,357.5 L184.6,359.49 L182.95,361.53 L181.36,363.62 L179.84,365.76 L178.39,367.95 L177,370.18 L175.68,372.46 L174.43,374.79 L173.25,377.15 L172.15,379.56 L171.12,382 L170.16,384.48 L169.28,387 L168.48,389.55 H181.1 C184.14,363.25,201.86,341.27,225.87,332.24 Z "
   stroke-width="2.7258"
   stroke-linecap="round"
   stroke-linejoin="round"
   id="path649" /><path
   d="M184.93,412.79 L181.51,413.33 C181.49,412.85,181.48,412.47,181.4,411.89 C181.19,410.58,180.26,408.18,173.33,409.27 C166.4,410.37,166.26,412.95,166.47,414.26 C166.56,414.83,166.68,415.2,166.8,415.66 L163.38,416.2 C163.38,416.2,163.05,415.36,162.88,414.28 C162.35,410.98,162.46,405.82,172.53,404.23 C182.6,402.63,184.29,407.5,184.82,410.8 C184.98,411.88,184.93,412.79,184.93,412.79 Z "
   stroke="#f9eec5"
   stroke-width="0"
   stroke-linecap="round"
   stroke-linejoin="round"
   fill="#f9eec5"
   fill-rule="nonzero"
   id="path650" /><path
   d="M184.93,412.79 L181.51,413.33 C181.49,412.85,181.48,412.47,181.4,411.89 C181.19,410.58,180.26,408.18,173.33,409.27 C166.4,410.37,166.26,412.95,166.47,414.26 C166.56,414.83,166.68,415.2,166.8,415.66 L163.38,416.2 C163.38,416.2,163.05,415.36,162.88,414.28 C162.35,410.98,162.46,405.82,172.53,404.23 C182.6,402.63,184.29,407.5,184.82,410.8 C184.98,411.88,184.93,412.79,184.93,412.79 Z "
   stroke-width="2"
   id="path651" /><path
   d="M179.13,429.77 L178.74,429.9 L178.35,430.03 L177.97,430.15 L177.6,430.26 L177.24,430.36 L176.88,430.45 L176.53,430.54 L176.19,430.62 L175.86,430.7 L175.53,430.77 L174.9,430.88 L174.3,430.97 L173.72,431.03 L173.17,431.06 L172.65,431.07 L172.15,431.06 L171.67,431.03 L171.22,430.97 L170.79,430.89 L170.39,430.79 L170,430.67 L169.64,430.53 L169.3,430.37 L168.98,430.19 L168.67,430 L168.39,429.79 L168.12,429.57 L167.87,429.33 L167.64,429.07 L167.43,428.8 L167.22,428.52 L167.04,428.23 L166.86,427.93 L166.7,427.61 L166.56,427.29 L166.42,426.96 L166.3,426.62 C165.03,422.95,165.98,419.16,174.47,416.23 C182.95,413.31,186.03,415.71,187.3,419.39 C188.56,423.06,187.61,426.85,179.13,429.77 Z "
   stroke="#f9eec5"
   stroke-width="0"
   fill="#f9eec5"
   fill-rule="nonzero"
   id="path652" /><path
   d="M177.46,424.94 L177.73,424.85 L177.99,424.76 L178.24,424.66 L178.48,424.58 L178.72,424.49 L178.95,424.4 L179.18,424.31 L179.4,424.23 L179.61,424.14 L179.82,424.06 L180.02,423.97 L180.22,423.89 L180.41,423.81 L180.59,423.73 L180.94,423.57 L181.27,423.41 L181.57,423.25 L181.86,423.1 L182.12,422.95 L182.36,422.81 L182.59,422.67 L182.79,422.53 L182.98,422.39 L183.15,422.25 L183.3,422.12 L183.44,421.99 L183.56,421.87 L183.66,421.74 L183.75,421.62 L183.82,421.5 L183.88,421.39 L183.93,421.27 L183.97,421.16 L183.99,421.05 L184,420.95 L184,420.84 L183.99,420.74 L183.97,420.64 L183.94,420.54 C183.59,419.51,181.85,419.1,176.13,421.07 C170.41,423.04,169.3,424.43,169.65,425.46 C170.01,426.49,171.74,426.91,177.46,424.94 Z "
   stroke="#f9eec5"
   stroke-width="0"
   fill="#f9eec5"
   fill-rule="nonzero"
   id="path653" /><path
   d="M179.13,429.77 L178.74,429.9 L178.35,430.03 L177.97,430.15 L177.6,430.26 L177.24,430.36 L176.88,430.45 L176.53,430.54 L176.19,430.62 L175.86,430.7 L175.53,430.77 L174.9,430.88 L174.3,430.97 L173.72,431.03 L173.17,431.06 L172.65,431.07 L172.15,431.06 L171.67,431.03 L171.22,430.97 L170.79,430.89 L170.39,430.79 L170,430.67 L169.64,430.53 L169.3,430.37 L168.98,430.19 L168.67,430 L168.39,429.79 L168.12,429.57 L167.87,429.33 L167.64,429.07 L167.43,428.8 L167.22,428.52 L167.04,428.23 L166.86,427.93 L166.7,427.61 L166.56,427.29 L166.42,426.96 L166.3,426.62 C165.03,422.95,165.98,419.16,174.47,416.23 C182.95,413.31,186.03,415.71,187.3,419.39 C188.56,423.06,187.61,426.85,179.13,429.77 Z "
   stroke-width="2"
   id="path654" /><path
   d="M177.46,424.94 L177.73,424.85 L177.99,424.76 L178.24,424.66 L178.48,424.58 L178.72,424.49 L178.95,424.4 L179.18,424.31 L179.4,424.23 L179.61,424.14 L179.82,424.06 L180.02,423.97 L180.22,423.89 L180.41,423.81 L180.59,423.73 L180.94,423.57 L181.27,423.41 L181.57,423.25 L181.86,423.1 L182.12,422.95 L182.36,422.81 L182.59,422.67 L182.79,422.53 L182.98,422.39 L183.15,422.25 L183.3,422.12 L183.44,421.99 L183.56,421.87 L183.66,421.74 L183.75,421.62 L183.82,421.5 L183.88,421.39 L183.93,421.27 L183.97,421.16 L183.99,421.05 L184,420.95 L184,420.84 L183.99,420.74 L183.97,420.64 L183.94,420.54 C183.59,419.51,181.85,419.1,176.13,421.07 C170.41,423.04,169.3,424.43,169.65,425.46 C170.01,426.49,171.74,426.91,177.46,424.94 Z "
   stroke-width="2"
   id="path655" /><polygon
   points="198.68,440.65 180.29,452.59 178.99,450.59 185.4,439.76 172.9,441.21 171.6,439.21 189.99,427.27 192.65,431.36 185.07,436.28 189.77,435.7 190.89,437.42 188.45,441.48 196.02,436.56 "
   stroke="#f9eec5"
   stroke-width="0"
   fill="#f9eec5"
   fill-rule="nonzero"
   id="polygon656" /><polygon
   points="198.68,440.65 180.29,452.59 178.99,450.59 185.4,439.76 172.9,441.21 171.6,439.21 189.99,427.27 192.65,431.36 185.07,436.28 189.77,435.7 190.89,437.42 188.45,441.48 196.02,436.56 "
   stroke-width="2"
   id="polygon657" /><polygon
   points="212.17,452.87 197.5,469.16 195.72,467.57 199.11,455.45 187.41,460.09 185.65,458.49 200.32,442.2 203.94,445.46 197.9,452.17 202.29,450.39 203.81,451.76 202.5,456.32 208.55,449.61 "
   stroke="#f9eec5"
   stroke-width="0"
   fill="#f9eec5"
   fill-rule="nonzero"
   id="polygon658" /><polygon
   points="212.17,452.87 197.5,469.16 195.72,467.57 199.11,455.45 187.41,460.09 185.65,458.49 200.32,442.2 203.94,445.46 197.9,452.17 202.29,450.39 203.81,451.76 202.5,456.32 208.55,449.61 "
   stroke-width="2"
   id="polygon659" /><path
   d="M223.42,465.36 L216.56,479.43 L211.96,477.18 L219.11,462.53 C219.68,461.36,219.41,460.21,218.61,459.82 C217.81,459.43,216.77,459.94,216.2,461.11 L209.05,475.77 L204.46,473.52 L211.32,459.46 C213.2,455.61,217.14,455.15,220.17,456.63 C223.2,458.11,225.3,461.51,223.42,465.36 Z "
   stroke="#f9eec5"
   stroke-width="0"
   fill="#f9eec5"
   fill-rule="nonzero"
   id="path660" /><path
   d="M223.42,465.36 L216.56,479.43 L211.96,477.18 L219.11,462.53 C219.68,461.36,219.41,460.21,218.61,459.82 C217.81,459.43,216.77,459.94,216.2,461.11 L209.05,475.77 L204.46,473.52 L211.32,459.46 C213.2,455.61,217.14,455.15,220.17,456.63 C223.2,458.11,225.3,461.51,223.42,465.36 Z "
   stroke-width="2"
   id="path661" /><polygon
   points="240.95,463.75 235.64,485.03 230.91,483.85 233.5,473.49 224.5,482.25 222.18,481.67 227.49,460.4 232.21,461.57 229.63,471.94 238.63,463.18 "
   stroke="#f9eec5"
   stroke-width="0"
   fill="#f9eec5"
   fill-rule="nonzero"
   id="polygon662" /><polygon
   points="240.95,463.75 235.64,485.03 230.91,483.85 233.5,473.49 224.5,482.25 222.18,481.67 227.49,460.4 232.21,461.57 229.63,471.94 238.63,463.18 "
   stroke-width="2"
   id="polygon663" /><polygon
   points="248.33,463.97 246.8,485.84 241.7,485.49 243.23,463.61 "
   stroke="#f9eec5"
   stroke-width="0"
   fill="#f9eec5"
   fill-rule="nonzero"
   id="polygon664" /><polygon
   points="248.33,463.97 246.8,485.84 241.7,485.49 243.23,463.61 "
   stroke-width="2"
   id="polygon665" /><polygon
   points="263.41,481.36 263.71,484.89 250.78,486.03 250.47,482.49 254.38,482.15 252.77,463.84 257.87,463.39 259.47,481.7 "
   stroke="#f9eec5"
   stroke-width="0"
   fill="#f9eec5"
   fill-rule="nonzero"
   id="polygon666" /><polygon
   points="263.41,481.36 263.71,484.89 250.78,486.03 250.47,482.49 254.38,482.15 252.77,463.84 257.87,463.39 259.47,481.7 "
   stroke-width="2"
   id="polygon667" /><polygon
   points="280.12,480.95 275.35,482.23 270.78,475.05 270.41,483.55 265.64,484.84 267.01,470.85 264.74,462.38 269.68,461.05 271.95,469.53 "
   stroke="#f9eec5"
   stroke-width="0"
   fill="#f9eec5"
   fill-rule="nonzero"
   id="polygon668" /><polygon
   points="280.12,480.95 275.35,482.23 270.78,475.05 270.41,483.55 265.64,484.84 267.01,470.85 264.74,462.38 269.68,461.05 271.95,469.53 "
   stroke-width="2"
   id="polygon669" /><path
   d="M285.81,453.79 L287.43,456.85 C286.99,457.02,286.63,457.15,286.12,457.42 C284.95,458.04,282.97,459.7,286.27,465.9 C289.56,472.09,292.04,471.39,293.21,470.76 C293.72,470.49,294.03,470.27,294.42,469.99 L296.05,473.05 C296.05,473.05,295.36,473.64,294.4,474.15 C291.45,475.72,286.54,477.3,281.75,468.3 C276.96,459.3,281.02,456.11,283.97,454.54 C284.93,454.03,285.81,453.79,285.81,453.79 Z "
   stroke="#f9eec5"
   stroke-width="0"
   fill="#f9eec5"
   fill-rule="nonzero"
   id="path670" /><path
   d="M285.81,453.79 L287.43,456.85 C286.99,457.02,286.63,457.15,286.12,457.42 C284.95,458.04,282.97,459.7,286.27,465.9 C289.56,472.09,292.04,471.39,293.21,470.76 C293.72,470.49,294.03,470.27,294.42,469.99 L296.05,473.05 C296.05,473.05,295.36,473.64,294.4,474.15 C291.45,475.72,286.54,477.3,281.75,468.3 C276.96,459.3,281.02,456.11,283.97,454.54 C284.93,454.03,285.81,453.79,285.81,453.79 Z "
   stroke-width="2"
   id="path671" /><polygon
   points="295.53,446.5 297.66,449.33 293.23,452.68 295.16,455.24 298.75,452.53 300.89,455.36 297.3,458.07 302.15,464.52 306.59,461.17 308.72,464.01 300.2,470.43 293.21,461.15 292.12,461.97 289.98,459.14 291.07,458.32 287.01,452.92 "
   stroke="#f9eec5"
   stroke-width="0"
   fill="#f9eec5"
   fill-rule="nonzero"
   id="polygon672" /><polygon
   points="295.53,446.5 297.66,449.33 293.23,452.68 295.16,455.24 298.75,452.53 300.89,455.36 297.3,458.07 302.15,464.52 306.59,461.17 308.72,464.01 300.2,470.43 293.21,461.15 292.12,461.97 289.98,459.14 291.07,458.32 287.01,452.92 "
   stroke-width="2"
   id="polygon673" /><polygon
   points="305.47,434.82 322.27,448.91 319.13,452.65 310.95,445.79 314.88,457.71 313.35,459.54 296.55,445.45 299.68,441.71 307.86,448.58 303.93,436.65 "
   stroke="#f9eec5"
   stroke-width="0"
   fill="#f9eec5"
   fill-rule="nonzero"
   id="polygon674" /><polygon
   points="305.47,434.82 322.27,448.91 319.13,452.65 310.95,445.79 314.88,457.71 313.35,459.54 296.55,445.45 299.68,441.71 307.86,448.58 303.93,436.65 "
   stroke-width="2"
   id="polygon675" /><polygon
   points="327.55,432.8 330.66,434.52 324.36,445.88 321.25,444.16 323.16,440.73 307.08,431.82 309.56,427.35 325.63,436.26 "
   stroke="#f9eec5"
   stroke-width="0"
   fill="#f9eec5"
   fill-rule="nonzero"
   id="polygon676" /><polygon
   points="327.55,432.8 330.66,434.52 324.36,445.88 321.25,444.16 323.16,440.73 307.08,431.82 309.56,427.35 325.63,436.26 "
   stroke-width="2"
   id="polygon677" /><polygon
   points="315,413.46 318.36,414.62 316.55,419.88 319.59,420.92 321.05,416.67 324.41,417.82 322.95,422.07 330.57,424.7 332.38,419.45 335.74,420.61 332.27,430.69 321.28,426.91 320.84,428.2 317.48,427.04 317.93,425.75 311.53,423.55 "
   stroke="#f9eec5"
   stroke-width="0"
   fill="#f9eec5"
   fill-rule="nonzero"
   id="polygon678" /><polygon
   points="315,413.46 318.36,414.62 316.55,419.88 319.59,420.92 321.05,416.67 324.41,417.82 322.95,422.07 330.57,424.7 332.38,419.45 335.74,420.61 332.27,430.69 321.28,426.91 320.84,428.2 317.48,427.04 317.93,425.75 311.53,423.55 "
   stroke-width="2"
   id="polygon679" /><path
   d="M332.08,401.46 L332.5,401.53 L332.91,401.62 L333.3,401.73 L333.67,401.87 L334.02,402.02 L334.36,402.19 L334.68,402.38 L334.98,402.58 L335.27,402.8 L335.54,403.04 L335.79,403.3 L336.03,403.57 L336.25,403.85 L336.45,404.15 L336.64,404.46 L336.82,404.79 L336.98,405.12 L337.12,405.47 L337.25,405.83 L337.36,406.2 L337.46,406.58 L337.54,406.97 L337.61,407.37 L337.66,407.77 L337.7,408.19 L337.73,408.61 L337.74,409.04 L337.73,409.47 L337.72,409.91 L337.69,410.35 L337.64,410.8 L337.59,411.25 L337.03,415.23 L315.31,412.18 L316.02,407.12 L321.85,407.94 C321.48,407.3,320.69,406.39,319.59,405.66 C318.54,404.96,317.46,404.67,316.39,404.52 L317.1,399.46 C318.59,399.66,320.18,400.03,321.7,401.03 C323.04,401.91,324.15,403.16,324.8,404.05 C325.61,402.99,327.89,400.87,332.08,401.46 Z "
   stroke="#f9eec5"
   stroke-width="0"
   fill="#f9eec5"
   fill-rule="nonzero"
   id="path680" /><path
   d="M331.34,406.52 L331.07,406.48 L330.81,406.46 L330.55,406.45 L330.3,406.46 L330.06,406.47 L329.82,406.49 L329.59,406.52 L329.37,406.56 L329.15,406.6 L328.94,406.66 L328.74,406.72 L328.54,406.79 L328.35,406.86 L328.17,406.94 L328,407.02 L327.84,407.1 L327.68,407.19 L327.54,407.29 L327.4,407.38 L327.27,407.48 L327.15,407.58 L327.03,407.68 L326.93,407.78 L326.84,407.87 L326.75,407.97 L326.68,408.07 L326.61,408.16 L326.55,408.25 L326.51,408.34 L326.47,408.43 L326.45,408.51 L326.43,408.58 L334.16,409.67 C334.41,407.95,333.39,406.8,331.34,406.52 Z "
   stroke="#f9eec5"
   stroke-width="0"
   fill="#f9eec5"
   fill-rule="nonzero"
   id="path681" /><path
   d="M332.08,401.46 L332.5,401.53 L332.91,401.62 L333.3,401.73 L333.67,401.87 L334.02,402.02 L334.36,402.19 L334.68,402.38 L334.98,402.58 L335.27,402.8 L335.54,403.04 L335.79,403.3 L336.03,403.57 L336.25,403.85 L336.45,404.15 L336.64,404.46 L336.82,404.79 L336.98,405.12 L337.12,405.47 L337.25,405.83 L337.36,406.2 L337.46,406.58 L337.54,406.97 L337.61,407.37 L337.66,407.77 L337.7,408.19 L337.73,408.61 L337.74,409.04 L337.73,409.47 L337.72,409.91 L337.69,410.35 L337.64,410.8 L337.59,411.25 L337.03,415.23 L315.31,412.18 L316.02,407.12 L321.85,407.94 C321.48,407.3,320.69,406.39,319.59,405.66 C318.54,404.96,317.46,404.67,316.39,404.52 L317.1,399.46 C318.59,399.66,320.18,400.03,321.7,401.03 C323.04,401.91,324.15,403.16,324.8,404.05 C325.61,402.99,327.89,400.87,332.08,401.46 Z "
   stroke-width="2"
   id="path682" /><path
   d="M331.34,406.52 L331.07,406.48 L330.81,406.46 L330.55,406.45 L330.3,406.46 L330.06,406.47 L329.82,406.49 L329.59,406.52 L329.37,406.56 L329.15,406.6 L328.94,406.66 L328.74,406.72 L328.54,406.79 L328.35,406.86 L328.17,406.94 L328,407.02 L327.84,407.1 L327.68,407.19 L327.54,407.29 L327.4,407.38 L327.27,407.48 L327.15,407.58 L327.03,407.68 L326.93,407.78 L326.84,407.87 L326.75,407.97 L326.68,408.07 L326.61,408.16 L326.55,408.25 L326.51,408.34 L326.47,408.43 L326.45,408.51 L326.43,408.58 L334.16,409.67 C334.41,407.95,333.39,406.8,331.34,406.52 Z "
   stroke-width="2"
   id="path683" /><path
   d="M235.91,333.7 L235.91,333.7 L235.92,333.7 L235.92,333.71 L235.92,333.71 L235.92,333.71 L235.93,333.71 L235.94,333.72 L235.96,333.73 L235.97,333.74 L235.99,333.75 L236.02,333.76 L236.04,333.78 L236.07,333.79 L236.1,333.81 L236.14,333.82 L236.17,333.84 L236.21,333.86 L236.25,333.87 L236.29,333.89 L236.34,333.91 L236.38,333.92 L236.43,333.94 L236.48,333.95 L236.53,333.97 L236.58,333.98 L236.63,333.99 L236.68,334 L236.73,334.01 L236.79,334.02 L236.84,334.02 L236.9,334.03 L236.96,334.03 L237.01,334.03 L237.07,334.02 L237.12,334.02 C238.04,333.89,238.07,332.88,237.99,332.45 C237.65,330.54,234.35,328.39,233.82,325.46 L233.68,324.66 L237.45,324.13 L237.59,324.94 L235.07,325.29 L235.15,325.73 C235.56,328.02,238.82,330.17,239.2,332.28 C239.44,333.61,238.7,334.68,237.28,334.88 C236.6,334.97,235.8,334.82,235.23,334.36 Z "
   stroke-width="0"
   fill="black"
   id="path684" /><path
   d="M235.91,333.7 L235.91,333.7 L235.92,333.7 L235.92,333.71 L235.92,333.71 L235.92,333.71 L235.93,333.71 L235.94,333.72 L235.96,333.73 L235.97,333.74 L235.99,333.75 L236.02,333.76 L236.04,333.78 L236.07,333.79 L236.1,333.81 L236.14,333.82 L236.17,333.84 L236.21,333.86 L236.25,333.87 L236.29,333.89 L236.34,333.91 L236.38,333.92 L236.43,333.94 L236.48,333.95 L236.53,333.97 L236.58,333.98 L236.63,333.99 L236.68,334 L236.73,334.01 L236.79,334.02 L236.84,334.02 L236.9,334.03 L236.96,334.03 L237.01,334.03 L237.07,334.02 L237.12,334.02 C238.04,333.89,238.07,332.88,237.99,332.45 C237.65,330.54,234.35,328.39,233.82,325.46 L233.68,324.66 L237.45,324.13 L237.59,324.94 L235.07,325.29 L235.15,325.73 C235.56,328.02,238.82,330.17,239.2,332.28 C239.44,333.61,238.7,334.68,237.28,334.88 C236.6,334.97,235.8,334.82,235.23,334.36 Z "
   stroke-width="0.8511"
   id="path685" /><path
   d="M246.19,333.88 L246.1,333.88 L246.01,333.88 L245.92,333.87 L245.84,333.86 L245.76,333.84 L245.68,333.82 L245.6,333.79 L245.52,333.76 L245.45,333.72 L245.37,333.68 L245.3,333.63 L245.23,333.58 L245.17,333.53 L245.1,333.47 L244.98,333.34 L244.86,333.2 L244.74,333.05 L244.64,332.89 L244.54,332.72 L244.45,332.53 L244.36,332.34 L244.28,332.15 L244.2,331.94 L244.13,331.74 L244.07,331.53 L244.01,331.31 L243.95,331.1 L243.9,330.88 L243.86,330.67 L243.82,330.46 L243.78,330.25 L243.74,330.05 L243.71,329.85 L243.69,329.66 L243.67,329.48 L243.65,329.31 L243.63,329.14 L243.61,328.99 L243.6,328.85 C243.49,327.42,243.18,323.36,245.34,323.23 C247.5,323.09,247.86,327.15,247.97,328.58 C248.09,330.01,248.15,333.76,246.19,333.88 Z "
   stroke-width="0"
   fill="black"
   id="path686" /><path
   d="M246.11,332.92 L246.14,332.92 L246.17,332.91 L246.2,332.9 L246.23,332.88 L246.26,332.86 L246.28,332.84 L246.31,332.81 L246.33,332.78 L246.36,332.74 L246.38,332.71 L246.4,332.67 L246.42,332.62 L246.46,332.53 L246.5,332.42 L246.54,332.3 L246.57,332.17 L246.6,332.04 L246.63,331.89 L246.65,331.74 L246.68,331.58 L246.7,331.42 L246.72,331.25 L246.73,331.08 L246.75,330.91 L246.77,330.56 L246.78,330.21 L246.79,330.03 L246.79,329.86 L246.79,329.69 L246.79,329.52 L246.79,329.36 L246.79,329.21 L246.78,329.06 L246.77,328.92 L246.77,328.78 L246.76,328.66 C246.65,327.37,246.1,324.14,245.41,324.18 C244.73,324.23,244.71,327.49,244.82,328.77 C244.92,330.06,245.46,332.96,246.11,332.92 Z "
   stroke-width="0"
   fill="black"
   id="path687" /><path
   d="M246.19,333.88 L246.1,333.88 L246.01,333.88 L245.92,333.87 L245.84,333.86 L245.76,333.84 L245.68,333.82 L245.6,333.79 L245.52,333.76 L245.45,333.72 L245.37,333.68 L245.3,333.63 L245.23,333.58 L245.17,333.53 L245.1,333.47 L244.98,333.34 L244.86,333.2 L244.74,333.05 L244.64,332.89 L244.54,332.72 L244.45,332.53 L244.36,332.34 L244.28,332.15 L244.2,331.94 L244.13,331.74 L244.07,331.53 L244.01,331.31 L243.95,331.1 L243.9,330.88 L243.86,330.67 L243.82,330.46 L243.78,330.25 L243.74,330.05 L243.71,329.85 L243.69,329.66 L243.67,329.48 L243.65,329.31 L243.63,329.14 L243.61,328.99 L243.6,328.85 C243.49,327.42,243.18,323.36,245.34,323.23 C247.5,323.09,247.86,327.15,247.97,328.58 C248.09,330.01,248.15,333.76,246.19,333.88 Z "
   stroke-width="0.8511"
   id="path688" /><path
   d="M246.11,332.92 L246.14,332.92 L246.17,332.91 L246.2,332.9 L246.23,332.88 L246.26,332.86 L246.28,332.84 L246.31,332.81 L246.33,332.78 L246.36,332.74 L246.38,332.71 L246.4,332.67 L246.42,332.62 L246.46,332.53 L246.5,332.42 L246.54,332.3 L246.57,332.17 L246.6,332.04 L246.63,331.89 L246.65,331.74 L246.68,331.58 L246.7,331.42 L246.72,331.25 L246.73,331.08 L246.75,330.91 L246.77,330.56 L246.78,330.21 L246.79,330.03 L246.79,329.86 L246.79,329.69 L246.79,329.52 L246.79,329.36 L246.79,329.21 L246.78,329.06 L246.77,328.92 L246.77,328.78 L246.76,328.66 C246.65,327.37,246.1,324.14,245.41,324.18 C244.73,324.23,244.71,327.49,244.82,328.77 C244.92,330.06,245.46,332.96,246.11,332.92 Z "
   stroke-width="0.8511"
   id="path689" /><path
   d="M254.88,333.77 L254.79,333.76 L254.7,333.75 L254.62,333.73 L254.54,333.71 L254.46,333.69 L254.38,333.66 L254.31,333.62 L254.23,333.58 L254.16,333.54 L254.1,333.49 L254.03,333.44 L253.97,333.38 L253.91,333.32 L253.85,333.26 L253.74,333.12 L253.64,332.97 L253.54,332.81 L253.46,332.64 L253.38,332.46 L253.31,332.27 L253.25,332.07 L253.19,331.87 L253.14,331.66 L253.09,331.45 L253.06,331.23 L253.02,331.02 L252.99,330.8 L252.97,330.58 L252.95,330.37 L252.93,330.15 L252.92,329.94 L252.91,329.74 L252.9,329.54 L252.9,329.35 L252.9,329.16 L252.9,328.99 L252.9,328.82 L252.9,328.67 L252.91,328.53 C252.97,327.1,253.15,323.03,255.31,323.09 C257.47,323.16,257.35,327.23,257.29,328.66 C257.23,330.09,256.85,333.82,254.88,333.77 Z "
   stroke-width="0"
   fill="black"
   id="path690" /><path
   d="M254.92,332.81 L254.95,332.81 L254.98,332.8 L255.01,332.79 L255.04,332.78 L255.07,332.76 L255.1,332.74 L255.13,332.72 L255.16,332.69 L255.18,332.66 L255.21,332.62 L255.24,332.58 L255.26,332.54 L255.32,332.45 L255.37,332.34 L255.42,332.23 L255.47,332.11 L255.51,331.97 L255.56,331.83 L255.6,331.69 L255.64,331.53 L255.68,331.37 L255.72,331.21 L255.76,331.04 L255.79,330.87 L255.86,330.52 L255.91,330.17 L255.94,330 L255.96,329.83 L255.98,329.66 L256,329.49 L256.02,329.33 L256.03,329.18 L256.05,329.03 L256.06,328.88 L256.06,328.75 L256.07,328.62 C256.12,327.34,255.96,324.07,255.27,324.05 C254.59,324.04,254.18,327.28,254.13,328.57 C254.07,329.86,254.27,332.79,254.92,332.81 Z "
   stroke-width="0"
   fill="black"
   id="path691" /><path
   d="M254.88,333.77 L254.79,333.76 L254.7,333.75 L254.62,333.73 L254.54,333.71 L254.46,333.69 L254.38,333.66 L254.31,333.62 L254.23,333.58 L254.16,333.54 L254.1,333.49 L254.03,333.44 L253.97,333.38 L253.91,333.32 L253.85,333.26 L253.74,333.12 L253.64,332.97 L253.54,332.81 L253.46,332.64 L253.38,332.46 L253.31,332.27 L253.25,332.07 L253.19,331.87 L253.14,331.66 L253.09,331.45 L253.06,331.23 L253.02,331.02 L252.99,330.8 L252.97,330.58 L252.95,330.37 L252.93,330.15 L252.92,329.94 L252.91,329.74 L252.9,329.54 L252.9,329.35 L252.9,329.16 L252.9,328.99 L252.9,328.82 L252.9,328.67 L252.91,328.53 C252.97,327.1,253.15,323.03,255.31,323.09 C257.47,323.16,257.35,327.23,257.29,328.66 C257.23,330.09,256.85,333.82,254.88,333.77 Z "
   stroke-width="0.8511"
   id="path692" /><path
   d="M254.92,332.81 L254.95,332.81 L254.98,332.8 L255.01,332.79 L255.04,332.78 L255.07,332.76 L255.1,332.74 L255.13,332.72 L255.16,332.69 L255.18,332.66 L255.21,332.62 L255.24,332.58 L255.26,332.54 L255.32,332.45 L255.37,332.34 L255.42,332.23 L255.47,332.11 L255.51,331.97 L255.56,331.83 L255.6,331.69 L255.64,331.53 L255.68,331.37 L255.72,331.21 L255.76,331.04 L255.79,330.87 L255.86,330.52 L255.91,330.17 L255.94,330 L255.96,329.83 L255.98,329.66 L256,329.49 L256.02,329.33 L256.03,329.18 L256.05,329.03 L256.06,328.88 L256.06,328.75 L256.07,328.62 C256.12,327.34,255.96,324.07,255.27,324.05 C254.59,324.04,254.18,327.28,254.13,328.57 C254.07,329.86,254.27,332.79,254.92,332.81 Z "
   stroke-width="0.8511"
   id="path693" /><path
   d="M261.19,333.27 L263.9,333.6 C264.03,332.79,262.48,329.48,263.39,323.75 L264.56,323.9 C263.64,329.62,265.39,332.82,265.19,334.11 C265.14,334.36,265.02,334.56,264.66,334.52 L261.06,334.08 Z "
   stroke-width="0"
   fill="black"
   id="path694" /><path
   d="M261.19,333.27 L263.9,333.6 C264.03,332.79,262.48,329.48,263.39,323.75 L264.56,323.9 C263.64,329.62,265.39,332.82,265.19,334.11 C265.14,334.36,265.02,334.56,264.66,334.52 L261.06,334.08 Z "
   stroke-width="0.8511"
   id="path695" /><path
   d="M220.08,356.18 L219.34,356.36 L218.61,356.56 L217.89,356.78 L217.17,357.01 L216.46,357.25 L215.76,357.51 L215.07,357.79 L214.38,358.08 L213.7,358.38 L213.03,358.7 L212.36,359.04 L211.71,359.39 L211.06,359.75 L210.41,360.13 L209.78,360.52 L209.15,360.93 C205.53,363.35,202.7,366.21,200.66,369.54 C198.4,373.22,197.27,377.22,197.27,381.55 C197.27,385.23,198.35,388.27,200.54,390.68 C202.74,393.09,205.5,394.3,208.82,394.3 C209.8,394.3,216.34,394.28,217.21,394.23 C219.81,394.08,221.29,394,221.64,394 V387.45 C220.48,388.21,219.43,388.75,218.46,389.05 C217.51,389.35,210.8,389.5,209.57,389.5 C207.42,389.5,205.68,388.74,204.34,387.22 C203.02,385.72,202.37,383.73,202.37,381.24 C202.37,377.72,203.47,374.38,205.67,371.21 C207.57,368.48,209.99,366.21,212.92,364.43 C215.61,362.8,217.99,361.98,220.08,361.98 Z "
   stroke-width="0"
   fill="black"
   id="path696" /><path
   d="M220.08,356.18 L219.34,356.36 L218.61,356.56 L217.89,356.78 L217.17,357.01 L216.46,357.25 L215.76,357.51 L215.07,357.79 L214.38,358.08 L213.7,358.38 L213.03,358.7 L212.36,359.04 L211.71,359.39 L211.06,359.75 L210.41,360.13 L209.78,360.52 L209.15,360.93 C205.53,363.35,202.7,366.21,200.66,369.54 C198.4,373.22,197.27,377.22,197.27,381.55 C197.27,385.23,198.35,388.27,200.54,390.68 C202.74,393.09,205.5,394.3,208.82,394.3 C209.8,394.3,216.34,394.28,217.21,394.23 C219.81,394.08,221.29,394,221.64,394 V387.45 C220.48,388.21,219.43,388.75,218.46,389.05 C217.51,389.35,210.8,389.5,209.57,389.5 C207.42,389.5,205.68,388.74,204.34,387.22 C203.02,385.72,202.37,383.73,202.37,381.24 C202.37,377.72,203.47,374.38,205.67,371.21 C207.57,368.48,209.99,366.21,212.92,364.43 C215.61,362.8,217.99,361.98,220.08,361.98 Z "
   stroke-width="1.1879"
   id="path697" /><path
   d="M269.79,388.1 L269.63,388.19 L269.48,388.28 L269.33,388.37 L269.19,388.45 L269.05,388.53 L268.91,388.6 L268.79,388.67 L268.66,388.74 L268.54,388.8 L268.43,388.85 L268.32,388.9 L268.21,388.95 L268.11,388.99 L268.01,389.03 L267.92,389.07 L267.84,389.1 C267.17,389.33,266.35,389.45,265.38,389.45 H253.42 V382.25 H265.33 V377.39 H253.42 V361.18 C253.42,360.31,253.53,359.55,253.74,358.9 C253.91,358.4,254.25,357.69,254.77,356.77 H247.56 C248.02,357.44,248.3,358.2,248.44,359.05 C248.52,359.55,248.56,360.26,248.56,361.18 V389.9 C248.56,390.8,248.52,391.5,248.44,392 C248.29,392.88,248,393.65,247.56,394.3 H269.79 Z "
   stroke-width="0"
   fill="black"
   id="path698" /><path
   d="M269.79,388.1 L269.63,388.19 L269.48,388.28 L269.33,388.37 L269.19,388.45 L269.05,388.53 L268.91,388.6 L268.79,388.67 L268.66,388.74 L268.54,388.8 L268.43,388.85 L268.32,388.9 L268.21,388.95 L268.11,388.99 L268.01,389.03 L267.92,389.07 L267.84,389.1 C267.17,389.33,266.35,389.45,265.38,389.45 H253.42 V382.25 H265.33 V377.39 H253.42 V361.18 C253.42,360.31,253.53,359.55,253.74,358.9 C253.91,358.4,254.25,357.69,254.77,356.77 H247.56 C248.02,357.44,248.3,358.2,248.44,359.05 C248.52,359.55,248.56,360.26,248.56,361.18 V389.9 C248.56,390.8,248.52,391.5,248.44,392 C248.29,392.88,248,393.65,247.56,394.3 H269.79 Z "
   stroke-width="1"
   id="path699" /><path
   d="M278.13,381.76 H290.11 V376.9 L279.04,376.87 C279.65,374.52,280.45,372.39,281.46,370.45 C282.18,369.09,282.97,367.88,283.84,366.73 C285.39,364.65,286.96,362.97,288.78,362.2 C290.04,361.67,291.39,361.59,292.55,362.01 C292.74,362.09,293.26,362.38,294.13,362.86 V356.65 L293.02,356.65 C289.85,356.65,286.6,358.07,283.29,360.9 C280.18,363.55,277.72,367.02,275.9,371.31 C274.1,375.58,273.2,379.39,273.2,383.73 V389.87 C273.2,390.59,273.09,391.32,272.85,392.07 C272.64,392.82,272.29,393.58,271.8,394.3 L272.27,394.3 H296.8 V388.1 C295.98,388.62,295.33,388.96,294.84,389.12 C294.21,389.34,293.39,389.45,292.39,389.45 H278.12 Z "
   stroke-width="0"
   fill="black"
   id="path700" /><path
   d="M278.13,381.76 H290.11 V376.9 L279.04,376.87 C279.65,374.52,280.45,372.39,281.46,370.45 C282.18,369.09,282.97,367.88,283.84,366.73 C285.39,364.65,286.96,362.97,288.78,362.2 C290.04,361.67,291.39,361.59,292.55,362.01 C292.74,362.09,293.26,362.38,294.13,362.86 V356.65 L293.02,356.65 C289.85,356.65,286.6,358.07,283.29,360.9 C280.18,363.55,277.72,367.02,275.9,371.31 C274.1,375.58,273.2,379.39,273.2,383.73 V389.87 C273.2,390.59,273.09,391.32,272.85,392.07 C272.64,392.82,272.29,393.58,271.8,394.3 L272.27,394.3 H296.8 V388.1 C295.98,388.62,295.33,388.96,294.84,389.12 C294.21,389.34,293.39,389.45,292.39,389.45 H278.12 Z "
   stroke-width="1.1879"
   id="path701" /><path
   d="M244.77,356.68 H237.96 C238.41,357.34,238.7,358.1,238.84,358.95 C238.92,359.45,238.96,360.16,238.96,361.08 V370 H228.05 C228.05,369.55,228.05,366.92,228.03,365.93 C228.01,364.95,228,364.21,228,363.71 C228,362.07,228.07,360.68,228.2,359.53 C228.34,358.38,228.6,357.43,229,356.68 H222 C222.48,357.39,222.83,358.13,223.05,358.88 C223.29,359.63,223.4,360.36,223.4,361.08 V366.73 C223.4,371.07,224.3,375.38,226.1,379.64 C227.92,383.93,230.38,387.4,233.48,390.05 C236.8,392.89,240.05,394.3,243.21,394.3 C243.46,394.3,243.67,394.3,243.84,394.3 C244.02,394.3,244.33,394.27,244.77,394.2 C244.38,393.54,244.12,392.86,243.99,392.15 C243.87,391.47,243.82,390.73,243.82,389.95 V361.08 C243.82,360.21,243.85,359.53,243.94,359.03 C244.09,358.2,244.36,357.41,244.77,356.68 "
   stroke-width="0"
   fill="black"
   id="path702" /><path
   d="M244.77,356.68 H237.96 C238.41,357.34,238.7,358.1,238.84,358.95 C238.92,359.45,238.96,360.16,238.96,361.08 V370 H228.05 C228.05,369.55,228.05,366.92,228.03,365.93 C228.01,364.95,228,364.21,228,363.71 C228,362.07,228.07,360.68,228.2,359.53 C228.34,358.38,228.6,357.43,229,356.68 H222 C222.48,357.39,222.83,358.13,223.05,358.88 C223.29,359.63,223.4,360.36,223.4,361.08 V366.73 C223.4,371.07,224.3,375.38,226.1,379.64 C227.92,383.93,230.38,387.4,233.48,390.05 C236.8,392.89,240.05,394.3,243.21,394.3 C243.46,394.3,243.67,394.3,243.84,394.3 C244.02,394.3,244.33,394.27,244.77,394.2 C244.38,393.54,244.12,392.86,243.99,392.15 C243.87,391.47,243.82,390.73,243.82,389.95 V361.08 C243.82,360.21,243.85,359.53,243.94,359.03 C244.09,358.2,244.36,357.41,244.77,356.68 Z "
   stroke-width="1"
   id="path703" /><path
   d="M238.96,372.74 V388.75 C237.23,387.82,235.59,386.3,234.04,384.22 C232.7,382.44,231.54,380.4,230.56,378.12 C229.72,376.2,229.14,374.41,228.8,372.74 Z "
   stroke="#f4e29d"
   stroke-width="0"
   fill="#f4e29d"
   id="path704" /><path
   d="M238.96,372.74 V388.75 C237.23,387.82,235.59,386.3,234.04,384.22 C232.7,382.44,231.54,380.4,230.56,378.12 C229.72,376.2,229.14,374.41,228.8,372.74 Z "
   stroke-width="1"
   id="path705" /><polygon
   points="228.25,373.97 240.1,373.97 240.1,369.12 228.19,369.12 "
   stroke-width="0"
   fill="black"
   id="polygon706" /><polygon
   points="228.25,373.97 240.1,373.97 240.1,369.12 228.19,369.12 "
   stroke-width="0.4913"
   id="polygon707" /></g>
</svg>
